<svg xmlns="http://www.w3.org/2000/svg" width="100" height="100" viewBox="0 0 1024 1024">
    <path d="M502.5 41.166c-3.3.507-8.888 1.015-12.418 1.128-4.088.131-6.568.66-6.833 1.456-.309.931 1.634 1.25 7.609 1.25 4.413 0 8.302-.45 8.642-1 .34-.55 2.279-1.006 4.309-1.014 2.03-.007 4.698-.283 5.93-.613 1.231-.33 1.992-.999 1.691-1.487-.302-.487-1.084-.831-1.739-.764-.655.067-3.891.537-7.191 1.044m13.009 13.811c-3.762.394-5.076.966-5.333 2.323-.305 1.604.347 1.767 5.981 1.5 4.887-.232 6.393-.669 6.632-1.924.17-.893-.275-1.804-.99-2.023-.714-.219-3.545-.163-6.29.124m108.987.03c-.343.554.193 1.277 1.191 1.607.997.33 3.231 1.227 4.964 1.993 1.733.766 3.983 1.386 5 1.378 1.017-.009 2.511-.434 3.32-.946.809-.512 1.116-1.285.682-1.719-.434-.434-3.345-1.329-6.471-1.99-3.125-.661-6.218-1.23-6.873-1.266-.655-.035-1.471.389-1.813.943M380.45 64.923c-.522.508-2.265 1.07-3.873 1.25-1.607.18-3.107.89-3.333 1.577-.247.751.487 1.25 1.837 1.25 1.236 0 3.973-.762 6.083-1.692 2.11-.931 3.836-2.056 3.836-2.5 0-.445-.81-.808-1.8-.808s-2.228.415-2.75.923m93.558 1.018c-4.244 1.019-6.595 2.103-6.789 3.128-.214 1.137 1.026 1.875 4.499 2.676 3.429.792 6.074.805 9.288.045 2.472-.584 5.067-1.216 5.767-1.403.7-.188 1.543-1.046 1.873-1.907.331-.862.338-1.829.017-2.15-.321-.321-2.289-.891-4.373-1.266-2.327-.419-6.297-.081-10.282.877M631 67.051c0 .578 1.6 1.719 3.555 2.536s5.168 1.582 7.141 1.699c1.972.118 3.757-.263 3.965-.847.209-.584-2.032-1.821-4.979-2.75S634.351 66 633.162 66c-1.189 0-2.162.473-2.162 1.051M401 77.157c-1.375.575-3.962 1.667-5.75 2.428-1.788.76-3.25 1.898-3.25 2.529 0 .76 1.455.982 4.314.66 2.372-.268 5.635-1.12 7.25-1.894 1.615-.774 2.936-2.07 2.936-2.88s-.675-1.566-1.5-1.681c-.825-.114-2.625.263-4 .838m210.441 2.341c-1.894 1.462-1.875 1.556.811 3.953 1.513 1.351 4.438 2.924 6.5 3.497 2.061.572 5.886 1.043 8.498 1.046 3.952.005 4.75-.304 4.75-1.839 0-1.015-.788-2.546-1.75-3.403-.962-.856-4.194-2.276-7.182-3.155-2.987-.878-6.388-1.597-7.558-1.597s-3.001.674-4.069 1.498M521.25 82.22c-1.237.597-2.25 1.415-2.25 1.818s1.152 1.487 2.561 2.41c2.272 1.489 3.026 1.523 6.687.303 2.27-.757 4.304-1.908 4.521-2.557.216-.65-.797-1.634-2.253-2.188-1.455-.553-3.629-.976-4.831-.938-1.202.037-3.198.556-4.435 1.152M339.5 93.758c-3.85 2.058-7 4.192-7 4.742 0 .55 1.35 1.121 3 1.268 1.868.168 5.453-.997 9.5-3.084 3.575-1.844 6.5-3.99 6.5-4.768 0-.779-1.125-1.525-2.5-1.658s-5.65 1.442-9.5 3.5m289.5-.722c-1.285.86-1.177 1.276.753 2.897 1.239 1.041 4.035 2.193 6.213 2.561 2.178.368 4.427.381 4.997.029.57-.353 1.037-1.086 1.037-1.631 0-.544-1.913-1.858-4.25-2.919-2.337-1.061-4.925-1.932-5.75-1.936-.825-.003-2.175.446-3 .999m-209.5 8.683c-1.1.268-2.788 1.186-3.75 2.039-.962.854-1.75 1.932-1.75 2.397 0 .465 2.137.831 4.75.813 2.613-.017 5.538-.629 6.5-1.36.962-.731 1.75-2.066 1.75-2.968 0-1.151-.821-1.605-2.75-1.524-1.512.064-3.65.335-4.75.603m337.5 5.823c0 .298.788 1.383 1.75 2.412s4.788 3.452 8.5 5.384c3.926 2.044 6.75 3.015 6.75 2.322 0-.656-2.362-2.755-5.25-4.666-2.888-1.911-6.314-4.041-7.614-4.734-1.301-.693-2.763-1.26-3.25-1.26-.487 0-.886.244-.886.542m-9.992 6.473c.593 1.108 2.85 3.133 5.015 4.5 2.166 1.367 4.846 2.485 5.957 2.485 1.111 0 2.02-.444 2.02-.987 0-.544-1.687-2.022-3.75-3.286-2.062-1.264-5.009-2.844-6.547-3.512-1.538-.668-3.017-1.215-3.285-1.215-.269 0-.003.907.59 2.015m-291.035 3.631c-1.36.906-3.035 2.342-3.723 3.191-.687.85-1.25 2.385-1.25 3.41 0 1.235 1.436 2.496 4.25 3.732 3.223 1.416 5.251 1.681 8.395 1.097 2.279-.423 5.654-1.648 7.5-2.721 2.368-1.379 3.454-2.806 3.691-4.855.222-1.917-.267-3.342-1.441-4.201-1.032-.754-4.54-1.299-8.364-1.299-4.446 0-7.389.535-9.058 1.646m73.277-.639c-1.237.511-2.25 1.323-2.25 1.806 0 .482.823 1.622 1.829 2.532 1.006.91 3.17 1.655 4.809 1.655 1.639 0 3.853-.649 4.921-1.441 1.55-1.151 1.719-1.806.84-3.25-.659-1.083-2.466-1.894-4.5-2.02-1.87-.115-4.412.208-5.649.718m-261.254 7.743c-2.94 2.063-5.529 4.313-5.754 5-.225.688.249 1.25 1.052 1.25.804 0 2.021-.675 2.706-1.5s1.752-1.514 2.372-1.532c.621-.017 2.366-1.12 3.878-2.452 1.512-1.331 2.75-2.892 2.75-3.468 0-.576-.373-1.048-.829-1.048-.456 0-3.235 1.688-6.175 3.75m354.458 2.324c-.365.591.382 2.187 1.66 3.547 1.846 1.966 3.133 2.412 6.277 2.176 2.174-.163 4.134-.846 4.355-1.517.22-.671-1.095-2.132-2.923-3.246-1.827-1.115-4.534-2.028-6.014-2.03-1.48-.002-2.99.479-3.355 1.07m-323.808 3.929c-2.119 1.058-4.482 2.446-5.25 3.083-.768.637-1.396 1.835-1.396 2.661 0 1.146.733 1.356 3.084.886 1.696-.339 4.396-1.551 6-2.693 1.604-1.142 2.916-2.946 2.916-4.008 0-1.063-.337-1.914-.75-1.892-.413.022-2.484.905-4.604 1.963M592 131.29c-1.375.693-2.65 2.305-2.832 3.583-.202 1.408.586 3.303 2 4.812 1.282 1.369 3.849 3.125 5.704 3.902 1.855.777 5.147 1.413 7.316 1.413 2.169 0 4.804-.46 5.855-1.023 1.051-.563 2.372-1.883 2.934-2.934.67-1.251.691-2.785.063-4.437-.531-1.396-2.747-3.436-4.96-4.565-2.401-1.225-5.916-2.035-8.79-2.026-2.635.008-5.915.582-7.29 1.275m-154.466 3.673c-.977 1.079-1.511 2.654-1.187 3.5.372.968 1.856 1.537 4.011 1.537 1.881 0 4.445-.83 5.698-1.844 1.457-1.18 2.049-2.441 1.642-3.5-.44-1.147-1.826-1.656-4.512-1.656-2.582 0-4.469.655-5.652 1.963m293.646.253c.176 1.218 1.849 3.243 3.718 4.5 1.869 1.256 4.43 2.284 5.691 2.284 1.261 0 2.555-.423 2.874-.94.32-.518-.441-1.903-1.691-3.078-1.25-1.176-3.789-2.778-5.644-3.56s-3.799-1.422-4.32-1.422c-.521 0-.803.997-.628 2.216m14.282-1.154c-.361.584 1.109 2.742 3.266 4.794 2.158 2.053 6.247 4.698 9.087 5.878 4.603 1.913 5.326 1.982 6.672.636 1.149-1.149 1.256-1.981.447-3.493-.583-1.091-3.486-3.534-6.45-5.43-3.503-2.241-6.609-3.447-8.877-3.447-1.919 0-3.784.478-4.145 1.062m-413.347 6.439c-2.411.752-5.899 2.835-7.75 4.629-1.851 1.794-3.365 4.229-3.365 5.411 0 1.182.823 2.894 1.829 3.804 1.006.91 2.963 1.655 4.35 1.655 1.386 0 4.292-1.283 6.457-2.851s5.157-4.303 6.65-6.077c1.493-1.774 2.714-3.609 2.714-4.077 0-.469-.707-1.559-1.571-2.424-.865-.864-2.327-1.541-3.25-1.504-.924.037-3.652.682-6.064 1.434M228.973 152.73c-1.36.952-4.456 3.657-6.879 6.011-2.423 2.354-4.11 4.576-3.749 4.938.362.361 1.712.093 3-.596 1.289-.69 4.438-3.205 6.999-5.59s4.656-4.822 4.656-5.415-.35-1.078-.777-1.078c-.428 0-1.891.779-3.25 1.73m308.527 4.063c-1.1.22-2.404.784-2.899 1.253-.525.497-.203 1.912.773 3.403 1.146 1.748 2.57 2.551 4.527 2.551 1.57 0 3.396-.653 4.059-1.452.663-.799 1.055-2.229.873-3.178-.183-.949-1.458-2.008-2.833-2.353-1.375-.344-3.4-.445-4.5-.224m174.013 6.186c-.333.539-.121 1.884.47 2.99.592 1.106 2.391 2.69 3.997 3.521 1.606.83 3.591 1.51 4.411 1.51.82 0 1.763-.441 2.096-.979.333-.539.121-1.884-.47-2.99-.592-1.106-2.391-2.69-3.997-3.521-1.606-.83-3.591-1.51-4.411-1.51-.82 0-1.763.441-2.096.979m-94.763 2.71c-.962.252-1.75 1.299-1.75 2.328 0 1.028 1 2.57 2.223 3.426 1.222.856 3.424 1.557 4.893 1.557 1.468 0 2.929-.675 3.246-1.5.316-.825.303-2.209-.03-3.077-.333-.867-1.698-1.992-3.033-2.5-1.336-.507-2.737-.871-3.114-.807-.377.064-1.473.322-2.435.573m-158.5 5.531c-1.238.597-2.25 1.66-2.25 2.361 0 .702.707 1.983 1.571 2.848.865.864 2.237 1.571 3.05 1.571.813 0 2.806-.687 4.429-1.526 1.622-.839 2.95-2.173 2.95-2.964 0-.792-.87-1.905-1.934-2.475-1.064-.569-2.752-1.005-3.75-.967-.999.037-2.828.556-4.066 1.152m-99.5 3.329c-1.906 1.05-2.75 2.313-2.75 4.115 0 2.468.208 2.571 4.121 2.047 2.267-.304 4.504-.936 4.971-1.403.468-.468.976-1.966 1.129-3.329.226-2.003-.201-2.524-2.221-2.712-1.375-.129-3.738.448-5.25 1.282m362.131 10.812c-.834 1.83-.708 3.073.558 5.52.898 1.737 3.47 4.489 5.715 6.116 2.245 1.626 5.606 3.243 7.468 3.592 2.334.438 4.162.127 5.882-1 1.373-.899 2.496-2.541 2.496-3.647 0-1.107-.77-3.188-1.711-4.624-.941-1.436-3.484-3.895-5.65-5.465-3.049-2.208-5.04-2.853-8.81-2.853-4.15 0-5.031.35-5.948 2.361m121.123 5.389c.001.412 1.633 2.662 3.624 5 1.992 2.338 4.465 4.25 5.497 4.25 1.031 0 1.875-.645 1.875-1.433s-1.959-3.038-4.353-5c-2.394-1.962-4.869-3.567-5.5-3.567-.631 0-1.145.338-1.143.75M867 194.223c0 .842.703 2.115 1.562 2.828.859.713 3.171 3.721 5.138 6.685 2.425 3.653 3.904 5.06 4.594 4.37.69-.69-.322-2.754-3.145-6.413-2.289-2.967-5.059-6.207-6.156-7.199-1.672-1.514-1.993-1.557-1.993-.271m-643.5 3.042c-1.65.548-3.853 1.725-4.896 2.615-1.043.891-3.181 3.375-4.75 5.52-1.57 2.145-2.854 4.733-2.854 5.75 0 1.018.606 1.85 1.347 1.85s2.422.933 3.737 2.073c2.39 2.073 2.39 2.073 6.252-2.068 2.556-2.739 3.695-4.778 3.369-6.026-.272-1.037.12-2.694.869-3.683.749-.988 1.377-2.782 1.394-3.987.018-1.205-.306-2.382-.718-2.615-.412-.233-2.1.024-3.75.571m467.202-.633c-.386.386-.702 1.301-.702 2.035 0 .733.9 2.233 2 3.333 1.12 1.12 3.333 2 5.031 2 1.843 0 3.27-.621 3.639-1.583.347-.904-.202-2.364-1.281-3.403-1.039-1-3.261-2.103-4.937-2.451-1.677-.348-3.364-.317-3.75.069m-247.89 3.341c-2.028 1.106-4.39 3.015-5.25 4.241-.859 1.227-1.562 3.444-1.562 4.927 0 1.482.28 3.424.621 4.314.342.891 1.894 2.277 3.451 3.082 1.556.805 4.898 1.463 7.428 1.463 2.53 0 5.814-.632 7.3-1.405 1.485-.773 3.653-2.46 4.819-3.75 1.165-1.29 2.408-3.569 2.762-5.066.499-2.115.027-3.407-2.119-5.801-2.293-2.558-3.696-3.16-8.262-3.548-4.256-.362-6.334-.013-9.188 1.543m97.673 2.075c-.358 1.126-.108 2.701.555 3.5.663.799 2.41 1.452 3.882 1.452 1.473 0 3.151-.473 3.729-1.051.579-.579.841-2.154.584-3.5-.399-2.089-1.029-2.449-4.284-2.449-2.968 0-3.961.455-4.466 2.048m-352.019.717c-.569.404-2.756 2.867-4.861 5.474-3.188 3.947-3.556 4.842-2.203 5.362.893.342 2.331.036 3.195-.682.865-.717 2.884-3.211 4.487-5.542 1.604-2.33 2.916-4.494 2.916-4.807 0-.314-.562-.563-1.25-.555-.687.009-1.715.346-2.284.75M816 203.5c0 .825 1.828 3.328 4.063 5.563 2.234 2.234 4.568 3.893 5.187 3.687.619-.206 1.293-.878 1.498-1.493.205-.615-1.282-2.949-3.304-5.188-2.022-2.238-4.524-4.069-5.56-4.069-1.036 0-1.884.675-1.884 1.5m-427.558 2.948c-1.354 2.066-1.439 2.851-.438 4.057.683.822 2.225 1.495 3.427 1.495 1.203 0 2.939-.562 3.859-1.25.919-.687 1.793-2.375 1.941-3.75.239-2.218-.147-2.535-3.421-2.807-3.038-.252-3.986.146-5.368 2.255m217.632 2.414c-.698 1.305-.622 2.374.255 3.573.896 1.225 2.352 1.619 5.134 1.388 2.135-.178 4.058-.857 4.272-1.51.215-.654-.538-2.116-1.672-3.25-1.135-1.135-3.172-2.063-4.528-2.063-1.38 0-2.903.819-3.461 1.862m-130.021 3.574c-.885 1.066-.907 1.968-.087 3.5.73 1.364 2.098 2.064 4.034 2.064 1.943 0 3.304-.7 4.042-2.078.612-1.143.866-2.718.566-3.5-.324-.845-1.93-1.422-3.954-1.422-1.875 0-3.945.646-4.601 1.436m90.948.687c-1.375.549-3.513 1.949-4.75 3.111a7.112 7.112 0 0 0-2.216 5.19c.02 1.692.613 4.116 1.318 5.386.705 1.271 2.602 3.18 4.214 4.244 2.004 1.321 4.683 1.935 8.46 1.939 3.474.005 6.447-.605 8-1.639 1.36-.906 3.036-2.342 3.723-3.191.688-.85 1.25-3.069 1.25-4.931 0-2.383-.838-4.224-2.829-6.215-1.556-1.555-4.593-3.318-6.75-3.917-2.156-.599-4.821-1.063-5.921-1.031-1.1.032-3.125.506-4.499 1.054m-309.751 5.461c-1.787 1.408-3.25 3.402-3.25 4.429 0 1.028.476 2.163 1.057 2.522s2.048.404 3.26.1c1.212-.304 3.025-1.944 4.03-3.646 1.005-1.701 1.577-3.744 1.272-4.541-.306-.796-1.133-1.443-1.838-1.437-.704.006-2.743 1.164-4.531 2.573m-102.808 1.073c-1.354 1.461-2.243 2.875-1.976 3.142.267.267 1.196-.104 2.064-.824.869-.721 2.02-2.135 2.56-3.143.539-1.007.718-1.832.397-1.832-.32 0-1.69 1.196-3.045 2.657m172.845-.027c-1.767.871-4.4 3.14-5.851 5.042-1.577 2.068-2.677 4.841-2.735 6.895-.054 1.89.4 3.934 1.008 4.542.608.608 2.61 1.435 4.448 1.837 2.149.47 4.772.212 7.343-.723 2.2-.799 5.462-2.97 7.25-4.824 2.552-2.645 3.25-4.22 3.25-7.328 0-2.956-.562-4.352-2.223-5.514-1.222-.856-3.809-1.547-5.75-1.534-1.94.012-4.973.735-6.74 1.607m459.963 2.088c-.687.247-1.25 1.513-1.25 2.814 0 1.528 1.237 3.31 3.49 5.028 1.926 1.469 4.166 2.402 5 2.082.83-.318 1.5-1.381 1.488-2.361-.012-.979-.8-2.741-1.75-3.914-.951-1.173-2.628-2.575-3.728-3.115s-2.562-.78-3.25-.534m72.125.747c-.309.806 1.021 4.071 2.955 7.256 1.935 3.185 4.912 6.821 6.615 8.081 1.704 1.259 3.538 2.017 4.076 1.685.539-.333.979-1.487.979-2.566 0-1.078-1.089-3.685-2.419-5.793-1.33-2.107-4.208-5.248-6.394-6.98-2.186-1.731-4.262-3.148-4.612-3.148-.351 0-.891.659-1.2 1.465M295.682 235.56c-1 1.373-1.671 3.271-1.492 4.218.206 1.085 1.433 1.831 3.318 2.016 2.522.248 3.285-.249 4.854-3.165 1.024-1.902 1.559-3.947 1.191-4.544-.369-.597-1.882-1.071-3.362-1.054-1.693.02-3.365.958-4.509 2.529m371.874-1.65c-.309.5-.256 1.738.118 2.75s1.163 2.171 1.753 2.575c.59.404 2.325.741 3.854.75 1.591.008 3.034-.643 3.372-1.522.324-.846-.21-2.421-1.187-3.5-.977-1.08-3.03-1.963-4.562-1.963-1.532 0-3.039.409-3.348.91M138 239.195c0 .658-1.205 2.453-2.677 3.99-1.473 1.537-2.329 3.136-1.903 3.555.427.418 2.081-.798 3.678-2.702 1.596-1.904 2.902-4.042 2.902-4.75 0-.709-.45-1.288-1-1.288s-1 .538-1 1.195m281.035.739c-.569 1.064-1.035 2.398-1.035 2.965 0 .567.874 1.499 1.943 2.07 1.373.735 2.692.699 4.5-.125 1.869-.851 2.557-1.929 2.557-4.005 0-2.572-.325-2.839-3.465-2.839-2.402 0-3.782.593-4.5 1.934m126.128 5.944c-.736.467-1.186 1.922-1 3.235.286 2.029.975 2.433 4.587 2.694 3.885.282 4.25.106 4.25-2.05 0-1.296-.54-2.897-1.2-3.557-.66-.66-2.122-1.193-3.25-1.185-1.127.009-2.652.397-3.387.863m208.221 1.564c-.304.792-.401 2.231-.215 3.195.186.965 1.786 2.601 3.557 3.635 1.77 1.034 3.681 1.594 4.247 1.245.565-.349 1.027-1.947 1.027-3.55 0-2.217-.707-3.281-2.95-4.441-1.623-.839-3.437-1.526-4.032-1.526-.594 0-1.33.649-1.634 1.442m-156.134 4.22c-.687.278-1.25 1.297-1.25 2.266 0 .969.867 2.546 1.926 3.505 1.059.958 2.746 1.586 3.75 1.394 1.003-.191 1.971-1.38 2.151-2.642.179-1.262-.213-2.945-.873-3.74-.659-.795-1.931-1.409-2.826-1.366-.896.043-2.19.306-2.878.583m-102.087 2.216c-.736.467-1.186 1.922-1 3.235.282 1.995.91 2.387 3.823 2.387 2.652 0 3.576-.463 3.859-1.934.205-1.064-.437-2.526-1.427-3.25-.99-.724-2.277-1.309-2.859-1.301-.583.009-1.661.397-2.396.863m-159.646 3.105c-2.786 2.907-2.812 3.034-1.033 5 1.004 1.109 2.241 2.017 2.748 2.017.507 0 2.237-1.315 3.845-2.923s2.923-3.336 2.923-3.84-1.146-1.438-2.547-2.076c-1.401-.639-2.667-1.161-2.813-1.161-.146 0-1.552 1.342-3.123 2.983m346.865 4.926c-1.714 1.045-3.411 3.069-3.769 4.496-.358 1.427-.343 3.833.032 5.345.376 1.512 1.574 3.96 2.662 5.438 1.088 1.478 4.193 3.641 6.901 4.806 4.177 1.797 5.443 1.946 8.354.985 1.888-.622 4.108-2.098 4.935-3.278.827-1.18 1.487-3.958 1.467-6.174-.024-2.654-.791-4.928-2.25-6.671-1.218-1.454-3.789-3.59-5.714-4.746-1.925-1.157-4.85-2.103-6.5-2.103-1.65 0-4.403.856-6.118 1.902m-457.321 9.655c-2.169 1.96-4.67 5.465-5.558 7.789-1.232 3.225-1.367 4.873-.573 6.962.572 1.505 1.723 2.998 2.557 3.318.835.321 2.633.303 3.997-.04 1.364-.342 4.086-2.032 6.049-3.756 1.963-1.724 4.221-4.395 5.018-5.936.797-1.541 1.449-4.142 1.449-5.78s-.707-3.685-1.571-4.55c-.865-.864-2.888-1.571-4.498-1.571-1.949 0-4.242 1.19-6.87 3.564m606.569-1.402c-1.15 1.755-1.32 3.279-.681 6.111.468 2.074 1.561 4.857 2.43 6.183.869 1.326 3.137 3.598 5.04 5.05 2.291 1.748 4.408 2.53 6.27 2.316 2.62-.3 2.831-.665 3.106-5.354.247-4.229-.146-5.596-2.467-8.574-1.519-1.949-3.73-4.273-4.914-5.167-1.184-.893-3.3-1.911-4.703-2.263-1.984-.498-2.889-.122-4.081 1.698m-186.963 1.505c-.367.366-.667 1.608-.667 2.759 0 1.151.885 2.646 1.967 3.321 1.374.859 2.73.938 4.5.266 1.393-.53 2.533-1.713 2.533-2.628s-.788-2.262-1.75-2.993c-.962-.731-2.687-1.343-3.833-1.36-1.146-.018-2.384.268-2.75.635m-511.056 4.776c-1.436 1.883-2.611 3.855-2.611 4.383s-.675 1.219-1.5 1.536c-.825.316-1.5 1.463-1.5 2.548 0 1.084-.45 2.25-1 2.59-.55.34-1 1.941-1 3.559s.366 2.941.813 2.941c.447 0 1.968-1.238 3.379-2.75 1.412-1.512 3.746-4.654 5.187-6.98 1.442-2.327 2.621-5.563 2.621-7.191 0-1.629-.4-3.208-.889-3.51-.489-.302-2.064.991-3.5 2.874m586.203-.933c-.983 2.157-.816 2.859 1.195 5 1.287 1.369 2.866 2.49 3.51 2.49.644 0 1.934-.843 2.867-1.874 1.606-1.775 1.556-2.041-.934-5-1.446-1.719-3.274-3.126-4.062-3.126-.788 0-1.947 1.129-2.576 2.51m-270.774-.058c-.663.799-1.049 2.261-.859 3.25.254 1.321 1.272 1.798 3.833 1.798 2.913 0 3.541-.392 3.823-2.387.186-1.313-.264-2.768-1-3.235-.735-.466-2.069-.854-2.965-.863-.895-.008-2.169.638-2.832 1.437m-74.29 5.628c-.962.561-1.75 2.092-1.75 3.402 0 1.449.732 2.616 1.868 2.976 1.027.326 3.052.143 4.5-.408 2.042-.776 2.632-1.679 2.632-4.025 0-2.641-.349-3.021-2.75-2.995-1.512.017-3.538.489-4.5 1.05m534.968 7.212c-.338.882.524 3.765 1.917 6.406 1.392 2.641 2.929 5.215 3.416 5.719.528.548 1.141.246 1.524-.752.352-.918.358-2.797.012-4.175-.346-1.378-1.895-3.922-3.441-5.653-2.304-2.578-2.924-2.858-3.428-1.545m-32.991 2.958c-.242.688-.024 2.375.483 3.75.508 1.375 1.872 3.512 3.031 4.75s2.929 2.25 3.933 2.25c1.131 0 1.826-.727 1.826-1.91 0-1.051-1.205-3.751-2.678-6-1.472-2.25-3.46-4.09-4.416-4.09-.957 0-1.937.563-2.179 1.25m-328.156 1.321c-.864.865-1.571 1.935-1.571 2.378 0 .443.653 1.348 1.452 2.011.799.663 2.213 1.055 3.143.873.93-.183 2.189-1.147 2.798-2.142.886-1.447.719-2.096-.834-3.25-1.068-.792-2.273-1.441-2.679-1.441-.405 0-1.444.707-2.309 1.571m-380.565 6.611c-1.126 1.825-2.32 4.363-2.654 5.641-.333 1.278-.092 2.837.537 3.466.856.856 1.911.373 4.213-1.93 2.079-2.078 3.125-4.157 3.235-6.429.119-2.457-.299-3.453-1.56-3.712-1.097-.226-2.468.852-3.771 2.964m417.49-1.535c-1.529 1.529-1.505 1.789.338 3.631 1.43 1.43 2.707 1.803 4.575 1.334 1.878-.471 2.591-1.304 2.591-3.024 0-1.306-.712-2.647-1.582-2.981-.87-.334-2.188-.607-2.928-.607-.741 0-2.088.741-2.994 1.647m-74.566.937c-.953 1.149-1.026 2.041-.263 3.25.578.916 2.078 1.666 3.333 1.666 1.255 0 2.755-.75 3.333-1.666.763-1.209.69-2.101-.263-3.25-.723-.871-2.105-1.584-3.07-1.584-.965 0-2.347.713-3.07 1.584m424.07-.206c0 .757.675 1.937 1.5 2.622.825.685 1.5 1.81 1.5 2.5s.675 1.815 1.5 2.5c1.226 1.018 1.5.955 1.5-.344 0-.873-.758-3.178-1.685-5.122s-2.277-3.534-3-3.534c-.723 0-1.315.62-1.315 1.378m-725.324 2.219c-1.655 1.655-2.676 3.768-2.676 5.539 0 2.099.484 2.864 1.813 2.864.997 0 3.06-1.301 4.584-2.892 1.796-1.875 2.653-3.718 2.437-5.24-.184-1.291-1.042-2.482-1.908-2.647-.866-.165-2.778.904-4.25 2.376m629.966-1.308c-1.485 1.101-1.494 1.484-.095 4.211.847 1.65 2.281 3.563 3.187 4.25.907.688 2.462 1.25 3.457 1.25 1.216 0 1.809-.747 1.809-2.277 0-1.253-.698-3.275-1.551-4.493-.853-1.218-2.366-2.651-3.362-3.184-1.236-.661-2.33-.584-3.445.243m-708.892 6.068c-1.512 2.394-2.75 5.291-2.75 6.439 0 1.147.421 2.346.935 2.664.514.317 2.134-.995 3.6-2.917 1.465-1.921 2.732-4.919 2.815-6.662.082-1.742-.3-3.327-.85-3.523-.55-.195-2.238 1.605-3.75 3.999m553.597.18c-.324.846.229 2.442 1.23 3.548 1.124 1.242 2.793 1.896 4.371 1.712 1.82-.212 2.649-.982 2.889-2.684.186-1.313-.264-2.768-1-3.235-.735-.466-2.589-.854-4.118-.863-1.591-.008-3.034.643-3.372 1.522m-431.319 2.154c-1.164 1.481-1.984 3.618-1.822 4.75.203 1.423 1.033 2.059 2.686 2.059 1.419 0 3.191-1.07 4.356-2.63 1.285-1.721 1.731-3.362 1.29-4.75-.37-1.166-1.51-2.12-2.533-2.12s-2.813 1.211-3.977 2.691m159.627 1.138c-.91 1.006-1.655 2.286-1.655 2.845 0 .559.888 1.82 1.974 2.803 1.849 1.673 2.135 1.681 4.5.132 1.525-.999 2.526-2.594 2.526-4.025 0-1.304-.712-2.643-1.582-2.977-.87-.334-2.15-.607-2.845-.607-.695 0-2.008.823-2.918 1.829m20.845 3.273c-1.65.507-3.681 1.479-4.514 2.16-.832.681-2.224 2.363-3.092 3.738-.867 1.375-1.893 3.778-2.278 5.341-.523 2.125-.054 3.942 1.865 7.216 1.956 3.338 3.485 4.652 6.445 5.539 2.265.678 5.479.863 7.718.443 2.598-.487 5.053-1.997 7.597-4.672 3.216-3.381 3.759-4.608 3.759-8.505 0-2.982-.705-5.543-2.043-7.423-1.184-1.662-3.602-3.302-5.75-3.898-2.039-.567-4.382-.992-5.207-.945-.825.046-2.85.499-4.5 1.006m187.652-.217c-.742.47-1.188 1.691-.991 2.714.197 1.023 1.594 2.294 3.104 2.825 1.922.676 3.095.616 3.913-.202.884-.884.888-1.781.016-3.695-.633-1.39-1.948-2.52-2.923-2.512-.974.009-2.378.4-3.119.87m178.048.315c-.66.66-1.2 1.603-1.2 2.096 0 .492.931 2.202 2.068 3.8 1.312 1.842 2.957 2.904 4.5 2.904 2.091 0 2.432-.469 2.432-3.345 0-1.971-.751-4.025-1.829-5-1.006-.91-2.491-1.655-3.3-1.655-.809 0-2.011.54-2.671 1.2m-322.533.467c-.367.366-.667 1.686-.667 2.932 0 1.331.768 2.51 1.859 2.856 1.023.325 2.563.32 3.423-.01.86-.33 1.809-1.24 2.109-2.022.301-.783.287-2.098-.029-2.923-.317-.826-1.801-1.5-3.302-1.5-1.5 0-3.027.3-3.393.667m-377.066 9.877c-1.595 3.57-2.571 6.82-2.169 7.222.402.402 1.414-.168 2.249-1.268.835-1.099 2.374-3.951 3.421-6.338 1.048-2.388 1.651-4.75 1.342-5.25-.309-.501-.873-.898-1.253-.883-.38.015-1.996 2.947-3.59 6.517m197.839-4.093c-.883 1.348-1.452 3.26-1.264 4.25.207 1.095 1.392 1.921 3.025 2.11 2.1.243 3.005-.308 4.154-2.531 1.016-1.964 1.172-3.373.508-4.561-.529-.945-1.83-1.719-2.89-1.719s-2.65 1.103-3.533 2.451m237.745 5.538c-1.824.432-4.469 1.848-5.879 3.148-1.41 1.3-3.126 3.713-3.814 5.363-.749 1.799-1.052 5.263-.755 8.651.494 5.65.494 5.65 6.194 7.25 3.135.879 7.246 1.597 9.135 1.595 1.889-.002 4.896-.895 6.684-1.985 1.788-1.09 3.25-2.438 3.25-2.996 0-.558 1.35-1.015 3-1.015 2.279 0 3-.456 3-1.897 0-1.044-1.382-4.683-3.071-8.087-2.764-5.571-3.615-6.429-8.528-8.602-3.002-1.328-5.558-2.368-5.68-2.312-.121.057-1.713.456-3.536.887m-198.035 2.33c-1.842.692-4.655 3.009-6.25 5.148-2.335 3.132-2.9 4.909-2.9 9.122 0 4.616.363 5.539 3.077 7.822 1.919 1.615 4.271 2.581 6.25 2.567 1.745-.012 5.105-.899 7.466-1.97 3.406-1.546 4.72-2.914 6.358-6.617 1.422-3.214 1.886-5.777 1.488-8.226-.317-1.957-1.628-4.608-2.912-5.892-1.284-1.284-3.885-2.533-5.781-2.774-1.895-.241-4.953.128-6.796.82m420.362 2.643c-.343 1.079-.162 2.824.402 3.878.564 1.053 2.153 2.131 3.532 2.394 1.379.264 2.743.244 3.03-.044.288-.288.524-1.541.524-2.785 0-1.244-.707-2.969-1.571-3.834-.865-.864-2.409-1.571-3.433-1.571s-2.141.883-2.484 1.962m-106.191 6.24c-.552.714-.717 2.423-.367 3.798.452 1.775 1.316 2.5 2.982 2.5 1.29 0 2.843-.788 3.45-1.75.802-1.271.804-2.229.007-3.5-.604-.962-1.991-1.884-3.083-2.048-1.092-.164-2.437.286-2.989 1m-505.108 1.603c-1.258.968-3.168 3.095-4.244 4.727-1.367 2.075-1.958 4.698-1.962 8.718C140 356 140 356 143.25 356c2.506 0 3.879-.789 6-3.447 1.512-1.895 2.75-4.344 2.75-5.441 0-1.096.45-2.272 1-2.612.55-.34 1-1.909 1-3.488 0-1.578-.707-3.576-1.571-4.441-.865-.864-2.102-1.561-2.75-1.549-.649.012-2.208.815-3.466 1.783m792.235.279c-.37.599.1 2.963 1.046 5.253.945 2.29 2.648 6.3 3.783 8.913 1.136 2.613 2.663 4.75 3.394 4.75.872 0 1.329-1.307 1.329-3.804 0-2.092-1.169-6.149-2.598-9.017-1.429-2.867-3.427-5.657-4.439-6.199-1.251-.669-2.058-.636-2.515.104m-488.285.794c-.736.467-1.186 1.922-1 3.235.246 1.747 1.065 2.471 3.052 2.7 2.189.252 2.837-.173 3.344-2.193.346-1.379.335-2.982-.024-3.563-.359-.581-1.414-1.05-2.344-1.042-.93.009-2.293.397-3.028.863m330.914 1.711c-2.583 2.174-3.077 3.3-3.077 7.02 0 3.002.805 5.706 2.497 8.386 1.373 2.175 3.534 4.634 4.802 5.465 1.268.831 3.641 1.778 5.272 2.104 2.294.459 3.577.028 5.658-1.9 1.479-1.371 2.992-3.698 3.362-5.169.369-1.472.162-4.374-.459-6.45-.622-2.076-2.107-5.015-3.299-6.531-1.193-1.516-3.654-3.377-5.469-4.135-1.815-.759-3.955-1.379-4.755-1.379-.801 0-2.84 1.165-4.532 2.589M574.638 342.5c-.316.825-.316 2.175 0 3 .317.825 1.598 1.5 2.847 1.5 1.248 0 2.871-.724 3.605-1.608 1.134-1.367 1.048-1.818-.569-3-1.047-.766-2.669-1.392-3.605-1.392-.936 0-1.961.675-2.278 1.5m141.029 3.167c-.367.366-.667 1.626-.667 2.8 0 1.173.54 2.673 1.2 3.333.66.66 1.994 1.2 2.965 1.2.97 0 2.241-.89 2.823-1.977.771-1.441.715-2.525-.206-4-.695-1.113-2.205-2.023-3.356-2.023-1.151 0-2.393.3-2.759.667m-329.042 2.851c-.894.894-1.625 2.213-1.625 2.931s.62 1.821 1.378 2.45c.98.813 2.157.848 4.067.122 2.157-.82 2.625-1.565 2.371-3.771-.22-1.914-.962-2.842-2.441-3.053-1.169-.167-2.857.428-3.75 1.321m211.341 3.546c-.82 1.532-.798 2.434.087 3.5.656.79 1.699 1.429 2.319 1.421.621-.009 1.777-.427 2.571-.929 1.168-.739 1.22-1.402.272-3.484-.645-1.415-1.841-2.572-2.658-2.572-.818 0-1.984.929-2.591 2.064m-94.577.366c-.332.863-.332 2.277 0 3.14.361.942 1.504 1.442 2.857 1.25 1.652-.235 2.254-.987 2.254-2.82 0-1.833-.602-2.585-2.254-2.82-1.353-.192-2.496.308-2.857 1.25M630 364.289c-1.925.505-5.638 1.14-8.25 1.411-3.69.383-4.75.888-4.75 2.262 0 .972.9 2.912 2 4.311 1.1 1.398 2.002 3.821 2.004 5.385.002 1.563.856 4.241 1.899 5.95 1.042 1.709 4.022 4.297 6.622 5.75 2.6 1.453 5.503 2.642 6.451 2.642.948 0 3.568-1.336 5.822-2.969 2.254-1.632 4.633-3.967 5.286-5.189.654-1.221 1.189-3.895 1.189-5.942 0-2.103-.969-5.29-2.226-7.324-1.224-1.981-3.187-4.116-4.363-4.745-1.175-.629-3.498-1.44-5.16-1.802-1.663-.362-4.599-.245-6.524.26m-376 .417c-.825.302-2.552 1.504-3.837 2.671-1.286 1.168-2.973 3.64-3.75 5.495-.777 1.855-1.411 4.78-1.409 6.5.002 1.72.86 4.533 1.908 6.251 1.306 2.142 2.882 3.267 5.018 3.58 1.748.257 4.749-.286 6.842-1.236 2.066-.939 4.579-3.169 5.636-5.003 1.05-1.819 1.934-5.143 1.964-7.386.031-2.243-.254-5.238-.634-6.657-.379-1.418-1.847-3.105-3.261-3.75-1.414-.644-3.562-1.135-4.774-1.092-1.212.043-2.878.326-3.703.627m419.527.91c-1.414 1.414-1.439 1.884-.2 3.75.779 1.174 2.438 2.134 3.686 2.134 1.248 0 2.768-.816 3.378-1.813.903-1.476.671-2.172-1.252-3.75-1.298-1.065-2.729-1.937-3.178-1.937-.45 0-1.545.727-2.434 1.616m-243.964 2.185c-.335 1.054-.316 2.68.042 3.612.432 1.125 1.533 1.593 3.273 1.391 2.179-.253 2.622-.811 2.622-3.304 0-2.506-.439-3.051-2.664-3.308-1.915-.222-2.835.231-3.273 1.609m55.994 1.136c-.964 1.065-1.457 2.415-1.096 3S486.456 373 488.09 373c1.836 0 3.214-.629 3.604-1.645.386-1.007-.088-2.17-1.223-3-1.019-.745-2.148-1.355-2.507-1.355-.36 0-1.443.872-2.407 1.937m-406.264 7.324c-.513.681-1.441 3.039-2.061 5.239-.621 2.2-1.347 5.679-1.614 7.732-.268 2.052-.085 3.979.405 4.282.491.303 1.539-.701 2.329-2.231.79-1.531 1.865-5.612 2.387-9.07.523-3.458.621-6.49.219-6.739-.402-.249-1.151.106-1.665.787m829.329 5.489c-1.397 3.116-1.506 4.669-.641 9.191.572 2.993 1.683 6.423 2.468 7.622.786 1.199 2.691 2.422 4.234 2.717 1.543.295 3.192.298 3.663.006.472-.292 1.475-2.008 2.23-3.814 1.176-2.815 1.158-4.003-.125-8.324-.829-2.793-2.857-6.401-4.551-8.094-1.679-1.68-3.626-3.054-4.325-3.054-.699 0-2.028 1.688-2.953 3.75M278 385c-1.1 1.1-2 2.81-2 3.8 0 .99.54 2.34 1.2 3 .66.66 1.955 1.2 2.878 1.2.922 0 2.127-.562 2.677-1.25.55-.687 1.296-2.215 1.657-3.395.417-1.365.073-2.728-.949-3.75-.883-.883-2.024-1.605-2.534-1.605-.511 0-1.829.9-2.929 2m-46.904.384c-.678.817-1.089 2.974-.914 4.792.19 1.982.927 3.423 1.837 3.595.836.158 2.335-.309 3.331-1.037 1.061-.777 1.881-2.754 1.98-4.779.149-3.024-.152-3.492-2.416-3.756-1.422-.165-3.14.368-3.818 1.185m319.902.118c-1.111 1.339-1.074 1.851.226 3.151 1.001 1 2.325 1.308 3.723.864 1.503-.477 2.075-1.353 1.861-2.853-.185-1.302-1.14-2.283-2.396-2.462-1.148-.164-2.684.421-3.414 1.3m274.252-.84c-.687.278-1.25 1.817-1.25 3.421 0 1.605.9 3.817 2 4.917 1.1 1.1 2.434 2 2.965 2 .53 0 1.441-.891 2.024-1.979.583-1.089.772-3.126.42-4.527-.351-1.401-1.458-2.985-2.458-3.52-1.001-.536-1.962-.938-2.135-.895-.174.043-.878.306-1.566.583m44 .113c-1.593.258-2.25 1.051-2.25 2.718 0 1.294 1.191 3.769 2.646 5.498 2.32 2.757 2.826 2.965 4.106 1.685 1.06-1.059 1.274-2.565.78-5.49-.375-2.216-1.21-4.197-1.857-4.402-.646-.205-2.188-.209-3.425-.009m-329.861 1.655c-.332.863-.332 2.277 0 3.14.361.942 1.504 1.442 2.857 1.25 1.652-.235 2.254-.987 2.254-2.82 0-1.833-.602-2.585-2.254-2.82-1.353-.192-2.496.308-2.857 1.25m24.278-.763c-.367.366-.667 1.476-.667 2.464 0 .989.788 2.204 1.75 2.699.962.495 2.313.698 3 .452.688-.247 1.25-1.488 1.25-2.758 0-1.271-.712-2.583-1.582-2.917-.87-.334-1.92-.607-2.333-.607-.413 0-1.052.3-1.418.667m-239.11 2.556c-.856 1.222-1.557 2.742-1.557 3.377 0 .635.669 1.71 1.487 2.389.853.708 2.559.965 4 .604 2.063-.518 2.513-1.236 2.513-4.005 0-2.154-.572-3.593-1.582-3.981-.87-.334-1.969-.607-2.443-.607s-1.562 1-2.418 2.223m147.613-.473c-.495.962-.698 2.313-.452 3 .247.688 1.55 1.25 2.897 1.25 1.346 0 2.709-.681 3.028-1.513.32-.832.025-2.182-.654-3-.678-.818-1.838-1.487-2.576-1.487-.739 0-1.748.788-2.243 1.75m-285.515 1.079c-.91 1.006-1.655 3.229-1.655 4.941 0 1.711.454 3.393 1.009 3.736.555.342 1.931.331 3.057-.027 1.127-.358 2.498-1.832 3.047-3.276.549-1.444.739-3.655.423-4.914-.336-1.34-1.331-2.289-2.4-2.289-1.004 0-2.571.823-3.481 1.829m591.905.789c-.453 1.804-.116 3.216 1.086 4.544.959 1.059 2.668 1.794 3.799 1.632 1.418-.203 2.155-1.165 2.377-3.104.177-1.546-.215-3.459-.872-4.25-.657-.792-2.216-1.44-3.464-1.44-1.614 0-2.459.756-2.926 2.618m-251.173 1.815c-.33.862-.342 2.242-.025 3.067.316.825 1.377 1.493 2.357 1.485.979-.009 2.388-.4 3.129-.87.742-.47 1.188-1.701.992-2.735-.226-1.191-1.363-1.996-3.104-2.197-1.79-.206-2.957.229-3.349 1.25m47.1.609c-.377 1.188-.239 2.606.307 3.152.547.547 1.829.833 2.85.636 1.215-.234 1.856-1.217 1.856-2.844 0-1.787-.608-2.573-2.164-2.794-1.497-.214-2.375.357-2.849 1.85m-203.524 2.554c-.627 1.652-.676 3.091-.122 3.645.503.503 2.208.768 3.787.587 2.451-.28 2.872-.767 2.872-3.328 0-2.529-.431-3.05-2.75-3.316-2.215-.255-2.951.214-3.787 2.412m361.704-1.929c-.367.366-.667 1.626-.667 2.8 0 1.173.54 2.673 1.2 3.333.66.66 2.205 1.2 3.433 1.2 1.34 0 2.481-.784 2.855-1.962.343-1.079.132-2.879-.468-4-.611-1.143-2.1-2.038-3.389-2.038-1.263 0-2.598.3-2.964.667m-588 3.522c-.802 1.271-1.761 3.323-2.13 4.561-.37 1.238-.386 3.15-.037 4.25.349 1.1 1.247 2 1.995 2s2.314-1.214 3.481-2.697c1.459-1.854 2.028-3.804 1.823-6.241-.201-2.378-.855-3.651-1.986-3.865-.928-.176-2.343.721-3.146 1.992m439.717 3.418c-.433 1.724-.185 2.91.731 3.499.762.49 2.055.774 2.874.631.818-.143 1.655-1.125 1.858-2.182.204-1.058-.439-2.515-1.429-3.239-.99-.724-2.156-1.316-2.59-1.316-.434 0-1.084 1.173-1.444 2.607m359.082-1.552c-.395.638.085 3.812 1.067 7.053 1.391 4.596 2.218 5.892 3.757 5.892 1.715 0 1.905-.508 1.453-3.882-.287-2.136-1.134-5.14-1.882-6.677-.749-1.536-1.882-2.963-2.519-3.17-.637-.207-1.482.146-1.876.784m-525.536 2.529c-.95 1.145-1.025 2.046-.27 3.25.574.916 1.98 1.806 3.124 1.977 1.316.196 2.502-.476 3.225-1.828.63-1.177.899-2.779.599-3.561-.3-.782-1.629-1.422-2.954-1.422-1.325 0-3.001.713-3.724 1.584m102.771-.952c-.385.386-.701 1.526-.701 2.535 0 1.302.745 1.833 2.57 1.833 2.089 0 2.509-.418 2.25-2.24-.176-1.232-1.017-2.372-1.869-2.534-.852-.162-1.864.02-2.25.406m165.844 1.227c-.325 1.023-.324 2.553.001 3.402.326.848 1.349 1.738 2.273 1.978.925.239 2.244.246 2.931.015.688-.231 1.25-1.418 1.25-2.637 0-1.22-.54-2.757-1.2-3.417-.66-.66-1.98-1.2-2.933-1.2-.953 0-1.998.837-2.322 1.859m-577.946 5.87c-.426.424-1.411 2.288-2.187 4.143-.777 1.855-1.412 4.667-1.412 6.25 0 2.17.472 2.878 1.917 2.878 1.343 0 2.418-1.31 3.587-4.371.918-2.404 1.518-5.406 1.332-6.671-.185-1.266-.814-2.458-1.398-2.651-.585-.192-1.412-.002-1.839.422m484.063 1.092c-.914 1.01-1.662 2.106-1.662 2.436 0 .33.711 1.311 1.581 2.181.869.869 1.992 1.326 2.494 1.015.503-.31 1.352-1.383 1.887-2.383.728-1.359.517-2.231-.832-3.452-1.675-1.516-1.926-1.501-3.468.203m-128.651 1.666c-.679.818-.962 2.198-.629 3.067.398 1.035 1.557 1.471 3.362 1.263 2.166-.249 2.824-.905 3.072-3.067.269-2.336-.051-2.75-2.127-2.75-1.344 0-3 .669-3.678 1.487m49.164-.198c-.863 1.04-.814 1.822.197 3.206.847 1.157 1.969 1.588 3.054 1.172 1.076-.413 1.595-1.494 1.394-2.902-.176-1.235-1.036-2.381-1.912-2.548-.876-.166-2.105.316-2.733 1.072m128.236.084c-.319.83-.425 2.324-.235 3.319.189.994 1.322 1.948 2.517 2.119 1.327.19 2.56-.415 3.17-1.554.548-1.026.691-2.342.317-2.926-.374-.584-1.695-1.378-2.935-1.765-1.571-.491-2.431-.246-2.834.807m-458.733 5.665c-1.394 1.097-3.467 3.503-4.607 5.346-1.458 2.36-2.071 5.032-2.071 9.029 0 4.695.425 6.103 2.455 8.132 1.35 1.35 3.511 2.455 4.803 2.455 1.379 0 3.773-1.468 5.796-3.556 3.297-3.402 3.446-3.874 3.446-10.956 0-6.215-.321-7.652-2-8.962-1.1-.858-2.739-1.992-3.643-2.521-1.192-.697-2.34-.413-4.179 1.033M971 417.889c0 3.327.612 5.644 1.914 7.25 1.053 1.299 2.226 2.05 2.607 1.67.382-.38.139-3.08-.539-6-.679-2.92-1.388-5.871-1.577-6.559-.188-.687-.806-1.25-1.374-1.25-.567 0-1.031 2.197-1.031 4.889m-462.333.778c-.367.366-.667 1.436-.667 2.377 0 .941.7 2.292 1.555 3.001 1.301 1.08 1.912.927 3.75-.935 2.16-2.19 2.164-2.248.254-3.668-1.068-.793-2.455-1.442-3.083-1.442-.629 0-1.443.3-1.809.667m88.583-.005c-.687.278-1.25 1.606-1.25 2.953 0 1.346.681 2.709 1.513 3.028.832.32 2.182.025 3-.654.818-.678 1.487-2.031 1.487-3.004 0-.974-.712-2.044-1.582-2.378-.87-.334-1.657-.571-1.75-.528-.092.043-.73.306-1.418.583m-519.584 7.724c-1.09 1.664-1.666 4.631-1.666 8.579 0 3.319.402 6.035.892 6.035.491 0 1.657-3.118 2.59-6.928 1.114-4.543 1.38-7.496.774-8.578-.811-1.449-1.127-1.341-2.59.892m16.674.864c-1.143 2.17-1.733 5.702-1.776 10.625-.053 6.078.254 7.573 1.745 8.5 1.453.904 2.086.75 3.224-.781.779-1.049 2.134-4.378 3.013-7.399.882-3.034 1.306-6.657.947-8.094-.357-1.43-1.359-3.389-2.226-4.351-.867-.962-1.946-1.75-2.396-1.75-.451 0-1.59 1.462-2.531 3.25m611.276 2.753c-2.897 3.206-3.616 4.806-3.616 8.04 0 2.22.854 5.71 1.897 7.755 1.113 2.182 3.545 4.644 5.886 5.96 2.194 1.233 5.053 2.226 6.353 2.207 1.3-.02 3.339-.582 4.53-1.25 1.191-.668 3.108-2.416 4.259-3.884 1.151-1.468 2.353-3.972 2.672-5.566.319-1.593.083-4.738-.523-6.989-.681-2.53-2.447-5.274-4.623-7.185-2.899-2.546-4.376-3.091-8.369-3.091-4.389 0-5.193.38-8.466 4.003m-197.132.656c-.865.865-1.403 2.083-1.195 2.707.208.624 1.465 1.134 2.794 1.134 1.702 0 2.507-.628 2.72-2.123.171-1.201-.359-2.376-1.221-2.707-.838-.322-2.232.123-3.098.989m43.631-.751c-.925.586-1.165 1.758-.721 3.527.366 1.458 1.333 2.907 2.149 3.22.815.313 2.152.013 2.97-.666.818-.678 1.487-2.256 1.487-3.504 0-1.249-.712-2.544-1.582-2.878-.87-.334-1.882-.6-2.25-.592-.367.009-1.291.41-2.053.893m46.269 1.534c-.304.792-.398 2.255-.208 3.25.189.994 1.352 1.952 2.584 2.128 1.961.279 2.24-.125 2.24-3.25 0-2.922-.369-3.57-2.031-3.57-1.118 0-2.281.649-2.585 1.442m-136.333.997c-.701.845-1.002 2.246-.669 3.115.398 1.035 1.557 1.471 3.362 1.263 2.189-.252 2.756-.832 2.756-2.817 0-1.773-.607-2.587-2.088-2.798-1.148-.164-2.66.392-3.361 1.237m181.989 1.013c-.663.799-.913 2.374-.555 3.5.357 1.126 1.464 2.048 2.46 2.048s2.346-.646 3.002-1.436c.885-1.066.907-1.968.087-3.5-.607-1.135-1.708-2.064-2.447-2.064-.738 0-1.884.653-2.547 1.452m-227.84.748c-.66.66-1.2 1.92-1.2 2.8 0 .88.54 2.14 1.2 2.8.66.66 1.528 1.2 1.929 1.2.4 0 1.435-.707 2.3-1.571.864-.865 1.571-1.958 1.571-2.429 0-.471-.707-1.564-1.571-2.429-.865-.864-1.9-1.571-2.3-1.571-.401 0-1.269.54-1.929 1.2m274 3c-.66.66-1.2 1.759-1.2 2.443 0 .684.952 1.91 2.115 2.725 1.163.815 2.703 1.255 3.422.979.72-.276 1.567-1.174 1.882-1.997.316-.822.11-2.362-.458-3.422-.567-1.061-1.826-1.928-2.796-1.928-.971 0-2.305.54-2.965 1.2m162.949-.504c-.744.296-2.15 2.322-3.126 4.501-1.406 3.142-1.581 4.822-.844 8.103.511 2.277 1.815 5.572 2.896 7.321 1.081 1.749 2.668 3.45 3.527 3.78.859.329 2.61.599 3.891.599 1.373 0 3.392-1.263 4.918-3.077 1.919-2.28 2.589-4.205 2.589-7.435 0-2.397-.48-5.625-1.067-7.173-.586-1.548-2.015-3.827-3.174-5.065a6.809 6.809 0 0 0-5.183-2.171c-1.692.043-3.684.321-4.427.617m-483.578 1.875c-.864.865-1.571 2.424-1.571 3.465 0 1.042.937 2.395 2.083 3.009 1.664.89 2.472.762 4.014-.633 1.298-1.175 1.719-2.43 1.282-3.83-.357-1.145-1.15-2.413-1.764-2.817-.613-.404-1.42-.741-1.794-.75-.373-.008-1.385.692-2.25 1.556m139.791 3.929c-.317.825-.305 2.207.027 3.07.36.94 1.503 1.442 2.846 1.25 1.242-.177 2.405-1.16 2.603-2.2.197-1.034-.248-2.265-.99-2.735-.741-.47-1.925-.861-2.629-.87-.705-.008-1.541.66-1.857 1.485m87.339.132c-.385.386-.701 1.471-.701 2.412 0 .941.698 2.29 1.55 2.998 1.281 1.063 1.842.994 3.233-.397 1.297-1.297 1.433-2.079.593-3.414-.6-.952-1.739-1.859-2.532-2.016-.793-.156-1.757.031-2.143.417M736 444.965c0 1.941.69 3.334 2 4.035 1.432.766 2.59.754 4.078-.042 1.257-.672 1.849-1.706 1.5-2.616-.318-.828-.578-2.144-.578-2.924 0-.954-1.145-1.418-3.5-1.418-3.213 0-3.5.243-3.5 2.965m-413.988 1.013c-.618 1.154-.856 2.939-.529 3.967.326 1.029 1.316 2.148 2.2 2.487.887.34 2.458-.155 3.509-1.106 1.148-1.038 1.785-2.734 1.605-4.274-.225-1.931-.95-2.627-2.98-2.862-1.903-.22-3.009.3-3.805 1.788m101.383 1.923c-1.707 1.041-4.07 3.455-5.25 5.364-1.232 1.993-2.145 5.129-2.145 7.364 0 2.708.993 5.414 3.258 8.882 3.147 4.819 3.436 4.999 8.452 5.29 3.273.189 6.302-.273 8.19-1.249 1.648-.853 4.141-3.05 5.54-4.884 1.399-1.834 2.817-4.705 3.152-6.38.403-2.012-.08-4.602-1.423-7.64-1.254-2.834-3.305-5.37-5.351-6.618-1.87-1.14-5.063-2.023-7.318-2.023-2.2 0-5.397.852-7.105 1.894M783.2 450.2c-.66.66-1.2 2.209-1.2 3.443s1 2.944 2.222 3.8c2.044 1.432 2.378 1.402 4.151-.372 1.703-1.703 1.78-2.287.657-5-.706-1.703-2.02-3.071-2.951-3.071-.924 0-2.219.54-2.879 1.2m-269.189 2.287c-.679.818-.974 2.168-.654 3 .319.832 1.733 1.513 3.143 1.513 1.41 0 2.824-.681 3.143-1.513.32-.832.025-2.182-.654-3-.678-.818-1.799-1.487-2.489-1.487s-1.811.669-2.489 1.487m-237.957.948c-.655.789-1.047 2.926-.872 4.75.286 2.981.612 3.294 3.235 3.104 1.604-.116 3.285-.791 3.735-1.5.449-.709.824-2.286.833-3.504.008-1.218-.855-2.68-1.919-3.25-1.064-.569-2.359-1.035-2.878-1.035-.519 0-1.479.646-2.134 1.435m189.992 1.009c-.698.842-1.005 2.221-.681 3.066.325.844 1.31 1.812 2.19 2.149.883.339 2.342-.127 3.256-1.041 1.273-1.274 1.404-2.055.565-3.387-.6-.952-1.759-1.863-2.575-2.024-.817-.161-2.056.396-2.755 1.237m125.343-.014c-.332.863-.332 2.277 0 3.14.361.942 1.504 1.442 2.857 1.25 1.652-.235 2.254-.987 2.254-2.82 0-1.833-.602-2.585-2.254-2.82-1.353-.192-2.496.308-2.857 1.25m-232.77.604c-1.584.475-3.952 1.869-5.261 3.099-1.309 1.23-2.862 4.025-3.451 6.211-.588 2.186-.79 5.465-.449 7.286.342 1.821 1.762 4.666 3.155 6.322 1.423 1.691 4.237 3.469 6.423 4.058 2.995.806 4.648.724 7.177-.358 1.808-.773 4.637-2.843 6.287-4.599 2.66-2.832 2.988-3.851 2.893-8.995-.073-4.001-.694-6.591-2-8.345-1.041-1.399-3.087-3.257-4.547-4.129-1.46-.871-3.71-1.545-5-1.498-1.29.047-3.642.474-5.227.948M493 458.181c-1.925 1.297-4.287 3.925-5.248 5.839-.962 1.914-1.749 4.83-1.749 6.48 0 1.65.787 4.566 1.749 6.48.961 1.914 3.323 4.543 5.248 5.843 2.928 1.977 4.315 2.269 8.486 1.789 2.742-.315 6.117-1.402 7.5-2.414 1.383-1.012 3.301-3.383 4.262-5.269.962-1.886 1.75-5.095 1.75-7.132.001-2.037-.49-4.737-1.092-6-.602-1.263-2.457-3.39-4.123-4.725-2.057-1.649-4.675-2.56-8.156-2.839-4.165-.334-5.784.031-8.627 1.948m146.713-1.56c-.392.392-.713 1.522-.713 2.51 0 .989.929 2.296 2.064 2.903 1.543.826 2.439.794 3.548-.127.817-.678 1.35-2.171 1.186-3.319-.198-1.389-1.147-2.187-2.835-2.384-1.396-.163-2.859.025-3.25.417M828.2 460.2c-.66.66-1.2 2.39-1.2 3.845s.835 3.401 1.855 4.324c1.021.924 2.561 1.409 3.423 1.078.862-.331 1.839-1.311 2.172-2.177.332-.866.107-3.082-.5-4.923-.685-2.073-1.761-3.347-2.828-3.347-.947 0-2.262.54-2.922 1.2M57 462.441c0 1.343.45 2.719 1 3.059.583.361 1-.656 1-2.441 0-1.682-.45-3.059-1-3.059s-1 1.098-1 2.441m463.177.202c.178.903 1.102 2.133 2.054 2.733 1.33.837 2.111.711 3.369-.547.9-.9 1.332-2.13.959-2.733-.372-.603-2.033-1.096-3.691-1.096-2.261 0-2.934.411-2.691 1.643m459.124 7.828c.329 4.659 1.183 9.496 1.898 10.75 1.175 2.059 1.332 1.602 1.618-4.721.174-3.85-.182-8.687-.79-10.75-.609-2.062-1.606-3.75-2.216-3.75-.771 0-.926 2.579-.51 8.471m-749.166-4.427c-.756 2.167-.781 3.748-.082 5.055.559 1.045 1.846 1.901 2.86 1.901 1.013 0 2.378-.646 3.033-1.435.655-.789 1.047-2.926.872-4.75-.263-2.737-.777-3.368-2.951-3.62-2.173-.252-2.825.245-3.732 2.849m354.035-.874c.22 1.553.997 2.33 2.33 2.33 1.333 0 2-.667 2-2s-.777-2.11-2.33-2.33c-1.939-.275-2.275.061-2 2m-54.452 3.08c-.246.688-.043 2.038.452 3 .495.962 1.504 1.75 2.243 1.75.738 0 1.902-.675 2.587-1.5.993-1.197.993-1.803 0-3-.685-.825-2.052-1.5-3.039-1.5-.987 0-1.996.563-2.243 1.25M573 469.893c0 1.041.712 2.166 1.582 2.5.87.334 2.22.607 3 .607.846 0 1.418-1.009 1.418-2.5 0-2.111-.467-2.5-3-2.5-2.277 0-3 .456-3 1.893m-31.848 1.992c-.742.47-1.188 1.701-.992 2.735.226 1.19 1.363 1.996 3.099 2.196 2.331.269 2.741-.051 2.741-2.143 0-1.352-.712-2.732-1.582-3.066-.87-.334-1.657-.6-1.75-.592-.092.009-.775.4-1.516.87m142.823.645c-.97 1.169-1.004 2.111-.143 4 .651 1.43 1.968 2.47 3.128 2.47 1.304 0 2.222-.876 2.633-2.513.361-1.441.104-3.147-.604-4-.679-.818-1.799-1.487-2.489-1.487s-1.826.688-2.525 1.53m-121.326.941c-.31.809.105 2.14.922 2.958.818.817 2.149 1.232 2.958.922.809-.311 1.471-1.642 1.471-2.958 0-1.857-.536-2.393-2.393-2.393-1.316 0-2.647.662-2.958 1.471m308.386.463c-.569 1.064-1.021 2.752-1.003 3.75.017.999.629 2.604 1.36 3.566.731.962 2.051 1.75 2.933 1.75.883 0 2.052-.836 2.599-1.857.66-1.233.656-3.082-.012-5.5-.711-2.575-1.568-3.643-2.924-3.643-1.055 0-2.383.87-2.953 1.934m-319.676.573c-.348.907.024 2.305.827 3.107.836.836 2.198 1.176 3.189.795 1.053-.403 1.612-1.495 1.428-2.786-.189-1.321-1.154-2.244-2.557-2.443-1.389-.197-2.498.312-2.887 1.327m-75.692.16c-.367.366-.667 1.73-.667 3.031 0 1.301.681 2.626 1.513 2.945.832.32 2.182.025 3-.654.818-.678 1.487-2.031 1.487-3.004 0-.974-.712-2.044-1.582-2.378-.87-.334-1.92-.607-2.333-.607-.413 0-1.052.3-1.418.667m-288.632 3.267c-.569 1.064-1.035 2.999-1.035 4.3 0 1.301.54 2.906 1.2 3.566.66.66 1.966 1.2 2.902 1.2.997 0 2.141-1.259 2.761-3.037.684-1.962.727-3.91.123-5.5-.562-1.478-1.732-2.463-2.926-2.463-1.094 0-2.455.87-3.025 1.934m444.215-.216c-.687.247-1.25 1.791-1.25 3.432 0 2.664.294 2.949 2.75 2.666 1.94-.223 2.842-.959 3.061-2.498.189-1.327-.4-2.548-1.5-3.115-.996-.513-2.373-.731-3.061-.485m-331.75 1.998c-1.1.266-3.055 1.451-4.345 2.634-1.29 1.182-2.977 3.365-3.75 4.85-.773 1.486-1.405 4.456-1.405 6.6 0 2.744.887 5.124 2.991 8.029 1.645 2.27 4.123 4.412 5.506 4.76 1.384.347 4.043.345 5.908-.005 1.866-.35 4.517-1.521 5.892-2.603 1.551-1.22 2.927-3.772 3.626-6.724.875-3.697.833-5.757-.189-9.244-.925-3.157-2.31-5.158-4.672-6.75-1.847-1.245-4.304-2.211-5.46-2.147-1.156.064-3.002.334-4.102.6m78.7 3.484c-.66.66-1.2 1.92-1.2 2.8 0 .88.54 2.14 1.2 2.8.66.66 1.994 1.2 2.965 1.2.97 0 2.209-.83 2.752-1.845.711-1.329.565-2.45-.521-4-.83-1.185-2.069-2.155-2.753-2.155-.684 0-1.783.54-2.443 1.2m184.969.817c-1.832.42-4.634 2.012-6.227 3.538-1.592 1.526-3.401 4.305-4.018 6.175s-.832 4.949-.476 6.842c.369 1.971 2.231 5.109 4.358 7.344 2.544 2.675 4.954 4.136 7.66 4.644 3.183.597 4.828.275 8.491-1.66 3.322-1.755 5.139-3.61 6.76-6.9 1.796-3.646 2.052-5.216 1.35-8.273-.477-2.074-1.591-4.878-2.476-6.229s-2.843-3.078-4.35-3.837c-1.508-.759-3.866-1.611-5.241-1.893-1.375-.283-3.999-.17-5.831.249M55 492.5c0 4.824.367 7.391 1 7 .55-.34 1-3.49 1-7s-.45-6.66-1-7c-.633-.391-1 2.176-1 7m82.693-3.713c-.889.982-2.348 3.537-3.242 5.676-1.133 2.712-1.426 5.218-.967 8.277.401 2.676 1.726 5.582 3.396 7.451 2.12 2.373 3.239 2.906 4.956 2.361 1.219-.387 2.961-1.907 3.87-3.378.91-1.471 2.698-3.705 3.974-4.964 1.517-1.498 2.32-3.46 2.32-5.669 0-1.857-.273-4.089-.607-4.959-.334-.87-1.427-1.582-2.429-1.582-1.001 0-2.425-.604-3.163-1.342-.738-.738-2.316-1.863-3.506-2.5S139.947 487 139.721 487c-.226 0-1.139.804-2.028 1.787m773.507.413c-.66.66-1.2 3.08-1.2 5.378 0 2.516.604 4.678 1.519 5.438 1.243 1.031 1.878.934 3.5-.533 1.11-1.005 1.981-3.072 1.981-4.704 0-1.601-.466-3.781-1.035-4.845-.57-1.064-1.605-1.934-2.3-1.934-.696 0-1.805.54-2.465 1.2M727 491c-.76 1.421-.76 2.579 0 4 .589 1.1 1.534 2 2.101 2s1.901-.466 2.965-1.035c1.072-.574 1.934-2.086 1.934-3.393 0-1.297-.712-2.631-1.582-2.965-.87-.334-2.204-.607-2.965-.607-.76 0-1.864.9-2.453 2m-238 3.378c0 1.307.727 2.98 1.615 3.717 1.383 1.148 1.878 1.015 3.449-.926 1.01-1.247 1.585-2.92 1.279-3.718-.309-.805-1.844-1.451-3.45-1.451-2.379 0-2.893.422-2.893 2.378m126.38 3.074c-.306.799-.266 1.924.09 2.5.357.576 1.521 1.048 2.589 1.048 1.404 0 1.941-.692 1.941-2.5 0-1.846-.531-2.5-2.031-2.5-1.118 0-2.283.653-2.589 1.452m-178.969 1.919c-.319.832-.423 2.326-.232 3.321.225 1.166 1.231 1.808 2.835 1.808 2.096 0 2.486-.471 2.486-3 0-2.352-.487-3.069-2.254-3.32-1.323-.188-2.495.305-2.835 1.191m-101.815.935c-1.073.785-1.648 2.24-1.441 3.648.19 1.288 1.133 2.835 2.095 3.439 1.27.796 2.23.796 3.5 0 .962-.604 1.897-2.089 2.077-3.3.179-1.212-.213-2.853-.873-3.648-.659-.795-1.733-1.445-2.385-1.445-.653 0-1.99.588-2.973 1.306m615.748-.111c-.463.718-2.094 3.759-3.624 6.757-2.284 4.477-2.667 6.222-2.137 9.75.58 3.873.929 4.313 3.531 4.448 1.587.082 3.444.195 4.127.25.682.055 2.01-1.475 2.952-3.4.941-1.925 1.698-5.3 1.683-7.5-.016-2.2-.596-5.575-1.291-7.5-.694-1.925-1.968-3.637-2.83-3.805-.863-.168-1.947.282-2.411 1M667.638 505.5c-.316.825-.323 2.158-.014 2.962.308.804 1.415 1.733 2.459 2.064 1.045.332 2.353.322 2.908-.02.555-.343 1.009-1.947 1.009-3.565 0-2.577-.358-2.941-2.893-2.941-1.649 0-3.141.645-3.469 1.5m-159.291 1.01c-1.47 1.093-1.621 1.742-.738 3.181.61.995 1.96 1.809 3 1.809 1.297 0 1.987-.824 2.195-2.622.185-1.598-.265-2.841-1.153-3.182-.801-.307-2.288.059-3.304.814m259.468.209c-1.476.916-3.448 3.358-4.381 5.428-1.172 2.599-1.547 5.326-1.211 8.818.285 2.97 1.267 5.933 2.381 7.183 1.043 1.17 3.358 2.747 5.146 3.503 2.763 1.17 3.749 1.167 6.582-.016 1.833-.766 4.27-2.585 5.417-4.043 1.147-1.458 2.385-4.428 2.752-6.601.378-2.232.167-5.466-.483-7.438-.633-1.918-2.506-4.627-4.161-6.02-1.866-1.57-4.217-2.523-6.184-2.506-1.745.014-4.381.776-5.858 1.692m-172.804 1.768c-.679.818-.974 2.168-.654 3 .341.89 1.828 1.513 3.612 1.513 2.252 0 3.031-.463 3.031-1.8 0-.99-.54-2.34-1.2-3-.66-.66-1.73-1.2-2.378-1.2-.647 0-1.733.669-2.411 1.487m-352.901 2.909c-1.315.728-3.45 3.075-4.745 5.214-1.295 2.14-2.357 4.833-2.36 5.986-.003 1.153.733 3.628 1.636 5.5.902 1.872 2.786 4.641 4.187 6.154 1.92 2.074 3.484 2.75 6.359 2.75 2.097 0 3.813-.46 3.813-1.021 0-.562 1.125-1.534 2.5-2.161 1.375-.626 2.5-1.935 2.5-2.907 0-.973.675-2.443 1.5-3.268.825-.825 1.5-2.602 1.5-3.949s-.648-2.987-1.44-3.644c-.792-.657-1.579-2.16-1.75-3.338-.17-1.179-1.839-3.171-3.708-4.428-1.869-1.256-4.344-2.268-5.5-2.249-1.156.02-3.178.632-4.492 1.361M109.7 513.75c-.302 1.513-.228 4.325.166 6.25.584 2.857 1.168 3.5 3.175 3.5 2.174 0 2.494-.487 2.765-4.212.168-2.316-.186-5.129-.786-6.25-.6-1.121-1.918-2.038-2.93-2.038-1.207 0-2.029.946-2.39 2.75m419.452 1.135c-.742.47-1.188 1.701-.992 2.735.226 1.191 1.363 1.996 3.104 2.197 1.798.207 2.957-.229 3.354-1.263.333-.869.05-2.249-.629-3.067-.678-.818-1.741-1.48-2.361-1.472-.621.009-1.735.4-2.476.87m44.953 1.488c-.627.756-.859 2.106-.515 3 .343.895 1.674 1.627 2.958 1.627 1.284 0 2.615-.454 2.958-1.009.342-.555.339-1.905-.009-3-.347-1.095-1.446-1.991-2.442-1.991-.996 0-2.323.618-2.95 1.373m-23.031 2.489c-.702 1.312-.617 2.381.291 3.622.892 1.22 1.956 1.549 3.461 1.071 1.196-.379 2.174-1.469 2.174-2.422 0-.953-.54-2.273-1.2-2.933-.66-.66-1.769-1.2-2.465-1.2-.695 0-1.713.838-2.261 1.862M291.2 519.2c-.66.66-1.193 2.122-1.185 3.25.009 1.127.395 2.649.859 3.38.479.756 2.092 1.188 3.735 1 2.328-.266 2.954-.878 3.213-3.14.177-1.546-.215-3.459-.872-4.25-.657-.792-1.95-1.44-2.872-1.44-.923 0-2.218.54-2.878 1.2m-218.059 4.55c-.511.962-1.063 3.775-1.226 6.25-.162 2.475.265 6.441.95 8.813.915 3.166 1.696 4.226 2.94 3.989 1.4-.268 1.745-1.755 1.985-8.554.161-4.561-.189-9.125-.785-10.238-.591-1.106-1.494-2.01-2.005-2.01-.511 0-1.348.788-1.859 1.75m324.275.607c-.316.824-.426 2.543-.245 3.82.239 1.691.979 2.323 2.72 2.323 1.315 0 2.888-.788 3.495-1.75.802-1.271.804-2.229.007-3.5-.604-.962-2.066-1.894-3.25-2.07-1.225-.182-2.399.325-2.727 1.177m61.153.969c-1.288.942-1.609 1.974-1.106 3.558.539 1.698 1.347 2.158 3.373 1.924 1.935-.224 2.756-.962 3.001-2.695.186-1.313-.264-2.768-1-3.235-.735-.466-1.588-.854-1.896-.863-.307-.008-1.375.582-2.372 1.311m161.035 1.712c-1.592.477-4.187 2.104-5.766 3.617-1.578 1.512-3.34 4.496-3.915 6.631-.575 2.135-.743 5.258-.373 6.94.369 1.683 2.479 5.02 4.688 7.416 3.058 3.318 4.747 4.358 7.074 4.358 1.681 0 4.997-.939 7.368-2.087 2.372-1.148 5.214-3.234 6.316-4.635 1.481-1.883 2.004-4.058 2.004-8.336 0-4.708-.464-6.34-2.488-8.746-1.369-1.626-4.024-3.686-5.902-4.577-1.877-.89-4.019-1.58-4.761-1.533-.742.047-2.652.476-4.245.952m25.366 4.498c-.987 1.189-1.069 2.083-.303 3.298.578.916 2.127 1.666 3.442 1.666 1.99 0 2.391-.503 2.391-3 0-2.28-.501-3.072-2.088-3.298-1.148-.164-2.697.436-3.442 1.334m166.065.398c-.569 1.064-1.035 2.809-1.035 3.878s.653 2.485 1.452 3.148c.799.663 2.351.92 3.449.571 1.098-.348 2.256-1.451 2.573-2.45.317-.999.127-3.001-.424-4.449-.618-1.625-1.761-2.632-2.99-2.632-1.094 0-2.455.87-3.025 1.934m159.495 4.632c-.47 4.387-.341 7.023.379 7.743.763.763 1.407.775 2.143.039.584-.584.917-3.859.75-7.37-.17-3.553-.796-6.482-1.431-6.692-.719-.237-1.387 2.043-1.841 6.28m-265.065-3.509c-.359.581-.37 2.184-.024 3.563.507 2.02 1.155 2.445 3.344 2.193 2.253-.26 2.768-.866 3.028-3.563.291-3.015.097-3.25-2.691-3.25-1.652 0-3.298.476-3.657 1.057m-623.798.61c-.367.366-.667 2.595-.667 4.953 0 2.357.522 5.432 1.161 6.833.638 1.401 1.49 2.547 1.893 2.547.402 0 1.005-.712 1.339-1.582.334-.87.607-3.374.607-5.566 0-2.191-.466-4.854-1.035-5.918-.57-1.064-1.395-1.934-1.834-1.934-.438 0-1.098.3-1.464.667m167.371 7.242c-.916 2.21-.929 3.427-.054 5.06.823 1.54 1.913 2.063 3.833 1.841 2.23-.258 2.737-.87 3.001-3.625.175-1.824-.217-3.961-.872-4.75-.655-.789-1.981-1.435-2.947-1.435-.997 0-2.278 1.259-2.961 2.909m642.22 4.528c-1.593 1.34-3.49 4.237-4.217 6.438-.765 2.319-1.078 5.816-.743 8.312.391 2.914 1.412 5.027 3.153 6.524 1.92 1.652 3.144 2.008 4.812 1.402 1.23-.447 3.25-2.297 4.487-4.111 1.693-2.481 2.25-4.728 2.25-9.073 0-4.755-.458-6.319-2.589-8.852-1.424-1.692-2.964-3.077-3.423-3.077-.459 0-2.138 1.096-3.73 2.437m-405.687.134c-.864.865-1.571 2.199-1.571 2.965 0 .767.87 1.859 1.934 2.429 1.064.569 2.157 1.035 2.429 1.035.272 0 1.201-.707 2.066-1.571.864-.865 1.571-1.958 1.571-2.429 0-.471-.707-1.564-1.571-2.429-.865-.864-1.958-1.571-2.429-1.571-.471 0-1.564.707-2.429 1.571m-126.489 5.83c-.686.827-1.097 2.264-.915 3.194.183.93 1.121 2.187 2.083 2.793 1.275.803 2.225.802 3.5-.002 1.009-.636 1.75-2.329 1.75-3.995 0-2.365-.47-2.946-2.586-3.192-1.422-.165-3.146.376-3.832 1.202m490.893 4.645c-.602 1.126-.955 3.488-.785 5.25.251 2.596.797 3.261 2.877 3.503 1.948.227 2.853-.327 3.75-2.297.651-1.428 1.183-3.385 1.183-4.349 0-.964-.54-2.293-1.2-2.953-.66-.66-1.994-1.2-2.965-1.2-.97 0-2.257.921-2.86 2.046m-332.987 2.763c-1.333 1.079-1.875 2.322-1.472 3.372.351.916 1.279 1.91 2.061 2.21.783.301 2.063.301 2.846 0 .782-.3 1.668-1.186 1.968-1.968.301-.783.301-2.063 0-2.846-.3-.782-1.164-1.66-1.919-1.95-.756-.289-2.324.242-3.484 1.182m-90.745.348c-.684.684-1.243 1.818-1.243 2.52s1.127 2.015 2.505 2.918c2.059 1.35 2.78 1.413 4.051.359.858-.712 1.411-2.432 1.245-3.868-.223-1.915-.952-2.662-2.808-2.879-1.379-.161-3.066.266-3.75.95m-361.524.458c-.396.395-.719 2.632-.719 4.97 0 2.338.272 4.961.605 5.827.332.867 1.007 1.328 1.5 1.023.492-.304.863-2.439.825-4.744-.039-2.305-.391-5.002-.782-5.993-.391-.991-1.034-1.479-1.429-1.083m520.005.519c-.948.531-1.724 1.821-1.724 2.866 0 1.045.776 2.335 1.724 2.866 1.094.612 2.374.617 3.5.014.977-.523 1.776-1.819 1.776-2.88s-.799-2.357-1.776-2.88c-1.126-.603-2.406-.598-3.5.014m-378.188 3.598c-2.005 2.95-2.536 4.965-2.536 9.618 0 5.503.252 6.137 3.882 9.768 2.768 2.767 4.736 3.882 6.854 3.882 1.769 0 4.043-.993 5.618-2.452 2.344-2.173 2.646-3.202 2.646-9.027 0-6.452-.083-6.656-4.474-11.047-2.903-2.903-5.348-4.474-6.964-4.474-1.755 0-3.238 1.101-5.026 3.732M742.2 562.2c-.66.66-1.2 2.145-1.2 3.3 0 1.155.54 2.64 1.2 3.3.66.66 1.994 1.2 2.965 1.2.97 0 2.269-.942 2.885-2.093.616-1.151.848-3.176.516-4.5-.417-1.663-1.31-2.407-2.885-2.407-1.255 0-2.821.54-3.481 1.2m-192.399 2.337c-.94 2.063-.863 2.83.41 4.103.992.992 2.34 1.32 3.677.895 1.376-.436 2.112-1.506 2.112-3.067 0-1.347-.848-2.851-1.934-3.433-1.064-.569-2.199-1.035-2.522-1.035-.323 0-1.107 1.142-1.743 2.537m433.739 1.28c-.406 2.375-.499 4.558-.206 4.851.293.293 1.013.236 1.599-.127.587-.362 1.035-1.645.997-2.85-.039-1.205-.426-3.091-.861-4.191-.639-1.618-.932-1.175-1.529 2.317M675.2 567.2c-.66.66-1.193 2.122-1.185 3.25.009 1.127.447 2.725.975 3.55.852 1.331 1.271 1.327 3.728-.034 1.522-.844 2.906-2.252 3.075-3.129.169-.877-.423-2.324-1.314-3.216-.892-.891-2.175-1.621-2.85-1.621-.676 0-1.769.54-2.429 1.2m-558.792 3.3c-1.284 1.96-1.488 3.744-.945 8.25.39 3.232 1.645 7.166 2.865 8.984 1.195 1.779 2.8 3.478 3.567 3.774.767.297 2.178-.169 3.135-1.035.957-.866 2.014-2.941 2.348-4.611.334-1.67.092-5.135-.538-7.699-.629-2.565-2.006-5.9-3.06-7.413-1.054-1.513-2.775-2.75-3.825-2.75-1.05 0-2.646 1.125-3.547 2.5m204.595 8.991c-.521 1.371-.685 3.174-.365 4.009.321.834 1.632 1.781 2.915 2.103 1.284.322 2.755.325 3.269.007.515-.318 1.166-1.457 1.447-2.53.28-1.073-.141-2.88-.936-4.015-.796-1.136-2.332-2.065-3.414-2.065-1.178 0-2.349 1.001-2.916 2.491m564.462 3.577c-.872 1.687-1.447 4.003-1.276 5.148.171 1.144 1.127 2.576 2.124 3.182 1.473.896 2.175.66 3.75-1.259 1.065-1.298 1.937-3.571 1.937-5.05 0-1.479-.54-3.229-1.2-3.889-.66-.66-1.773-1.2-2.474-1.2-.701 0-1.989 1.38-2.861 3.068m-226.52-.1c-1.955 1.034-4.146 3.151-4.868 4.706-.723 1.554-1.694 4.117-2.159 5.694-.582 1.972-.377 3.992.656 6.464.826 1.977 2.232 4.401 3.123 5.386.891.985 3.251 2.229 5.243 2.766 2.381.641 4.87.631 7.259-.029 2.014-.556 4.99-2.545 6.669-4.458 1.669-1.9 3.33-5.036 3.693-6.969.362-1.933.358-4.714-.01-6.18-.368-1.466-2.172-4.169-4.01-6.007-2.788-2.788-4.061-3.334-7.691-3.297-2.393.025-5.95.89-7.905 1.924m-487.278.699c-.367.366-.667 2.526-.667 4.8 0 2.273.54 4.673 1.2 5.333.66.66 1.994 1.2 2.965 1.2.97 0 2.269-.942 2.885-2.093.616-1.151.856-3.145.534-4.43-.323-1.286-1.293-3.044-2.157-3.907-.863-.864-2.138-1.57-2.832-1.57s-1.562.3-1.928.667m290.898 1.662c-1.507 1.102-1.619 1.701-.656 3.5.639 1.194 1.483 2.165 1.876 2.157.393-.007 1.727-.285 2.965-.616 1.238-.332 2.25-1.361 2.25-2.287 0-.925-.54-2.223-1.2-2.883-.66-.66-1.699-1.2-2.309-1.2-.61 0-1.927.598-2.926 1.329m-41.266 4.631c-1.761 1.073-3.899 3.299-4.75 4.946-.852 1.647-1.549 4.614-1.549 6.594 0 1.98.68 4.914 1.511 6.521.831 1.607 3.185 4.06 5.232 5.45 2.394 1.627 5.1 2.529 7.585 2.529 2.125 0 5.213-.788 6.863-1.75 1.65-.962 3.857-3.42 4.904-5.46 1.048-2.041 1.905-4.868 1.905-6.282 0-1.415-.633-4.088-1.408-5.941-.774-1.853-3.128-4.539-5.232-5.968-2.554-1.736-5.159-2.598-7.842-2.595-2.219.002-5.451.878-7.219 1.956m214.272.611c-.864.865-1.571 1.794-1.571 2.066 0 .272.466 1.365 1.035 2.429.59 1.103 2.087 1.934 3.481 1.934 1.774 0 2.618-.686 3.073-2.498.345-1.374.367-3.174.05-4-.317-.826-1.458-1.502-2.536-1.502s-2.667.707-3.532 1.571m-247.256 1.893c-1.752.762-3.825 2.656-4.607 4.211-.783 1.554-1.697 4.269-2.032 6.033-.361 1.903-.018 4.624.846 6.69.8 1.916 2.923 4.582 4.716 5.926 1.794 1.344 4.322 2.766 5.617 3.161 1.295.394 4.3.171 6.679-.494 2.378-.666 5.299-2.248 6.489-3.516 1.674-1.781 2.196-3.653 2.302-8.243.117-5.095-.265-6.465-2.693-9.647-1.555-2.04-3.939-4.131-5.295-4.647-1.357-.516-3.9-.92-5.652-.899-1.752.022-4.618.663-6.37 1.425m389.242.759c-.856 1.222-1.557 3.231-1.557 4.464 0 1.234.788 2.648 1.75 3.143.962.495 2.425.668 3.25.385.825-.283 1.831-1.01 2.235-1.615.404-.605.741-2.043.75-3.195.008-1.152-.808-2.84-1.814-3.75-1.006-.91-2.105-1.655-2.443-1.655-.338 0-1.315 1-2.171 2.223M459 593.724c-1.375.248-3.555 1.424-4.845 2.614-1.29 1.189-2.977 3.377-3.75 4.862-.773 1.486-1.405 4.095-1.405 5.8s.632 4.314 1.405 5.8c.773 1.485 2.46 3.657 3.75 4.827s4.033 2.667 6.095 3.327c2.791.894 4.603.92 7.085.1 1.834-.605 4.506-2.327 5.936-3.827 1.431-1.5 3.104-4.057 3.719-5.682.614-1.625.838-4.603.498-6.617-.383-2.263-1.861-4.866-3.868-6.812-1.787-1.732-4.793-3.592-6.678-4.133-1.886-.541-3.882-.922-4.435-.847-.554.075-2.132.34-3.507.588m343.5-.006c-1.1.245-2.999 1.701-4.219 3.235-1.221 1.534-2.768 4.838-3.437 7.341-1.057 3.95-.979 5.081.589 8.557 1.134 2.516 2.87 4.446 4.667 5.19 1.574.652 4.035.891 5.469.531 1.435-.36 4.097-2.279 5.916-4.265 1.949-2.128 3.549-5.116 3.894-7.276.322-2.016.158-5.16-.366-6.986-.524-1.826-1.711-4.159-2.638-5.183-1.027-1.135-2.893-1.809-4.78-1.726-1.702.075-3.995.337-5.095.582m175.908.66c-.317.828-.427 2.282-.243 3.231.184.949.898 1.913 1.585 2.141.816.272 1.25-.633 1.25-2.608 0-1.663-.453-3.304-1.007-3.646-.554-.343-1.267.054-1.585.882m-475.047 8.124c-.317.826-.286 2.662.07 4.08.59 2.351.446 2.505-1.642 1.748-1.259-.457-4.397-.827-6.973-.824-3.174.004-5.593.678-7.5 2.09-1.549 1.146-3.449 3.376-4.222 4.955-.773 1.579-1.338 4.593-1.255 6.699.082 2.105.836 5.156 1.676 6.779.839 1.623 3.299 3.856 5.466 4.961 2.167 1.106 5.325 2.01 7.019 2.01s4.749-.857 6.79-1.905c2.04-1.047 4.498-3.254 5.46-4.904.962-1.65 1.75-4.691 1.75-6.757 0-2.199-1.032-5.519-2.487-8.003-2.488-4.244-2.488-4.244.5-5.286 1.643-.572 2.987-1.67 2.987-2.438 0-.768-.823-2.142-1.829-3.052-1.006-.91-2.595-1.655-3.531-1.655-.937 0-1.962.676-2.279 1.502m-144.727 1.21c-1.026.263-3.164 1.636-4.75 3.049-2.243 1.998-2.884 3.433-2.884 6.454 0 2.136.726 5.324 1.614 7.085.888 1.76 2.772 4.437 4.187 5.95 1.415 1.513 3.345 2.75 4.288 2.75 1.007 0 2.147 1.239 2.761 3 .775 2.223 1.675 3 3.476 3 1.336 0 2.973-.655 3.638-1.456.664-.801.904-1.948.533-2.548-.371-.601.94-2.615 2.914-4.477 3.303-3.115 3.589-3.839 3.589-9.083 0-5.396-.233-5.932-4.368-10.068-3.898-3.897-4.841-4.355-8.75-4.252-2.41.064-5.222.332-6.248.596m344.021 1.117c-.91 1.006-1.655 2.511-1.655 3.345 0 .834.871 2.304 1.935 3.267 1.844 1.669 2.053 1.665 4.468-.095 1.394-1.015 2.548-2.843 2.566-4.061.017-1.218-.839-2.68-1.903-3.25-1.064-.569-2.344-1.035-2.845-1.035-.501 0-1.656.823-2.566 1.829M593.2 605.2c-.66.66-1.2 1.92-1.2 2.8 0 .88.54 2.14 1.2 2.8.66.66 1.934 1.2 2.831 1.2s2.257-1.17 3.023-2.601c1.25-2.335 1.196-2.743-.522-4-1.053-.769-2.413-1.399-3.023-1.399-.61 0-1.649.54-2.309 1.2m-308.533.467c-.367.366-.667 1.872-.667 3.345s.823 3.423 1.829 4.333c1.006.91 2.532 1.655 3.393 1.655.86 0 1.837-.712 2.171-1.582.334-.87.607-2.598.607-3.839 0-1.449-.912-2.674-2.547-3.418-1.401-.639-2.901-1.161-3.333-1.161-.433 0-1.087.3-1.453.667M138 611.566c0 1.961.517 4.548 1.15 5.75.632 1.201 1.645 2.515 2.25 2.919.605.404 1.663.741 2.35.75.808.01 1.25-1.499 1.25-4.262 0-2.353-.701-5.278-1.557-6.5-.856-1.223-2.431-2.223-3.5-2.223-1.561 0-1.943.701-1.943 3.566m410.2-2.366c-.66.66-1.2 1.753-1.2 2.429 0 .675.707 1.935 1.571 2.8.865.864 2.224 1.571 3.022 1.571.797 0 1.956-1.112 2.575-2.47.861-1.889.827-2.831-.143-4-.699-.842-2.025-1.53-2.947-1.53-.923 0-2.218.54-2.878 1.2m368.512 1.117c-.862 1.315-1.859 3.948-2.216 5.851-.487 2.599-.228 3.81 1.042 4.864 1.485 1.232 1.927 1.112 3.624-.984 1.411-1.742 1.853-3.605 1.636-6.89-.164-2.476-.798-4.666-1.409-4.867-.611-.201-1.815.711-2.677 2.026m-595.962 6.13c-1.795 2.249-2.75 4.637-2.75 6.874 0 1.885 1.163 5.509 2.585 8.053 1.423 2.544 3.167 4.626 3.878 4.626.711 0 1.852.675 2.537 1.5.685.825 2.728 1.5 4.541 1.5 1.813 0 4.604-.75 6.202-1.667 1.598-.917 3.911-3.416 5.141-5.553 1.973-3.428 2.097-4.307 1.055-7.463-.649-1.968-2.753-5.32-4.676-7.448-3.335-3.692-3.777-3.869-9.629-3.869-5.793 0-6.287.191-8.884 3.447m-243.325 6.899c.358 2.39 1.489 6.553 2.513 9.25 1.024 2.697 2.244 4.679 2.712 4.404.467-.275.824-2.3.791-4.5-.032-2.2-.881-6.138-1.886-8.75-1.038-2.699-2.465-4.75-3.304-4.75-1.177 0-1.345.885-.826 4.346m112.632-2.915c-.653.787-1.419 3.824-1.702 6.75-.446 4.601-.149 5.874 2.2 9.433 1.494 2.263 4.033 4.893 5.642 5.843 1.719 1.016 3.883 1.489 5.246 1.147 1.332-.335 3.007-2.033 3.938-3.994.89-1.877 1.619-4.371 1.619-5.543 0-1.172-.611-3.593-1.357-5.379-.747-1.787-2.806-4.697-4.577-6.468-2.326-2.326-4.136-3.22-6.52-3.22-1.816 0-3.836.644-4.489 1.431m761.659 1.473c-.944 1.598-1.716 3.821-1.716 4.941 0 1.12-.45 2.315-1 2.655-.55.34-1 2.59-1 5s.359 4.604.798 4.875c.439.271 1.226.185 1.75-.191.523-.376 1.517-1.584 2.208-2.684.691-1.1 1.43-2.45 1.641-3 .212-.55.943-3.535 1.626-6.633.682-3.098.929-6.135.55-6.75-.38-.614-1.242-1.117-1.916-1.117-.674 0-1.998 1.307-2.941 2.904m-511.67 3.541c-.66.795-1.052 2.482-.873 3.75.253 1.786 1.06 2.376 3.584 2.619 2.249.217 3.443-.173 3.86-1.258.332-.864-.132-2.693-1.03-4.064-.898-1.37-2.243-2.492-2.988-2.492-.745 0-1.894.65-2.553 1.445m369.409 2.01c-1.35 1.35-2.455 3.064-2.455 3.808 0 .745.597 2.171 1.326 3.168.934 1.277 1.978 1.607 3.527 1.116 1.21-.384 2.875-1.729 3.7-2.988 1.132-1.727 1.254-2.936.498-4.924-.551-1.449-1.708-2.635-2.572-2.635-.863 0-2.674 1.105-4.024 2.455m-292.158 2.055c-1.761.802-4.349 3.144-5.75 5.206-1.401 2.061-2.547 4.783-2.547 6.048 0 1.265.614 3.769 1.364 5.565.75 1.795 2.81 4.481 4.577 5.968 2.69 2.263 4.164 2.703 9.065 2.703 5.233 0 6.217-.345 9.31-3.262 1.932-1.822 3.941-5.01 4.552-7.223.932-3.375.799-4.558-.901-7.988-1.098-2.215-3.183-4.887-4.634-5.938-1.45-1.052-4.706-2.052-7.235-2.224-2.569-.174-6.012.331-7.801 1.145M654.2 633.2c-.66.66-1.2 1.978-1.2 2.929 0 .95.707 2.435 1.571 3.3.865.864 2.226 1.571 3.025 1.571.8 0 1.904-1.184 2.454-2.632.551-1.448.734-3.473.408-4.5-.346-1.089-1.524-1.868-2.825-1.868-1.228 0-2.773.54-3.433 1.2m-542.562 3.05c-.36 1.365.282 4.02 1.634 6.75 1.225 2.475 2.897 4.5 3.714 4.5.818 0 1.651-.854 1.852-1.898.201-1.043-.657-4.081-1.907-6.75-1.25-2.668-2.818-4.852-3.485-4.852-.667 0-1.48 1.013-1.808 2.25m138.029-.583c-.367.366-.667 1.909-.667 3.428s.707 3.469 1.571 4.334c.865.864 2.431 1.571 3.481 1.571 1.156 0 2.137-.903 2.484-2.289.316-1.259.111-3.509-.456-5-.718-1.89-1.744-2.711-3.389-2.711-1.297 0-2.658.3-3.024.667m688.857 7.476c-1.388 2.877-2.524 6.272-2.524 7.544 0 1.375.6 2.313 1.48 2.313.813 0 2.388-1.782 3.5-3.96 1.111-2.178 2.02-5.302 2.02-6.941 0-1.64-.439-3.252-.976-3.584-.537-.332-2.112 1.75-3.5 4.628m-636.774-.446c-1.667 2.198-2.75 4.881-2.75 6.814 0 1.93 1.142 4.765 2.892 7.182 1.591 2.196 4.127 4.963 5.635 6.15 1.509 1.186 4.102 2.157 5.763 2.157 1.665 0 4.462-1.099 6.23-2.448 1.959-1.493 3.461-3.707 3.856-5.681.356-1.779.371-4.701.035-6.495-.337-1.793-2.298-5.087-4.358-7.318-3.504-3.796-4.095-4.056-9.149-4.022-5.021.034-5.599.294-8.154 3.661m386.436-.983c-1.272.243-4.31 2.355-6.75 4.692-4.111 3.94-4.436 4.624-4.436 9.346 0 4.007.546 5.744 2.56 8.137 1.536 1.825 3.935 3.301 5.994 3.687 1.888.354 4.643.34 6.122-.031s4.349-2.334 6.377-4.363c2.569-2.569 3.903-4.96 4.397-7.883.469-2.781.26-5.128-.621-6.96-.731-1.521-2.858-3.794-4.727-5.052-1.869-1.258-4.119-2.226-5-2.151-.881.075-2.643.335-3.916.578m41.405 2.361c-2.732 2.895-2.769 3.07-1.057 4.963.977 1.079 2.311 1.962 2.966 1.962.655 0 1.935-.823 2.845-1.829.91-1.006 1.655-2.511 1.655-3.345 0-.834-.805-2.244-1.788-3.134-1.665-1.507-1.983-1.411-4.621 1.383m-239.439 3.641c-.634 1.184-.64 2.448-.018 3.56.577 1.031 2.164 1.724 3.947 1.724 1.838 0 3.223-.627 3.61-1.636.345-.9.173-2.362-.383-3.25-.555-.888-2.172-1.753-3.592-1.924-1.705-.205-2.915.313-3.564 1.526m-371.659 4.306c-.353 1.113-.326 3.461.06 5.218.386 1.757 1.042 3.884 1.457 4.727.416.843 1.367 2.829 2.112 4.413.745 1.584 2.344 3.331 3.553 3.882 1.209.55 2.957.709 3.886.353 1.369-.525 1.564-1.431 1.029-4.778-.363-2.272-1.608-6.332-2.766-9.023-1.157-2.692-2.912-5.326-3.899-5.854-.986-.528-2.468-.96-3.292-.96-.824 0-1.787.91-2.14 2.022M601.2 651.2c-.66.66-1.2 2.205-1.2 3.433 0 1.354.787 2.482 2 2.867 1.1.349 2.9.349 4 0 1.213-.385 2-1.513 2-2.867 0-1.228-.54-2.773-1.2-3.433-.66-.66-1.92-1.2-2.8-1.2-.88 0-2.14.54-2.8 1.2m293.333 3.334c-1.78 1.943-3.753 5.258-4.385 7.366-.631 2.107-1.148 5.152-1.148 6.766 0 1.614.54 3.474 1.2 4.134.66.66 1.944 1.2 2.854 1.2.91 0 2.801-1.063 4.203-2.363 1.402-1.299 3.268-3.752 4.146-5.45.878-1.698 1.597-4.94 1.597-7.203 0-2.264-.466-4.986-1.035-6.05-.57-1.064-1.746-1.934-2.615-1.934-.869 0-3.037 1.59-4.817 3.534m-352.619.422c-1.423.431-3.808 1.584-5.302 2.562-1.493.979-3.366 3.04-4.163 4.581-.797 1.541-1.449 3.963-1.449 5.383s.623 4.074 1.385 5.898c.762 1.823 2.9 4.229 4.75 5.346 1.851 1.117 4.94 2.302 6.865 2.635 2.595.447 4.527.022 7.47-1.644 2.184-1.236 4.997-3.77 6.25-5.63 1.254-1.861 2.28-4.459 2.28-5.775 0-1.315-.918-4.191-2.04-6.391-1.123-2.2-3.485-4.88-5.25-5.956-1.766-1.077-4.335-1.921-5.71-1.875-1.375.045-3.664.435-5.086.866M95.059 663.25c.032 1.788 1.045 5.242 2.25 7.676s2.754 4.609 3.441 4.833c.693.226 1.251-.409 1.253-1.426.001-1.008-1.191-4.645-2.65-8.083-1.459-3.437-3.036-6.25-3.503-6.25-.468 0-.823 1.462-.791 3.25m743.023.118c-1.145 1.852-2.082 3.822-2.082 4.378 0 .555.653 1.551 1.452 2.214.817.678 2.387.909 3.588.527 1.175-.373 2.731-2.091 3.457-3.818.883-2.099 1.008-3.726.377-4.905-.52-.97-1.792-1.764-2.828-1.764-1.059 0-2.793 1.473-3.964 3.368m-503.832-.706c-.687.278-1.25 1.522-1.25 2.766s.863 3.043 1.918 3.997c1.054.955 2.967 1.587 4.25 1.405 1.665-.236 2.419-1.08 2.636-2.954.169-1.452-.422-3.351-1.321-4.25-.894-.894-2.381-1.59-3.304-1.547-.924.043-2.241.306-2.929.583M216 668.326c0 2.27.808 4.084 2.545 5.716 2.002 1.881 2.909 2.163 4.25 1.322.938-.587 1.838-1.949 1.999-3.025.162-1.076-.658-3.167-1.822-4.648-1.26-1.601-3.1-2.691-4.545-2.691-2.083 0-2.427.471-2.427 3.326m200.975-1.796c-.982 1.184-1.008 2.101-.115 4.062.945 2.075 1.742 2.477 4.397 2.221 2.51-.242 3.317-.834 3.57-2.618.179-1.268-.213-2.955-.873-3.75-.659-.795-2.214-1.445-3.454-1.445-1.24 0-2.826.688-3.525 1.53m-120.483 3.158c-2.062.276-3.555 1.357-4.75 3.438-.958 1.67-1.742 4.733-1.742 6.807 0 2.256.912 5.136 2.27 7.169 1.248 1.869 3.836 4.209 5.75 5.2 2.332 1.208 4.781 1.643 7.423 1.32 2.551-.313 4.574-1.303 5.728-2.803 1.064-1.383 1.794-4.055 1.807-6.619.012-2.364-.646-5.591-1.463-7.171-.817-1.579-2.757-3.777-4.311-4.884-1.554-1.106-3.924-2.203-5.265-2.436-1.341-.233-3.792-.242-5.447-.021m653.141 4.684c-.898 2.13-1.633 4.942-1.633 6.25 0 1.308.363 2.378.808 2.378.444 0 1.619-1.841 2.612-4.091 1.329-3.012 1.547-4.659.826-6.25-.92-2.028-1.079-1.924-2.613 1.713m-278.463 2.502c-.756.479-1.188 2.092-1 3.735.262 2.291.887 2.955 3.017 3.201 1.983.229 3.128-.362 4.369-2.255 1.355-2.069 1.441-2.854.44-4.06-.683-.822-2.198-1.488-3.368-1.48-1.171.009-2.727.395-3.458.859m-480.224 3.18c-1.2 1.2-1.946 3.312-1.946 5.512 0 1.961.503 4.506 1.119 5.656.936 1.75.75 2.368-1.143 3.796-1.737 1.311-2.111 2.307-1.612 4.297.358 1.424 1.661 3.765 2.896 5.201 1.593 1.852 2.782 2.405 4.089 1.904 1.43-.549 1.71-1.373 1.251-3.671-.566-2.83-.469-2.93 2.153-2.217 1.511.411 3.638.704 4.728.652 1.089-.052 2.552-.876 3.25-1.83.698-.955 1.269-3.063 1.269-4.686 0-1.622-.982-4.915-2.182-7.318-1.2-2.404-2.938-5.054-3.862-5.89-.924-.836-3.117-1.933-4.872-2.436-2.614-.75-3.545-.563-5.138 1.03m562.199 4.11c-1.626 1.739-2.724 3.768-2.441 4.508.284.74 1.61 1.62 2.947 1.955 1.605.403 3.094.008 4.389-1.163 1.078-.976 1.96-2.739 1.96-3.919 0-1.18-.54-2.685-1.2-3.345-.66-.66-1.537-1.2-1.949-1.2-.412 0-2.08 1.424-3.706 3.164m53.854-.914c-1.812 1.237-4.129 3.818-5.147 5.734-1.019 1.917-1.852 5.404-1.852 7.75 0 2.933.625 4.891 2 6.266 1.1 1.1 3.038 2 4.306 2 1.268 0 3.855-1.143 5.749-2.54 1.894-1.398 4.454-4.21 5.689-6.25 1.264-2.089 2.248-5.349 2.251-7.46.003-2.422-.703-4.458-1.995-5.75-1.1-1.1-3.283-2-4.852-2-1.569 0-4.336 1.013-6.149 2.25m-251.972 1.443c-1.36.277-3.835 1.65-5.5 3.051-1.665 1.4-3.587 3.877-4.272 5.504-.685 1.627-.975 3.395-.645 3.929.33.534-.385 2.019-1.588 3.299-1.304 1.389-2.053 3.276-1.854 4.676.282 1.993 1.089 2.452 5.332 3.036 2.75.379 7.288.992 10.084 1.362 3.68.487 5.89.254 8-.844 1.604-.834 4.041-2.721 5.416-4.193 1.97-2.109 2.485-3.683 2.431-7.417-.045-3.038-.763-5.668-2-7.323-1.062-1.42-2.699-3.066-3.637-3.658-.939-.593-3.414-1.268-5.5-1.502-2.087-.234-4.907-.198-6.267.08m-76.857 6.181c-.756.479-1.188 2.092-1 3.735.28 2.449.828 2.939 3.587 3.205 2.29.221 3.442-.169 3.881-1.314.344-.895.125-2.724-.485-4.064-.611-1.34-1.907-2.429-2.882-2.421-.974.009-2.37.395-3.101.859m384.381 7.47c-1.403 1.84-2.551 4.329-2.551 5.532 0 1.203.745 2.473 1.656 2.822 1.109.426 2.596-.416 4.5-2.547 1.779-1.991 2.844-4.3 2.844-6.167 0-2.291-.452-2.984-1.949-2.984-1.072 0-3.097 1.505-4.5 3.344m-254.896-.515c-.91 1.006-1.655 2.286-1.655 2.845 0 .559.823 1.761 1.829 2.671 1.006.91 2.271 1.655 2.811 1.655.541 0 1.952-.903 3.137-2.007 1.375-1.281 1.922-2.638 1.512-3.75-.354-.959-1.126-2.074-1.716-2.478-.59-.404-1.791-.741-2.668-.75-.877-.008-2.34.808-3.25 1.814m-302.981 2.308c-.494 1.889-1.032 2.061-4.637 1.485-2.806-.449-5.003-.174-7.043.881-1.636.846-3.25 2.67-3.602 4.069-.35 1.395-.384 4.091-.075 5.992.308 1.9 1.479 4.745 2.602 6.322 1.123 1.577 3.581 3.598 5.462 4.491 1.882.893 4.962 1.623 6.846 1.623 2.274 0 4.116-.756 5.484-2.25 1.132-1.237 2.342-3.187 2.689-4.333.346-1.146-.01-3.895-.791-6.109-1.319-3.736-1.28-4.145.541-5.704 1.379-1.181 1.76-2.335 1.283-3.892-.373-1.216-1.128-2.774-1.678-3.462-.55-.687-2.242-1.25-3.761-1.25-1.979 0-2.919.605-3.32 2.137m386.564 5.387c-2.593 1.584-5.079 4.205-6.347 6.689-1.685 3.303-1.958 5.098-1.424 9.366.363 2.905 1.34 5.846 2.171 6.536 1.206 1 2.761 1.006 7.687.027 5.223-1.038 6.83-1.905 10.425-5.626 3.719-3.85 4.25-4.962 4.25-8.902 0-3.251-.626-5.208-2.25-7.04-1.424-1.607-3.718-2.743-6.25-3.097-3.185-.444-4.868-.027-8.262 2.047m-295.694.82c-1.366.999-1.665 2.04-1.162 4.044.373 1.484 1.66 3.062 2.861 3.506 1.2.444 2.987.597 3.97.34 1.184-.31 1.787-1.42 1.787-3.294 0-1.787-.817-3.399-2.223-4.383-1.222-.856-2.486-1.557-2.808-1.557-.323 0-1.414.605-2.425 1.344M104 709.557c0 .306 1.84 4.131 4.09 8.5 2.249 4.368 4.499 7.943 5 7.943.5 0 .91-.429.91-.953s-.55-2.212-1.222-3.75c-.673-1.538-2.511-4.935-4.086-7.547-1.575-2.612-3.275-4.75-3.778-4.75-.503 0-.914.25-.914.557m322 2.182c-1.375.899-3.738 2.76-5.25 4.135-2.038 1.853-2.741 3.423-2.717 6.063.021 2.212 1.064 5.04 2.75 7.458 1.494 2.142 4.285 4.73 6.201 5.75 1.917 1.02 5.337 1.855 7.601 1.855 2.264 0 5.511-.486 7.215-1.08 2.195-.765 3.733-2.39 5.271-5.567 2.147-4.434 2.15-4.528.301-8.031-1.03-1.95-3.672-4.983-5.872-6.739-2.2-1.756-5.259-3.731-6.797-4.388-1.538-.657-3.563-1.171-4.5-1.143-.937.029-2.828.788-4.203 1.687m131.5 4.673c-1.65.733-4.125 2.552-5.5 4.042-1.917 2.077-2.478 3.723-2.406 7.065.052 2.396.875 5.548 1.828 7.003.954 1.455 3.259 3.282 5.124 4.062 1.864.779 4.777 1.416 6.472 1.416 1.695 0 4.355-.659 5.913-1.464 1.557-.805 4.009-2.865 5.45-4.577 1.817-2.159 2.619-4.273 2.619-6.901 0-2.372-.811-4.819-2.168-6.544-1.192-1.516-3.653-3.377-5.468-4.135-1.815-.759-4.552-1.361-6.082-1.34-1.53.022-4.132.639-5.782 1.373m217.135 7.661c-1.554 1.222-2.635 3.068-2.635 4.5 0 2.104.463 2.427 3.477 2.427 2.512 0 3.89-.63 4.966-2.272.829-1.265 1.231-3.26.906-4.5-.322-1.232-1.364-2.228-2.331-2.228-.961 0-2.934.933-4.383 2.073m-611.038.771c-.287.464-.086 2.422.446 4.35.533 1.928 1.753 4.208 2.713 5.066.959.858 2.628 1.713 3.708 1.9 1.199.208 2.094-.293 2.299-1.286.185-.895-1.068-3.708-2.784-6.25-1.717-2.543-3.737-4.624-4.491-4.624-.753 0-1.605.38-1.891.844M142 730.099c0 1.704.733 4.644 1.63 6.533.896 1.889 2.876 4.769 4.401 6.401 1.524 1.632 3.716 2.967 4.87 2.967 1.341 0 2.091-.632 2.077-1.75-.012-.962-.853-3.579-1.868-5.815-1.016-2.236-3.303-5.724-5.082-7.75-1.779-2.027-3.864-3.685-4.632-3.685-.894 0-1.396 1.113-1.396 3.099m778.557 1.124c-.856 1.222-1.557 2.642-1.557 3.155 0 .513-1.125 2.408-2.5 4.211-1.375 1.803-2.5 4.016-2.5 4.918 0 .985.655 1.511 1.643 1.316.903-.178 2.13-1.223 2.725-2.323.595-1.1 2.106-3.599 3.357-5.554 1.251-1.954 2.275-4.542 2.275-5.75 0-1.208-.424-2.196-.943-2.196-.519 0-1.644 1-2.5 2.223m-40.471 3.152c-1.697 2.467-3.086 5.417-3.086 6.555 0 1.399.644 2.07 1.987 2.07 1.238 0 2.959-1.538 4.56-4.075 1.415-2.241 2.433-5.018 2.263-6.171-.171-1.154-.834-2.27-1.474-2.48-.641-.211-2.553 1.635-4.25 4.101m-602.401-.727c-.357.357-.375 1.82-.042 3.25.334 1.431 1.563 3.379 2.732 4.33 1.169.95 2.897 1.738 3.84 1.75.943.012 2.203-.89 2.8-2.005.908-1.697.6-2.512-1.888-5-1.635-1.635-3.833-2.973-4.883-2.973-1.051 0-2.202.292-2.559.648m24.815.052c-1.1.279-2.788 1.205-3.75 2.058-1.018.903-1.75 2.971-1.75 4.947 0 1.867.659 4.668 1.464 6.226.805 1.557 2.844 3.991 4.53 5.41 1.685 1.419 4.661 2.879 6.612 3.245 2.013.377 4.616.178 6.019-.461 1.36-.62 3.086-2.585 3.835-4.369 1.164-2.768 1.15-3.753-.096-6.735-.803-1.922-2.45-4.56-3.662-5.863-1.211-1.304-3.234-2.769-4.496-3.256-1.262-.487-3.287-1.071-4.5-1.297-1.213-.226-3.106-.183-4.206.095m161.546 1.745c-.66.795-1.052 2.473-.873 3.73.204 1.425 1.351 2.643 3.047 3.237 2.152.754 3.143.569 4.75-.885 1.116-1.01 2.03-2.431 2.03-3.156 0-.726-1.328-2.006-2.95-2.845-1.623-.839-3.368-1.526-3.878-1.526-.51 0-1.467.65-2.126 1.445m-257.448 1.858c-1.521 1.113-1.792 2.211-1.355 5.474.301 2.245 1.794 5.715 3.316 7.712 1.523 1.996 4.022 4.277 5.555 5.07 1.533.793 3.907 1.441 5.277 1.441s2.788-.48 3.15-1.066c.362-.587.659-2.569.659-4.406 0-1.884-1.053-4.89-2.416-6.895-1.329-1.956-3.547-4.445-4.929-5.532-1.382-1.088-3.602-2.25-4.934-2.584-1.406-.352-3.219-.022-4.323.786m406.011 7.17c-.885 1.351-1.609 2.907-1.609 3.457 0 .55.942 1.504 2.093 2.12 1.151.616 3.17.85 4.485.52 1.467-.368 2.64-1.59 3.034-3.158.353-1.407.247-2.917-.235-3.356-.482-.439-2.065-1.077-3.518-1.418-2.089-.492-2.976-.109-4.25 1.835M554 745.672c-.825.337-2.734 1.477-4.241 2.532-2.572 1.801-2.912 1.819-5.503.288-2.158-1.275-3.361-1.403-5.508-.586-1.585.602-2.742 1.796-2.733 2.819.009.976.35 2.301.759 2.944.409.642 2.297 1.317 4.196 1.5 3.113.298 3.53.709 4.245 4.174.436 2.113 1.803 4.669 3.039 5.68 1.235 1.01 3.821 2.231 5.746 2.713 1.925.481 5.34.501 7.589.043 2.373-.484 5.213-2.007 6.769-3.631 1.475-1.539 3.069-4.151 3.543-5.803.578-2.014.433-4.024-.44-6.099-.715-1.702-2.349-3.777-3.631-4.611-1.281-.833-4.58-1.754-7.33-2.045-2.75-.292-5.675-.255-6.5.082M372.6 747.6c-.337.879-.045 2.792.651 4.25.863 1.81 2.196 2.756 4.207 2.986 1.956.223 3.379-.26 4.243-1.441.714-.978 1.299-2.141 1.299-2.586 0-.445-.9-1.709-2-2.809s-3.302-2-4.893-2c-1.729 0-3.14.644-3.507 1.6m496.072 5.514c-2.105 1.738-4.968 5.568-6.361 8.511-1.394 2.943-2.273 6.032-1.954 6.863.319.832 1.392 1.512 2.384 1.512s3.373-1.294 5.292-2.875c1.918-1.582 4.527-4.956 5.797-7.499 1.27-2.543 2.165-5.632 1.99-6.865-.176-1.232-.995-2.368-1.82-2.523-.825-.156-3.222 1.139-5.328 2.876M147 752.878c0 1.032.675 2.437 1.5 3.122s1.5 1.781 1.5 2.435c0 .655 1.262 2.4 2.805 3.878 1.542 1.478 3.117 2.687 3.5 2.687.382 0 .695-.711.695-1.581 0-.869-1.619-4.019-3.597-7-1.979-2.98-4.229-5.419-5-5.419-.772 0-1.403.845-1.403 1.878m533.02 11.372c-2.421 1.237-5.182 3.375-6.135 4.75-.952 1.375-2.013 3.901-2.358 5.614-.496 2.468-.078 3.766 2.012 6.25 2.056 2.444 3.432 3.136 6.234 3.136 1.978 0 5.521-.932 7.874-2.071 2.576-1.247 5.157-3.535 6.489-5.75 1.216-2.023 2.324-3.833 2.463-4.021.138-.188 1.043.102 2.012.644 1.161.65 2.512.644 3.965-.018 1.212-.553 2.716-2.13 3.343-3.506.856-1.878.853-2.848-.012-3.89-.633-.763-1.591-1.388-2.128-1.388-.537 0-2.455.702-4.262 1.559-3.167 1.503-3.386 1.467-6.048-1-1.744-1.617-3.918-2.559-5.903-2.559-1.728 0-5.124 1.013-7.546 2.25m110.48-.593c-1.65.867-4.399 2.901-6.11 4.52-1.71 1.619-3.708 4.756-4.439 6.972-.946 2.867-1.029 4.504-.286 5.682.574.91 2.414 2.047 4.09 2.528 2.585.741 3.744.393 7.652-2.295 2.631-1.811 5.498-4.917 6.686-7.247 1.461-2.863 1.898-5.053 1.467-7.351-.338-1.8-1.314-3.541-2.169-3.869-.855-.329-2.08-.579-2.723-.557-.642.022-2.518.75-4.168 1.617m-475.277.9c-1.576 1.103-2.223 2.573-2.223 5.049 0 1.921.688 4.823 1.528 6.449.841 1.626 3.307 4.078 5.481 5.45 2.653 1.675 5.386 2.495 8.316 2.495 2.959 0 4.898-.589 6.02-1.829.91-1.006 1.655-3.393 1.655-5.305 0-2.152-.967-4.788-2.536-6.915-1.395-1.89-3.982-4.209-5.75-5.152-1.768-.943-4.801-1.734-6.741-1.757-1.941-.023-4.528.659-5.75 1.515m573.46 3.693c-1.33 1.788-3.214 4.502-4.186 6.031-.972 1.53-1.46 3.089-1.084 3.465.375.376 1.449.212 2.385-.365.936-.576 3.164-3.255 4.952-5.953 1.788-2.698 3.25-5.248 3.25-5.667 0-.418-.652-.761-1.449-.761s-2.538 1.462-3.868 3.25m-635.56.102c-.856 1.031-.58 2.16 1.159 4.75 1.635 2.435 3.158 3.484 5.372 3.702 2.08.204 3.286-.205 3.687-1.251.359-.936-.626-2.947-2.476-5.054-1.69-1.924-3.87-3.499-4.846-3.499s-2.279.609-2.896 1.352m288.622 3.472c-2.24 1-5.135 3.62-7.174 6.495-3.044 4.29-3.304 5.149-2.37 7.828.577 1.656 2.006 3.375 3.174 3.822a336.29 336.29 0 0 1 6.272 2.527c2.964 1.226 5.332 1.514 8.304 1.012 3.594-.607 4.627-1.409 7.618-5.914 3.187-4.799 3.369-5.474 2.303-8.53-.946-2.714-2.31-3.841-7.492-6.191-3.485-1.58-6.458-2.84-6.608-2.799-.15.041-1.962.828-4.027 1.75m-396.148 7.019c-.36.583.695 2.545 2.345 4.359 1.859 2.044 2.997 2.728 2.993 1.798-.004-.825-1.059-2.786-2.345-4.358-1.401-1.713-2.601-2.434-2.993-1.799M449 781.3c0 1.265.54 2.84 1.2 3.5.66.66 2.658 1.2 4.441 1.2s3.535-.476 3.894-1.057.377-2.156.04-3.5c-.536-2.136-1.176-2.443-5.094-2.443-4.009 0-4.481.242-4.481 2.3m-97.718 6.728c-.409 1.567-1.013 1.862-2.656 1.296-1.169-.402-3.476-.652-5.126-.555-1.65.097-3.991.704-5.202 1.347-1.211.644-2.477 2.423-2.813 3.954-.37 1.683.001 3.969.936 5.778.852 1.647 2.886 3.946 4.52 5.11 1.634 1.163 4.352 2.597 6.04 3.185 1.688.589 4.667.77 6.62.404 2.812-.527 3.847-1.374 4.972-4.067 1.148-2.747 1.186-3.916.198-6.084-1.09-2.391-.98-2.845 1.003-4.162 1.224-.813 2.226-2.098 2.226-2.856s-.9-2.278-2-3.378c-1.138-1.138-3.333-2-5.094-2-2.266 0-3.235.542-3.624 2.028m266.106.952c-1.161.469-2.36 1.805-2.664 2.969-.393 1.503.131 2.565 1.808 3.664 2.021 1.324 2.766 1.354 5.165.208 1.675-.801 2.939-2.297 3.14-3.717.186-1.308-.264-2.759-1-3.226-.735-.466-2.012-.826-2.837-.799-.825.026-2.45.432-3.612.901m-382.043 1.564c-.326.849-.34 3.099-.032 5 .422 2.598.205 3.456-.876 3.456-.894 0-1.437 1.019-1.437 2.695 0 1.563 1.129 3.874 2.687 5.5 1.478 1.543 3.448 2.805 4.378 2.805.929 0 2.247-.671 2.927-1.49.783-.943 2.113-1.271 3.622-.892 1.312.329 3.511.316 4.886-.029 1.933-.485 2.5-1.272 2.5-3.467 0-1.725-1.344-4.539-3.422-7.165-1.883-2.379-4.92-5.124-6.75-6.099-1.831-.976-4.355-1.793-5.609-1.816-1.255-.023-2.548.653-2.874 1.502m282.359 5.694c-4.666 3.093-4.788 3.302-4.5 7.677.262 3.984.791 4.874 4.624 7.791 2.91 2.215 5.43 3.294 7.693 3.294 1.85 0 4.929-.923 6.84-2.05 1.911-1.128 4.278-3.266 5.259-4.75.982-1.485 1.664-3.893 1.517-5.351-.147-1.458.212-2.947.798-3.309.586-.362 1.065-1.981 1.065-3.599 0-2.941 0-2.941-9.25-2.911-8.697.027-9.537.219-14.046 3.208m-362.84-.604c.582 1.026 2.609 3.666 4.504 5.866 1.895 2.2 3.778 3.672 4.185 3.27.407-.401-1.222-2.876-3.619-5.5-2.397-2.623-4.756-4.935-5.243-5.136-.487-.201-.409.474.173 1.5M182 799.35c0 .742 1.411 3.33 3.135 5.75 1.725 2.42 4.312 5.396 5.75 6.614 1.438 1.218 3.402 2.23 4.365 2.25 1.042.021 1.75-.704 1.75-1.794 0-1.006-2.513-4.606-5.584-8-3.141-3.47-6.422-6.17-7.5-6.17-1.054 0-1.916.607-1.916 1.35m622.319 4.403c-2.299 2.061-4.467 4.76-4.817 5.997-.538 1.902-.251 2.25 1.854 2.25 1.37 0 3.875-1.165 5.567-2.589 2.329-1.959 3.077-3.419 3.077-6 0-1.876-.337-3.41-.75-3.408-.413.001-2.631 1.689-4.931 3.75m-93.819 4.192c-1.1.451-2.881 1.798-3.958 2.996-1.503 1.67-1.712 2.569-.899 3.868.582.93 2.191 1.828 3.574 1.995 1.811.218 3.252-.573 5.149-2.827 1.449-1.722 2.634-3.53 2.634-4.019 0-.488-.87-1.353-1.934-1.923-1.064-.569-2.077-1.006-2.25-.972-.174.035-1.216.432-2.316.882m-344.277 2.612c-1.625 1.137-2.223 2.565-2.223 5.304 0 2.917.719 4.44 3.25 6.881 1.788 1.725 4.517 3.613 6.065 4.197 1.548.583 4.165 1.061 5.816 1.061 1.65 0 3.983-.517 5.185-1.15 1.201-.632 2.515-1.645 2.919-2.25.404-.605.741-2.277.75-3.715.008-1.438-.928-3.814-2.08-5.278-1.152-1.465-3.834-3.55-5.96-4.635S374.362 809 372.262 809c-2.099 0-4.817.701-6.039 1.557m286.277 4.488c-2.2 1.081-5.01 3.201-6.245 4.711-1.315 1.607-2.247 4.112-2.25 6.045-.004 2.824.497 3.511 3.463 4.75 1.907.797 4.85 1.449 6.54 1.449 1.689 0 4.816-.89 6.948-1.977 2.131-1.088 4.813-3.295 5.96-4.905 1.146-1.61 2.084-3.399 2.084-3.975 0-.577-.5-2.145-1.11-3.486-.611-1.34-2.207-2.936-3.547-3.547-1.341-.61-3.653-1.092-5.14-1.07-1.487.022-4.503.924-6.703 2.005m-151.659 3.299c-1.463.65-3.601 2.033-4.75 3.074-1.15 1.041-2.091 3.12-2.091 4.621 0 1.914 1.194 3.807 4.003 6.345 3.714 3.355 4.454 3.613 10.25 3.58 5.087-.029 6.795-.484 9.197-2.447 2.246-1.836 2.95-3.247 2.95-5.914 0-2.069-.798-4.385-1.948-5.656-1.071-1.183-3.163-2.781-4.65-3.549-1.486-.769-4.413-1.361-6.502-1.317-2.09.045-4.997.613-6.459 1.263m-65.356 3.68c-.348.564-.364 2.252-.034 3.753.48 2.185.152 2.926-1.651 3.725-1.238.549-2.922 2.205-3.743 3.681-1.338 2.405-1.318 3.046.188 6.204.924 1.938 2.999 4.205 4.612 5.039 1.613.834 4.691 1.798 6.84 2.142 2.548.407 5.192.087 7.603-.92 2.032-.849 4.196-2.641 4.807-3.983.849-1.864.789-3.109-.253-5.284-.751-1.566-2.807-3.754-4.571-4.864-2.28-1.435-3.217-2.79-3.244-4.696-.022-1.473-.746-3.385-1.61-4.25-.865-.864-3.088-1.571-4.941-1.571-1.854 0-3.655.461-4.003 1.024m424.567 3.423c-2.435 2.481-4.102 4.836-3.705 5.233.397.397 2.561-1.117 4.809-3.365 2.247-2.248 3.915-4.603 3.705-5.233-.21-.63-2.374.884-4.809 3.365m-462.129-.524c-1.608 1.608-2.923 3.823-2.923 4.923s1.12 3.331 2.488 4.958c1.369 1.626 4.024 3.686 5.902 4.577 1.877.89 5.196 1.619 7.376 1.619 2.496 0 4.94-.768 6.599-2.073 1.92-1.51 2.635-2.991 2.635-5.461 0-2.217-.778-4.123-2.25-5.514-1.238-1.169-3.92-2.987-5.96-4.039-2.041-1.052-5.338-1.913-7.327-1.913-2.664 0-4.387.77-6.54 2.923m-65.203-1.31c-.396.396-.72 1.552-.72 2.568 0 1.017 1.462 2.751 3.25 3.854 1.788 1.104 4.375 1.884 5.75 1.736 1.69-.183 2.5-.884 2.5-2.163 0-1.041-1.125-2.708-2.5-3.705-1.375-.997-3.639-2.082-5.03-2.411-1.392-.329-2.854-.274-3.25.121m136.456 4.254c-2.378.965-4.734 2.402-5.235 3.194-.501.791-.917 2.616-.926 4.054-.008 1.438.89 3.766 1.996 5.172 1.106 1.405 4.045 3.333 6.533 4.283 3.875 1.48 5.125 1.549 8.739.483 2.319-.684 5.229-2.179 6.467-3.322 1.238-1.144 2.25-3.066 2.25-4.27 0-1.205-.977-3.434-2.171-4.952-1.195-1.518-4.007-3.594-6.25-4.613-2.244-1.018-4.754-1.837-5.579-1.818-.825.018-3.446.824-5.824 1.789M218 828.156c0 .635 1.155 2.669 2.567 4.52 1.411 1.851 3.684 4.098 5.051 4.993 1.879 1.231 2.766 1.347 3.64.473.873-.873-.045-2.373-3.764-6.148-2.705-2.747-5.498-4.994-6.206-4.994-.709 0-1.288.52-1.288 1.156m400.239 5.51c-.694.28-1.738 1.398-2.32 2.485-.765 1.43-.728 2.374.134 3.413.656.79 2.642 1.436 4.414 1.436 1.852 0 3.927-.778 4.878-1.829.91-1.006 1.655-2.532 1.655-3.393 0-.86-.712-1.837-1.582-2.171-.87-.334-2.557-.571-3.75-.528-1.192.043-2.736.308-3.429.587m-341.667 1.905c-.864.864-1.572 2.134-1.572 2.82 0 .687 1.56 3.072 3.467 5.299 1.907 2.228 5.012 4.784 6.901 5.68 1.889.897 4.774 1.63 6.411 1.63 1.637 0 3.545-.686 4.241-1.525 1.06-1.276.615-2.293-2.735-6.25-2.2-2.599-5.301-5.459-6.892-6.356-1.591-.897-4.098-1.909-5.571-2.251-1.779-.412-3.205-.092-4.25.953m468.155 1.387c-3.056 1.938-5.196 4.229-6.203 6.639-1.219 2.917-1.285 3.986-.32 5.148.855 1.03 2.483 1.325 5.466.989 3.111-.351 5.597-1.609 9.289-4.7 4.242-3.552 5.041-4.76 5.041-7.627 0-3.348-.074-3.407-4.304-3.407-3.051 0-5.663.861-8.969 2.958m73.301-.423c-1.909 1.356-4.466 2.465-5.68 2.465-1.215 0-3.796 1.013-5.736 2.25s-3.546 3.005-3.57 3.927c-.023.922 1.379 2.386 3.116 3.252 3.001 1.497 3.362 1.455 7.25-.842 2.251-1.329 5.518-3.918 7.26-5.752 1.743-1.834 3.318-4.219 3.5-5.299.196-1.156-.285-2.067-1.168-2.214-.825-.138-3.062.858-4.972 2.213M525.75 838.08c-.962.561-1.75 1.647-1.75 2.413 0 .766 1 2.094 2.223 2.95 1.222.856 2.972 1.557 3.889 1.557.916 0 2.729-.9 4.027-2 2.361-2 2.361-2 0-4-1.298-1.1-3.323-1.986-4.5-1.97-1.176.017-2.927.489-3.889 1.05m191.714 11.302c-1.669.615-4.091 1.877-5.381 2.804-1.478 1.062-2.121 2.274-1.737 3.273.335.872 1.318 1.859 2.185 2.191.867.333 3.352-.196 5.523-1.174 3.226-1.455 3.946-2.289 3.946-4.569 0-1.534-.337-2.981-.75-3.216-.413-.235-2.116.076-3.786.691M214 851.208c0 .762 1.706 3.052 3.792 5.089 2.086 2.037 4.369 3.703 5.073 3.703.868 0 .665-.782-.629-2.427-1.05-1.335-3.333-3.625-5.072-5.089-2.083-1.752-3.164-2.188-3.164-1.276m401 3.823c-1.925.324-5.413 1.859-7.75 3.412-2.988 1.985-4.25 3.519-4.25 5.167 0 1.344.96 2.948 2.25 3.761 1.237.779 4.862 1.725 8.055 2.102 4.616.544 6.357.333 8.5-1.031 1.482-.944 3.691-2.892 4.909-4.329 1.218-1.437 2.23-3.097 2.25-3.689.02-.591-.977-2-2.214-3.131-1.237-1.131-3.6-2.234-5.25-2.453-1.65-.218-4.575-.132-6.5.191m-378 3.782c0 .997 1.238 2.922 2.75 4.278 1.512 1.355 4.685 3.954 7.05 5.774 2.366 1.821 4.953 3.06 5.75 2.754.798-.306 1.45-1.191 1.45-1.967s-2.103-3.153-4.673-5.282c-2.571-2.128-5.833-4.655-7.25-5.613-1.418-.959-3.139-1.747-3.827-1.75-.687-.004-1.25.809-1.25 1.806m78.302-.157c-.425 1.108.41 2.591 2.523 4.479 1.738 1.553 4.336 3.118 5.775 3.479 1.703.428 2.901.193 3.438-.675.452-.732.41-2.103-.095-3.046-.505-.943-2.439-2.654-4.298-3.804-1.86-1.149-4.13-2.089-5.044-2.089-.915 0-1.95.745-2.299 1.656m107.948 2.429c-1.251.473-2.25 1.698-2.25 2.76 0 1.051.657 2.456 1.461 3.122.803.667 3.27 1.455 5.482 1.752 3.233.434 4.153.194 4.698-1.226.372-.971.23-2.474-.316-3.34-.547-.867-2.306-2.103-3.91-2.747-1.802-.724-3.774-.846-5.165-.321M804 870.739c-1.375.899-3.737 2.76-5.25 4.135s-2.75 2.866-2.75 3.313c0 .447.391.813.869.813.479 0 3.179-1.838 6-4.085 2.822-2.247 5.131-4.497 5.131-5 0-.503-.337-.891-.75-.863-.413.029-1.875.788-3.25 1.687m-477.559.695c-1.838 1.358-1.853 1.584-.291 4.25.907 1.549 3.382 4.059 5.5 5.577 2.912 2.089 5.19 2.82 9.35 3 5.251.228 5.514.121 5.802-2.362.225-1.938-.599-3.392-3.236-5.707-1.946-1.708-5.876-3.8-8.733-4.649-2.858-.849-5.478-1.543-5.823-1.543-.345 0-1.501.645-2.569 1.434m290.568 4.856c-1.37.693-2.635 2.006-2.81 2.918-.176.911.63 2.165 1.79 2.786 1.556.833 2.993.837 5.48.016 1.854-.612 3.912-1.764 4.573-2.561.939-1.131.93-1.778-.042-2.949-.685-.825-2.427-1.493-3.872-1.485-1.446.008-3.749.582-5.119 1.275m-100.524 4.758c-.358 1.126-.09 2.723.595 3.548.849 1.024 2.669 1.406 5.73 1.202 2.851-.189 4.866-.905 5.53-1.964.755-1.205.68-2.105-.27-3.25-.866-1.044-2.956-1.584-6.125-1.584-3.97 0-4.924.358-5.46 2.048m-214.833 6.416c-.339.883.512 2.219 2.143 3.366 1.488 1.046 4.208 2.669 6.045 3.608 1.837.939 4.036 1.44 4.886 1.114 1.346-.517 1.301-.868-.34-2.703-1.037-1.159-3.565-3.175-5.616-4.479-2.052-1.303-4.366-2.37-5.143-2.37-.777 0-1.666.659-1.975 1.464m413.359 1.126c-2.469 1.411-4.815 3.093-5.214 3.738s-.098 1.799.668 2.565c1.191 1.191 2.087 1.03 6.175-1.111 2.63-1.377 5.25-3.255 5.821-4.172.774-1.241.656-1.911-.461-2.623-.825-.526-1.725-.958-2-.96-.275-.001-2.52 1.152-4.989 2.563m-148.638 1.817c-2.821 1.313-5.45 2.909-5.845 3.547-.394.638-.453 2.209-.131 3.491.391 1.557 1.983 2.89 4.797 4.016 2.797 1.119 5.404 1.464 7.759 1.027 1.951-.362 5.235-1.603 7.297-2.757 2.956-1.655 3.75-2.699 3.75-4.93 0-2.12-.815-3.328-3.25-4.812-1.788-1.09-4.6-1.979-6.25-1.975-1.65.003-5.307 1.08-8.127 2.393m125.186-.875c-1.068.807-2.68 1.468-3.584 1.468-.903 0-3.371 1.495-5.484 3.321-2.708 2.341-3.649 3.824-3.189 5.024.36.937 1.676 2.092 2.926 2.568 1.602.61 2.777.42 3.985-.645.942-.831 2.35-1.266 3.129-.967.779.299 3.72-1.009 6.537-2.905 2.94-1.98 5.121-4.204 5.121-5.223 0-.975-.54-2.313-1.2-2.973-.66-.66-2.348-1.186-3.75-1.168-1.402.017-3.424.692-4.491 1.5M383.75 896.08c-.962.561-1.75 1.785-1.75 2.72 0 .935 1.624 2.996 3.61 4.58 1.985 1.584 5.022 3.19 6.75 3.569 1.727.379 5.021.501 7.321.271 2.299-.229 4.401-.992 4.671-1.694.269-.702-.487-2.672-1.681-4.376-1.335-1.906-3.877-3.687-6.599-4.625-2.436-.839-5.811-1.511-7.5-1.495-1.69.017-3.86.489-4.822 1.05m23.875 2.718c-.271.439-.169 1.321.226 1.961.396.64 2.376 1.856 4.402 2.702 2.025.847 4.611 1.539 5.746 1.539 1.135 0 2.35-.745 2.699-1.656.407-1.059-.185-2.32-1.642-3.5-1.43-1.158-3.889-1.844-6.608-1.844-2.381 0-4.552.359-4.823.798m335.946 4.702c-2.708 1.925-5.556 3.5-6.33 3.5s-1.223.563-.997 1.25c.226.688 1.501 1.36 2.833 1.494 1.466.148 4.571-1.234 7.861-3.5 2.991-2.059 5.616-4.306 5.833-4.994.239-.756-.527-1.25-1.941-1.25-1.285 0-4.552 1.575-7.259 3.5M303 905.606c0 .333 1.211 1.571 2.692 2.75s4.293 3.142 6.25 4.363c1.957 1.22 4.796 2.233 6.308 2.25 1.512.017 2.75-.396 2.75-.918s-1.487-2.083-3.304-3.469c-1.817-1.386-4.952-3.209-6.968-4.051-2.015-.842-4.578-1.531-5.696-1.531-1.118 0-2.032.273-2.032.606m202.308.588c-1.205.583-2.453 1.741-2.772 2.574-.32.832.114 2.575.964 3.873.851 1.297 1.986 2.359 2.523 2.359.537 0 .977 1.07.977 2.378 0 1.307.699 2.957 1.553 3.666.855.709 2.775 1.289 4.268 1.289 1.493 0 3.988-.319 5.544-.71 2.426-.609 2.739-1.071 2.195-3.239-.54-2.154-.184-2.7 2.403-3.676 2.12-.8 3.037-1.813 3.037-3.355 0-1.214-1.186-3.141-2.635-4.28-2.09-1.644-4.003-2.059-9.25-2.005-3.638.037-7.601.544-8.807 1.126M294 907.914c0 .503 2.257 2.303 5.015 4 2.758 1.697 5.458 3.086 6 3.086.542 0 .985-.689.985-1.531 0-.843-.788-1.816-1.75-2.163-.962-.347-2.944-1.458-4.404-2.469-1.46-1.01-3.373-1.837-4.25-1.837-.878 0-1.596.411-1.596.914m149.582.402c-.99.724-1.635 2.171-1.434 3.215.201 1.044 1.836 2.889 3.632 4.1 1.797 1.211 5.01 2.496 7.141 2.856 2.201.371 5.648.123 7.977-.575 3.507-1.05 4.102-1.626 4.102-3.972 0-2.083-.856-3.247-3.557-4.841-2.591-1.529-5.256-2.099-9.809-2.099-3.59 0-7.018.56-8.052 1.316m170.557 5.683c-1.848.436-4.063 1.497-4.923 2.356-1.417 1.417-1.291 1.666 1.35 2.67 1.602.609 4.319.844 6.036.522 1.718-.322 3.955-1.505 4.971-2.628 1.582-1.748 1.638-2.174.387-2.965-.803-.508-2.135-.884-2.96-.836-.825.048-3.012.444-4.861.881m92.111 7.123c-2.394 1.101-4.25 2.647-4.25 3.541 0 1.245.675 1.452 3.135.96 1.725-.345 4.65-1.563 6.5-2.707 1.851-1.143 3.365-2.492 3.365-2.998 0-.505-1.013-.88-2.25-.834-1.237.047-4.163.964-6.5 2.038m-309.826 6.217c-.331.861-.336 1.995-.011 2.52.324.524 2.694 1.671 5.266 2.547 2.573.877 5.471 1.594 6.44 1.594.97 0 2.078-.509 2.462-1.132.385-.622-.151-1.626-1.191-2.23-1.039-.604-3.465-1.699-5.39-2.434-1.925-.734-4.282-1.582-5.238-1.883-1.042-.329-1.978.079-2.338 1.018m226.126 4.787c-2.172.509-4.76 1.659-5.75 2.555-.99.896-1.8 2.226-1.8 2.955 0 .729 1.143 1.613 2.541 1.964 1.397.35 4.659.091 7.25-.577 2.59-.668 6.059-1.708 7.709-2.312 1.65-.604 3.296-1.532 3.657-2.064.362-.531.426-1.569.143-2.306-.336-.877-2.121-1.306-5.157-1.241-2.554.056-6.42.517-8.593 1.026m-244.852 4.51c-.384.383-.698 1.028-.698 1.432 0 .404 1.462 1.597 3.25 2.652 1.788 1.054 5.362 2.449 7.943 3.099 2.581.649 5.618 1.181 6.75 1.181 1.131 0 2.057-.626 2.057-1.391 0-.766-1.808-2.115-4.017-2.999-2.21-.884-5.698-2.006-7.75-2.493-2.053-.487-4.432-1.177-5.285-1.532-.854-.356-1.866-.333-2.25.051m232.208 7.791c-.281.281-2.062.605-3.958.719-1.897.114-4.01.633-4.698 1.153-.687.52-1.25 1.566-1.25 2.323 0 .758.999 1.378 2.221 1.378 1.221 0 4.609-.555 7.528-1.234 3.805-.885 5.226-1.663 5.019-2.75-.159-.834-1.202-1.647-2.319-1.808-1.117-.161-2.261-.062-2.543.219M669 946.506c-1.375.727-4.673 1.923-7.329 2.658-2.656.735-4.906 1.786-5 2.336-.094.55.835 1.143 2.064 1.318 1.229.174 3.241-.388 4.472-1.25 1.231-.863 3.017-1.568 3.968-1.568.952 0 2.877-.522 4.278-1.161 1.401-.638 2.547-1.763 2.547-2.5 0-.736-.562-1.298-1.25-1.248-.687.051-2.375.687-3.75 1.415m-281 2.25c0 .558 2.222 1.741 4.938 2.629 2.716.888 5.641 1.615 6.5 1.615s1.562-.627 1.562-1.393-.67-1.65-1.488-1.964c-.818-.314-3.743-.87-6.5-1.236-3.157-.419-5.012-.29-5.012.349m108 .146c0 .496 1.417 1.396 3.149 2 1.732.604 5.107 1.098 7.5 1.098 3.684 0 4.351-.306 4.351-2 0-1.822-.667-2-7.5-2-4.125 0-7.5.406-7.5.902m46.25 3.256c-3.283.622-5.25 1.506-5.25 2.359 0 .751.426 1.628.946 1.95.52.321 4.608.608 9.084.637 6.431.042 8.548-.317 10.092-1.714 1.488-1.347 1.647-1.939.666-2.484-.709-.394-3.313-.947-5.788-1.229-2.475-.282-6.862-.065-9.75.481m-85.697 1.756c-.369.597-.425 1.484-.124 1.971.3.486 1.79 1.138 3.309 1.448 1.519.311 5.356 1.083 8.526 1.718 3.17.634 6.465.883 7.324.554.858-.33 1.408-1.388 1.223-2.352-.231-1.198-1.757-2.013-4.824-2.574-2.468-.451-6.799-1.053-9.625-1.336-3.162-.317-5.396-.098-5.809.571m28.074 14.113c.564.564 3.354 1.302 6.2 1.639 3.285.389 5.173.236 5.173-.42 0-.567-.712-1.305-1.582-1.639-.87-.334-3.66-.607-6.2-.607-3.158 0-4.294.324-3.591 1.027M586.5 968c.34.55 1.69 1 3 1s2.66-.45 3-1c.369-.596-.843-1-3-1s-3.369.404-3 1m-8.5 1.941c0 .518.409 1.194.91 1.503.5.309 1.625.288 2.5-.048.874-.335 1.59-1.012 1.59-1.503 0-.491-1.125-.893-2.5-.893s-2.5.423-2.5.941"
          fill-rule="evenodd" fill="#141414"/>
</svg>
