<?xml version="1.0" encoding="utf-8"?>
<svg viewBox="411.806640625 -26.659399032592773 576.4063110351562 551.4404907226562" width="576.4063110351562"
     height="551.4404907226562" xmlns="http://www.w3.org/2000/svg">
    <g transform="matrix(1, 0, 0, 1, 0, 0)">
        <path d="M 925.600006 249.100006 A 225.600006 194.899994 0 0 1 700 444 A 225.600006 194.899994 0 0 1 474.399994 249.100006 A 225.600006 194.899994 0 0 1 700 54.200012 A 225.600006 194.899994 0 0 1 925.600006 249.100006 Z"
              class="st1"
              style="fill: none; stroke: rgb(204, 204, 204); stroke-width: 5; stroke-miterlimit: 10; stroke-opacity: 1;"/>
        <path d="M 925.600006 249.100006 A 225.600006 187.300003 0 0 1 700 436.400009 A 225.600006 187.300003 0 0 1 474.399994 249.100006 A 225.600006 187.300003 0 0 1 700 61.800003 A 225.600006 187.300003 0 0 1 925.600006 249.100006 Z"
              transform="matrix(0.874 -0.4859 0.4859 0.874 -32.8476 371.4908)" class="st1"
              style="fill: none; stroke: rgb(204, 204, 204); stroke-width: 5; stroke-miterlimit: 10; stroke-opacity: 1;"/>
        <path d="M 925.600006 249.100006 A 225.600006 158.5 0 0 1 700 407.600006 A 225.600006 158.5 0 0 1 474.399994 249.100006 A 225.600006 158.5 0 0 1 700 90.600006 A 225.600006 158.5 0 0 1 925.600006 249.100006 Z"
              transform="matrix(0.5754 -0.8179 0.8179 0.5754 93.4826 678.2577)" class="st1"
              style="fill: none; stroke: rgb(204, 204, 204); stroke-width: 5; stroke-miterlimit: 10; stroke-opacity: 1;"/>
        <path d="M 925.600006 249.100006 A 225.600006 121.699997 0 0 1 700 370.800003 A 225.600006 121.699997 0 0 1 474.399994 249.100006 A 225.600006 121.699997 0 0 1 700 127.400009 A 225.600006 121.699997 0 0 1 925.600006 249.100006 Z"
              transform="matrix(0.3716 -0.9284 0.9284 0.3716 208.6418 806.4193)" class="st1"
              style="fill: none; stroke: rgb(204, 204, 204); stroke-width: 5; stroke-miterlimit: 10; stroke-opacity: 1;"/>
        <path d="M 925.600006 249.100006 A 225.600006 60.900002 0 0 1 700 310.000008 A 225.600006 60.900002 0 0 1 474.399994 249.100006 A 225.600006 60.900002 0 0 1 700 188.200005 A 225.600006 60.900002 0 0 1 925.600006 249.100006 Z"
              transform="matrix(0.1618 -0.9868 0.9868 0.1618 340.9511 899.5776)" class="st1"
              style="fill: none; stroke: rgb(204, 204, 204); stroke-width: 5; stroke-miterlimit: 10; stroke-opacity: 1;"/>
        <path d="M 925.600006 249.100006 A 225.600006 194.899994 0 0 1 700 444 A 225.600006 194.899994 0 0 1 474.399994 249.100006 A 225.600006 194.899994 0 0 1 700 54.200012 A 225.600006 194.899994 0 0 1 925.600006 249.100006 Z"
              class="st1"
              style="fill: none; stroke: rgb(204, 204, 204); stroke-width: 5; stroke-miterlimit: 10; stroke-opacity: 1;"/>
        <path d="M 925.600006 249.100006 A 225.600006 187.300003 0 0 1 700 436.400009 A 225.600006 187.300003 0 0 1 474.399994 249.100006 A 225.600006 187.300003 0 0 1 700 61.800003 A 225.600006 187.300003 0 0 1 925.600006 249.100006 Z"
              transform="matrix(-0.874 -0.4859 0.4859 -0.874 1190.7919 806.9188)" class="st1"
              style="fill: none; stroke: rgb(204, 204, 204); stroke-width: 5; stroke-miterlimit: 10; stroke-opacity: 1;"/>
        <path d="M 925.600006 249.100006 A 225.600006 158.5 0 0 1 700 407.600006 A 225.600006 158.5 0 0 1 474.399994 249.100006 A 225.600006 158.5 0 0 1 700 90.600006 A 225.600006 158.5 0 0 1 925.600006 249.100006 Z"
              transform="matrix(-0.5754 -0.8179 0.8179 -0.5754 899.075 964.9241)" class="st1"
              style="fill: none; stroke: rgb(204, 204, 204); stroke-width: 5; stroke-miterlimit: 10; stroke-opacity: 1;"/>
        <path d="M 925.600006 249.100006 A 225.600006 121.699997 0 0 1 700 370.800003 A 225.600006 121.699997 0 0 1 474.399994 249.100006 A 225.600006 121.699997 0 0 1 700 127.400009 A 225.600006 121.699997 0 0 1 925.600006 249.100006 Z"
              transform="matrix(-0.3716 -0.9284 0.9284 -0.3716 728.8414 991.5302)" class="st1"
              style="fill: none; stroke: rgb(204, 204, 204); stroke-width: 5; stroke-miterlimit: 10; stroke-opacity: 1;"/>
        <path d="M 925.600006 249.100006 A 225.600006 60.900002 0 0 1 700 310.000008 A 225.600006 60.900002 0 0 1 474.399994 249.100006 A 225.600006 60.900002 0 0 1 700 188.200005 A 225.600006 60.900002 0 0 1 925.600006 249.100006 Z"
              transform="matrix(-0.1618 -0.9868 0.9868 -0.1618 567.4281 980.1679)" class="st1"
              style="fill: none; stroke: rgb(204, 204, 204); stroke-width: 5; stroke-miterlimit: 10; stroke-opacity: 1;"/>
        <path d="M 700 26.299999 L 700 471.899994" class="st1"
              style="fill: none; stroke: rgb(204, 204, 204); stroke-width: 5; stroke-miterlimit: 10; stroke-opacity: 1;"/>
    </g>
</svg>
