<?xml version="1.0" encoding="UTF-8"?>
<svg id="svg" version="1.1" width="1024" height="1024" viewBox="0 0 1024 1024" xmlns="http://www.w3.org/2000/svg" xmlns:xlink="http://www.w3.org/1999/xlink"><path d="M504.250 27.262 C 496.604 29.101,500.256 32.008,510.184 31.986 C 521.511 31.962,524.836 29.441,516.486 27.207 C 511.353 25.835,510.164 25.840,504.250 27.262 M382.585 43.770 C 377.836 45.441,374.849 48.182,376.249 49.583 C 376.989 50.323,388.827 47.622,393.252 45.703 C 400.282 42.655,390.691 40.917,382.585 43.770 M625.645 42.765 C 624.639 44.394,627.065 45.734,635.002 47.933 C 643.853 50.386,646.000 50.502,646.000 48.525 C 646.000 45.298,627.343 40.018,625.645 42.765 M503.110 51.367 C 500.304 54.749,509.366 57.127,515.420 54.598 C 518.646 53.250,519.050 52.765,518.000 51.500 C 516.346 49.508,504.739 49.404,503.110 51.367 M502.182 63.030 C 495.663 67.005,500.857 71.511,511.751 71.332 C 522.061 71.162,526.154 66.893,519.750 62.989 C 515.302 60.277,506.664 60.298,502.182 63.030 M386.689 66.604 C 384.958 67.542,384.012 68.776,384.226 69.814 C 384.959 73.366,399.000 70.192,399.000 66.474 C 399.000 64.464,390.471 64.553,386.689 66.604 M621.547 65.924 C 620.432 67.728,626.926 71.177,631.747 71.341 C 635.500 71.468,636.502 71.149,636.792 69.731 C 637.046 68.487,636.102 67.523,633.609 66.481 C 629.660 64.831,622.429 64.497,621.547 65.924 M390.063 78.219 C 385.050 80.796,383.374 82.926,384.351 85.473 C 384.923 86.963,386.091 87.163,392.353 86.847 C 398.539 86.535,400.267 86.034,403.400 83.644 C 406.010 81.653,407.023 80.170,406.807 78.656 C 406.537 76.760,405.777 76.466,400.500 76.219 C 395.831 76.000,393.516 76.444,390.063 78.219 M615.065 77.422 C 613.342 79.497,615.599 82.618,620.566 85.028 C 625.873 87.602,636.750 87.816,637.691 85.364 C 638.612 82.963,636.886 80.857,631.913 78.314 C 626.685 75.640,616.971 75.125,615.065 77.422 M507.095 82.897 C 505.772 83.254,504.197 84.349,503.595 85.331 C 502.106 87.760,505.164 90.000,509.969 90.000 C 513.504 90.000,518.000 87.749,518.000 85.978 C 518.000 83.879,510.898 81.873,507.095 82.897 M274.000 88.705 C 268.260 89.637,256.381 100.000,261.053 100.000 C 262.680 100.000,274.074 94.189,276.250 92.250 C 277.990 90.699,278.682 87.864,277.250 88.150 C 276.838 88.232,275.375 88.482,274.000 88.705 M743.349 89.245 C 742.588 90.476,747.050 94.140,753.342 97.452 C 760.763 101.357,764.552 100.674,759.750 96.298 C 753.926 90.989,744.718 87.030,743.349 89.245 M399.942 96.948 C 392.879 99.091,390.424 103.315,395.500 104.589 C 400.169 105.761,407.000 102.667,407.000 99.380 C 407.000 98.284,403.850 95.804,402.816 96.086 C 402.642 96.133,401.349 96.521,399.942 96.948 M614.750 97.077 C 612.093 98.630,612.644 100.813,616.250 103.011 C 620.184 105.410,625.269 105.585,627.095 103.385 C 628.249 101.995,628.050 101.440,625.662 99.385 C 624.136 98.073,622.050 97.000,621.026 97.000 C 620.002 97.000,618.564 96.787,617.832 96.527 C 617.099 96.267,615.713 96.514,614.750 97.077 M279.812 111.036 C 275.459 113.335,272.571 116.971,273.979 118.379 C 275.446 119.846,282.486 117.146,285.560 113.937 C 290.104 109.194,286.625 107.438,279.812 111.036 M733.000 111.022 C 733.000 112.342,734.631 114.079,737.696 116.022 C 745.464 120.948,750.192 119.352,744.250 113.809 C 738.810 108.735,733.000 107.296,733.000 111.022 M284.603 122.140 C 276.750 127.341,274.941 132.194,280.348 133.551 C 285.978 134.964,300.277 124.771,298.642 120.510 C 297.569 117.713,289.950 118.598,284.603 122.140 M723.667 119.667 C 720.128 123.205,732.806 134.000,740.500 134.000 C 743.585 134.000,745.421 131.648,744.155 129.314 C 742.490 126.242,737.684 122.183,733.782 120.553 C 729.938 118.947,724.833 118.500,723.667 119.667 M505.223 123.557 C 504.000 124.413,503.000 125.684,503.000 126.382 C 503.000 127.080,501.875 128.708,500.500 130.000 C 497.058 133.234,497.222 137.168,500.929 140.287 C 505.575 144.196,512.542 144.627,520.287 141.483 C 523.318 140.253,525.197 135.527,523.840 132.548 C 523.201 131.147,522.355 130.000,521.960 130.000 C 521.565 130.000,519.386 128.200,517.119 126.000 C 512.601 121.615,509.039 120.884,505.223 123.557 M406.750 136.572 C 404.877 137.588,404.000 138.864,404.000 140.572 C 404.000 141.952,403.072 144.336,401.938 145.870 C 399.080 149.735,400.128 153.358,404.736 155.545 C 411.457 158.734,421.569 155.615,425.317 149.196 C 427.100 146.145,427.111 145.819,425.525 143.398 C 424.601 141.987,422.381 140.222,420.593 139.474 C 418.804 138.727,416.759 137.415,416.048 136.558 C 414.432 134.611,410.353 134.617,406.750 136.572 M603.835 136.990 C 602.551 138.085,600.263 139.918,598.750 141.063 C 590.566 147.260,601.760 158.369,614.471 156.664 C 618.703 156.096,622.000 153.164,622.000 149.966 C 622.000 148.969,620.937 146.881,619.637 145.327 C 618.337 143.772,616.955 141.483,616.566 140.239 C 615.801 137.795,611.303 135.000,608.135 135.000 C 607.054 135.000,605.119 135.896,603.835 136.990 M299.013 138.744 C 294.967 139.488,291.000 142.866,291.000 145.568 C 291.000 147.670,291.464 148.000,294.423 148.000 C 298.705 148.000,304.245 143.685,303.802 140.696 C 303.465 138.418,302.633 138.079,299.013 138.744 M716.517 139.972 C 714.741 142.845,722.367 148.522,727.077 147.832 C 730.480 147.334,730.508 145.354,727.159 142.005 C 724.958 139.804,723.213 139.000,720.636 139.000 C 718.701 139.000,716.848 139.437,716.517 139.972 M169.775 166.288 C 165.969 169.570,161.000 175.746,161.000 177.194 C 161.000 177.637,161.864 178.000,162.920 178.000 C 165.130 178.000,177.000 166.551,177.000 164.420 C 177.000 162.045,173.708 162.895,169.775 166.288 M844.000 163.514 C 844.000 167.429,857.842 180.491,859.857 178.477 C 860.847 177.486,853.542 167.963,849.988 165.611 C 846.268 163.149,844.000 162.355,844.000 163.514 M505.596 167.306 C 503.015 169.193,503.899 173.194,507.250 174.795 C 509.521 175.880,510.479 175.880,512.750 174.795 C 518.168 172.206,516.228 166.000,510.000 166.000 C 508.560 166.000,506.579 166.588,505.596 167.306 M314.150 175.527 C 311.949 177.379,311.148 178.917,311.155 181.277 C 311.160 183.050,310.849 185.980,310.463 187.789 C 309.406 192.747,311.919 195.000,318.505 195.000 C 322.625 195.000,324.507 194.414,327.600 192.167 C 332.591 188.541,333.616 187.216,334.450 183.315 C 335.293 179.369,332.410 176.000,328.191 176.000 C 326.646 176.000,324.509 175.339,323.441 174.532 C 320.570 172.360,317.526 172.686,314.150 175.527 M697.072 174.414 C 696.348 175.286,694.771 176.000,693.569 176.000 C 689.711 176.000,687.586 178.393,687.706 182.602 C 687.969 191.888,705.498 199.970,710.656 193.184 C 712.383 190.912,712.325 186.811,710.532 184.441 C 709.724 183.374,709.049 181.566,709.032 180.424 C 708.960 175.707,699.813 171.110,697.072 174.414 M417.675 179.447 C 416.480 180.353,415.963 181.807,416.175 183.665 C 416.450 186.065,417.010 186.549,419.821 186.819 C 425.727 187.385,430.154 182.554,426.800 179.200 C 425.190 177.590,419.937 177.732,417.675 179.447 M593.200 179.200 C 590.040 182.360,593.802 187.000,599.523 187.000 C 604.872 187.000,606.574 183.574,603.000 180.000 C 600.761 177.761,595.101 177.299,593.200 179.200 M183.368 185.368 C 178.660 190.077,177.752 193.000,180.997 193.000 C 183.969 193.000,191.000 186.241,191.000 183.384 C 191.000 179.736,188.298 180.438,183.368 185.368 M829.000 183.000 C 829.000 187.343,839.548 195.158,841.389 192.179 C 842.267 190.759,838.158 185.067,834.759 182.995 C 830.623 180.473,829.000 180.475,829.000 183.000 M195.899 190.146 C 190.736 193.740,186.929 198.983,186.674 202.851 C 186.523 205.152,186.927 205.541,189.752 205.813 C 192.536 206.082,193.770 205.361,198.335 200.795 C 203.937 195.194,205.914 190.807,203.921 188.404 C 202.223 186.359,200.939 186.638,195.899 190.146 M818.034 188.459 C 813.561 193.849,829.361 210.246,834.740 205.797 C 837.749 203.308,832.399 194.485,825.054 189.822 C 819.916 186.560,819.652 186.509,818.034 188.459 M208.763 206.552 C 203.596 209.380,201.607 217.000,206.036 217.000 C 208.985 217.000,215.209 210.500,214.827 207.819 C 214.426 205.001,212.378 204.573,208.763 206.552 M805.408 206.378 C 805.073 207.253,805.631 209.365,806.649 211.071 C 810.132 216.908,817.000 218.883,817.000 214.047 C 817.000 209.269,806.871 202.568,805.408 206.378 M335.873 213.973 C 333.385 216.461,333.077 217.276,333.985 218.973 C 335.396 221.608,341.031 221.728,343.345 219.171 C 345.447 216.849,345.490 212.402,343.418 211.607 C 340.481 210.480,338.857 210.989,335.873 213.973 M676.750 212.080 C 672.465 214.576,676.373 221.333,682.101 221.333 C 687.582 221.333,688.498 217.438,683.923 213.589 C 680.576 210.773,679.414 210.528,676.750 212.080 M504.820 215.496 C 503.880 217.558,503.998 218.340,505.496 219.996 C 507.761 222.498,512.160 222.585,514.345 220.171 C 517.800 216.353,515.665 213.000,509.779 213.000 C 506.674 213.000,505.744 213.469,504.820 215.496 M432.000 223.336 C 428.206 224.598,426.851 227.910,429.046 230.555 C 431.805 233.879,440.421 230.847,439.807 226.768 C 439.298 223.388,436.088 221.977,432.000 223.336 M581.946 224.054 C 580.876 225.124,580.000 226.450,580.000 227.000 C 580.000 229.006,584.072 232.000,586.800 232.000 C 590.181 232.000,592.000 230.376,592.000 227.359 C 592.000 224.852,591.273 224.226,586.913 222.975 C 584.494 222.281,583.503 222.497,581.946 224.054 M503.500 227.216 C 491.955 233.882,497.081 249.000,510.885 249.000 C 519.555 249.000,525.000 244.457,525.000 237.222 C 525.000 233.374,524.492 232.257,521.429 229.368 C 518.157 226.282,517.340 226.003,511.679 226.030 C 508.280 226.047,504.600 226.580,503.500 227.216 M234.561 236.712 C 232.087 239.186,231.213 242.880,232.740 244.407 C 233.147 244.814,233.485 247.241,233.490 249.800 C 233.499 253.832,233.851 254.622,236.133 255.725 C 237.623 256.445,240.100 256.730,241.839 256.382 C 249.173 254.915,257.734 243.109,255.071 238.133 C 253.422 235.052,251.239 234.293,243.811 234.218 C 237.919 234.159,236.816 234.457,234.561 236.712 M435.743 235.626 C 429.254 237.588,425.474 243.041,426.305 249.238 C 427.802 260.399,445.469 262.068,451.903 251.656 C 458.302 241.304,448.645 231.725,435.743 235.626 M770.132 235.354 C 761.387 239.256,771.559 257.000,782.541 257.000 C 787.866 257.000,789.260 254.408,788.435 246.039 C 787.469 236.235,785.945 234.511,778.199 234.461 C 774.911 234.440,771.281 234.842,770.132 235.354 M573.420 236.885 C 569.722 239.141,567.514 243.929,568.452 247.663 C 568.825 249.149,570.806 252.041,572.854 254.090 C 584.258 265.493,603.391 253.742,594.167 241.000 C 590.009 235.255,579.508 233.173,573.420 236.885 M359.000 254.000 C 356.731 256.269,356.565 257.318,358.035 260.066 C 359.796 263.355,365.808 262.097,368.012 257.977 C 369.622 254.968,367.612 252.000,363.965 252.000 C 362.333 252.000,360.101 252.899,359.000 254.000 M652.571 253.571 C 650.440 255.703,650.583 256.674,653.455 259.545 C 657.324 263.415,663.000 262.377,663.000 257.800 C 663.000 253.194,655.849 250.294,652.571 253.571 M507.308 261.194 C 504.533 262.536,503.723 264.614,505.027 267.050 C 507.346 271.384,512.667 271.199,515.402 266.689 C 516.304 265.202,515.999 264.443,513.694 262.439 C 510.575 259.728,510.410 259.696,507.308 261.194 M93.541 264.134 C 89.936 268.418,87.000 274.400,87.000 277.460 C 87.000 282.596,90.098 279.799,95.264 270.000 C 99.872 261.260,98.859 257.813,93.541 264.134 M370.684 262.447 C 357.915 267.008,356.021 282.774,367.859 285.962 C 377.030 288.432,386.987 280.998,386.996 271.673 C 386.999 268.774,386.292 267.138,384.077 264.923 C 382.469 263.315,380.256 262.000,379.159 262.000 C 378.061 262.000,376.564 261.794,375.832 261.542 C 375.099 261.290,372.783 261.697,370.684 262.447 M638.394 265.406 C 635.074 268.726,634.794 269.430,635.299 273.191 C 635.604 275.466,636.700 278.491,637.735 279.913 C 639.932 282.933,647.398 287.000,650.744 287.000 C 655.237 287.000,659.598 284.366,661.404 280.562 C 662.941 277.323,662.992 276.384,661.826 272.779 C 659.886 266.782,654.484 262.788,647.532 262.211 C 642.295 261.777,641.877 261.923,638.394 265.406 M923.000 262.480 C 923.000 264.350,926.915 272.322,929.795 276.316 C 932.212 279.668,933.586 280.814,934.314 280.086 C 935.042 279.358,935.042 278.350,934.314 276.770 C 933.738 275.522,932.654 273.150,931.904 271.500 C 929.824 266.924,925.925 262.000,924.381 262.000 C 923.622 262.000,923.000 262.216,923.000 262.480 M265.636 267.636 C 262.786 270.487,262.302 272.902,264.200 274.800 C 266.084 276.684,269.462 276.210,271.677 273.750 C 274.807 270.274,275.178 269.202,274.011 267.021 C 272.509 264.213,268.786 264.487,265.636 267.636 M747.200 266.200 C 744.583 268.817,746.072 273.469,750.212 275.610 C 752.927 277.013,753.346 276.997,755.091 275.418 C 757.701 273.056,757.486 270.759,754.364 267.636 C 751.513 264.786,749.098 264.302,747.200 266.200 M442.750 270.080 C 440.325 271.492,440.445 276.633,442.934 277.965 C 445.805 279.501,447.767 279.233,450.000 277.000 C 452.408 274.592,452.535 272.678,450.429 270.571 C 448.644 268.787,445.334 268.575,442.750 270.080 M569.571 270.571 C 567.465 272.678,567.592 274.592,570.000 277.000 C 573.624 280.624,579.000 278.832,579.000 274.000 C 579.000 269.418,572.932 267.211,569.571 270.571 M112.299 277.250 C 109.858 279.930,108.511 282.521,107.619 286.250 C 106.558 290.691,110.369 289.854,113.994 284.850 C 118.886 278.096,117.439 271.607,112.299 277.250 M903.324 276.597 C 902.551 278.614,906.964 286.900,909.822 288.798 C 911.720 290.058,912.049 290.036,912.596 288.612 C 913.584 286.036,912.214 282.314,908.882 278.518 C 905.469 274.631,904.242 274.207,903.324 276.597 M125.084 280.583 C 118.805 285.866,114.669 298.168,118.657 299.699 C 123.376 301.510,132.313 289.810,131.787 282.509 C 131.427 277.508,129.423 276.932,125.084 280.583 M889.889 280.750 C 889.429 288.024,893.210 295.509,899.371 299.520 C 902.183 301.350,902.272 301.349,903.650 299.464 C 905.275 297.241,904.696 293.358,901.922 287.876 C 898.527 281.167,890.176 276.221,889.889 280.750 M139.984 295.017 C 136.925 298.292,135.841 304.166,138.044 305.527 C 141.145 307.444,148.377 297.406,146.284 294.089 C 144.655 291.505,143.043 291.743,139.984 295.017 M875.250 292.718 C 872.248 293.795,875.084 302.904,879.088 305.047 C 882.476 306.860,884.267 305.516,883.481 301.751 C 882.272 295.950,878.323 291.617,875.250 292.718 M384.762 294.053 C 380.741 296.443,380.380 301.063,384.061 303.032 C 388.278 305.289,393.851 299.175,391.295 295.095 C 390.071 293.141,387.095 292.666,384.762 294.053 M629.571 294.571 C 627.193 296.949,627.637 300.532,630.546 302.438 C 633.481 304.361,636.529 303.749,638.036 300.932 C 639.266 298.635,637.940 295.573,635.043 294.023 C 632.439 292.629,631.411 292.732,629.571 294.571 M299.223 299.557 C 296.235 301.650,296.087 307.575,299.000 308.500 C 302.035 309.463,304.863 308.166,306.460 305.078 C 307.718 302.645,307.710 302.030,306.392 300.149 C 304.611 297.607,302.281 297.415,299.223 299.557 M713.608 300.149 C 710.743 304.240,715.871 310.128,720.908 308.529 C 726.492 306.757,722.404 298.000,715.992 298.000 C 715.509 298.000,714.436 298.967,713.608 300.149 M314.500 305.526 C 304.622 308.960,300.020 321.913,306.513 328.012 C 312.402 333.545,323.431 330.290,327.843 321.716 C 330.765 316.039,330.244 311.531,326.238 307.804 C 322.641 304.459,319.387 303.827,314.500 305.526 M698.308 306.010 C 692.684 308.275,690.970 317.423,695.057 323.368 C 698.317 328.110,701.812 330.276,707.013 330.775 C 712.865 331.338,716.430 329.256,718.057 324.329 C 721.727 313.207,709.227 301.612,698.308 306.010 M506.750 310.080 C 504.740 311.251,504.401 316.001,506.200 317.800 C 506.860 318.460,508.570 319.000,510.000 319.000 C 513.189 319.000,515.000 317.323,515.000 314.371 C 515.000 310.041,510.677 307.793,506.750 310.080 M184.000 312.458 C 182.625 313.221,180.373 313.620,178.996 313.346 C 175.874 312.726,172.307 316.215,171.393 320.783 C 170.910 323.202,171.147 324.119,172.378 324.592 C 173.409 324.987,174.000 326.387,174.000 328.433 C 174.000 332.234,177.469 336.000,180.970 336.000 C 189.529 336.000,197.785 318.785,192.000 313.000 C 189.672 310.672,187.486 310.524,184.000 312.458 M829.747 313.727 C 824.111 319.955,832.521 336.000,841.420 336.000 C 845.773 336.000,847.490 333.370,848.392 325.313 C 849.046 319.473,848.929 318.957,846.292 316.098 C 843.983 313.593,842.462 312.959,837.497 312.433 C 832.343 311.887,831.246 312.071,829.747 313.727 M454.452 318.433 C 452.463 321.469,453.855 324.675,457.569 325.607 C 462.198 326.768,466.099 320.499,462.800 317.200 C 460.707 315.107,456.194 315.774,454.452 318.433 M557.750 317.080 C 555.574 318.347,555.477 322.335,557.571 324.429 C 560.772 327.629,566.000 325.503,566.000 321.000 C 566.000 316.768,561.751 314.750,557.750 317.080 M332.073 334.635 C 329.479 337.932,329.472 339.212,332.030 341.527 C 334.732 343.972,339.088 342.536,340.415 338.762 C 341.165 336.628,340.979 335.634,339.527 334.030 C 337.036 331.277,334.555 331.479,332.073 334.635 M680.655 333.829 C 678.350 336.375,678.591 339.600,681.223 341.443 C 684.159 343.500,686.320 343.409,688.373 341.140 C 690.406 338.894,689.242 334.735,686.114 333.061 C 683.386 331.601,682.567 331.716,680.655 333.829 M212.323 337.250 C 209.628 340.244,209.094 342.046,210.099 344.750 C 211.121 347.499,215.018 347.773,217.211 345.250 C 219.651 342.441,220.224 338.366,218.429 336.572 C 216.280 334.423,214.711 334.597,212.323 337.250 M409.228 336.107 C 406.502 337.120,405.574 339.167,406.381 342.383 C 407.594 347.216,416.019 345.763,415.985 340.727 C 415.956 336.571,413.148 334.650,409.228 336.107 M803.000 335.785 C 799.611 336.948,799.479 341.639,802.733 345.250 C 806.871 349.842,813.045 344.771,809.642 339.576 C 807.677 336.577,805.054 335.080,803.000 335.785 M604.180 338.083 C 603.089 339.830,603.135 340.557,604.463 342.583 C 606.075 345.045,606.956 345.399,610.500 345.012 C 612.750 344.767,613.962 343.309,613.985 340.821 C 614.026 336.297,606.592 334.221,604.180 338.083 M505.450 355.407 C 495.456 359.760,493.422 371.773,501.480 378.848 C 510.905 387.124,525.985 380.696,525.996 368.398 C 526.006 358.215,514.991 351.251,505.450 355.407 M252.061 360.939 C 249.617 363.383,249.378 367.239,251.560 369.050 C 253.867 370.965,258.243 369.094,259.444 365.679 C 261.338 360.292,256.083 356.917,252.061 360.939 M467.218 360.606 C 462.813 362.854,459.824 367.290,459.312 372.341 C 458.704 378.348,461.369 382.848,467.342 385.895 C 471.822 388.180,472.534 388.272,476.842 387.123 C 488.857 383.920,492.693 370.828,484.044 362.543 C 480.254 358.911,472.328 357.999,467.218 360.606 M543.500 359.850 C 534.935 362.635,531.247 372.973,536.024 380.808 C 538.149 384.292,544.717 387.940,548.934 387.978 C 550.273 387.990,553.365 387.033,555.806 385.852 C 561.311 383.187,564.492 377.138,563.413 371.385 C 561.820 362.895,551.867 357.129,543.500 359.850 M761.200 360.200 C 759.434 361.966,759.740 366.458,761.750 368.255 C 767.484 373.381,773.230 366.844,767.961 361.189 C 765.700 358.761,763.029 358.371,761.200 360.200 M269.415 362.421 C 262.748 365.324,258.742 374.160,260.997 380.990 C 265.166 393.624,283.150 388.719,284.752 374.510 C 285.917 364.169,278.617 358.415,269.415 362.421 M742.420 362.849 C 731.571 369.594,739.015 389.000,752.452 389.000 C 753.836 389.000,756.370 387.748,758.083 386.218 C 768.718 376.714,754.424 355.386,742.420 362.849 M366.575 368.918 C 364.514 371.194,364.822 374.871,367.197 376.359 C 370.023 378.131,374.439 375.995,374.822 372.671 C 375.434 367.367,370.153 364.963,366.575 368.918 M645.408 369.500 C 643.891 371.816,643.891 372.184,645.408 374.500 C 647.193 377.224,651.681 377.919,653.800 375.800 C 656.772 372.828,653.722 367.000,649.194 367.000 C 648.006 367.000,646.314 368.118,645.408 369.500 M433.180 374.682 C 424.743 378.839,422.000 389.377,427.483 396.566 C 430.533 400.565,433.486 402.000,438.664 402.000 C 446.738 402.000,453.021 396.206,453.715 388.122 C 454.651 377.205,443.230 369.729,433.180 374.682 M577.500 374.365 C 562.884 381.087,567.803 402.000,584.000 402.000 C 598.493 402.000,603.134 384.675,591.000 375.870 C 587.566 373.378,581.191 372.667,577.500 374.365 M44.625 378.862 C 42.285 381.448,40.996 386.502,41.022 392.993 L 41.044 398.500 42.922 396.058 C 45.094 393.231,46.736 388.209,47.637 381.629 C 48.323 376.627,47.408 375.786,44.625 378.862 M974.000 381.867 C 974.000 387.444,977.579 397.000,979.668 397.000 C 980.774 397.000,980.932 395.896,980.417 391.750 C 979.755 386.424,976.138 377.000,974.756 377.000 C 974.340 377.000,974.000 379.190,974.000 381.867 M293.073 385.635 C 290.494 388.912,290.473 390.213,292.960 392.464 C 295.532 394.792,299.296 393.841,300.829 390.477 C 302.355 387.126,302.310 386.453,300.429 384.571 C 298.118 382.261,295.420 382.651,293.073 385.635 M719.571 384.571 C 717.580 386.563,717.575 388.948,719.557 391.777 C 721.383 394.384,725.177 394.681,727.463 392.395 C 729.390 390.468,728.690 387.247,725.802 384.750 C 723.299 382.585,721.606 382.537,719.571 384.571 M65.348 387.591 C 63.227 390.829,62.818 400.070,64.767 400.742 C 65.518 401.000,66.867 399.295,68.078 396.557 C 71.515 388.787,69.310 381.545,65.348 387.591 M78.689 388.250 C 73.860 394.755,72.442 404.280,75.846 407.360 C 77.576 408.926,77.856 408.901,80.323 406.960 C 84.615 403.585,87.414 391.510,84.965 386.934 C 83.462 384.127,81.434 384.552,78.689 388.250 M936.479 388.042 C 935.049 390.806,935.048 391.648,936.475 397.292 C 939.172 407.959,944.386 412.310,946.977 406.055 C 949.522 399.912,943.478 385.000,938.444 385.000 C 938.228 385.000,937.344 386.369,936.479 388.042 M951.100 386.379 C 949.780 387.971,950.309 391.515,952.724 397.250 C 954.099 400.515,956.856 402.415,957.077 400.250 C 957.119 399.838,957.301 398.733,957.481 397.795 C 958.011 395.043,955.933 388.250,954.037 386.533 C 952.526 385.166,952.124 385.145,951.100 386.379 M99.229 394.725 C 95.986 395.888,93.847 404.644,95.987 408.000 C 96.724 409.156,97.351 409.248,98.722 408.402 C 104.023 405.129,104.479 392.841,99.229 394.725 M917.400 397.543 C 916.616 400.666,918.858 406.888,921.309 408.391 C 923.902 409.981,926.278 406.598,925.431 402.519 C 923.970 395.484,918.731 392.238,917.400 397.543 M402.241 397.995 C 392.761 403.774,392.566 418.622,401.906 423.451 C 410.992 428.150,422.577 421.450,423.671 410.864 C 424.826 399.674,412.061 392.007,402.241 397.995 M608.500 396.801 C 602.240 398.990,599.000 403.753,599.000 410.766 C 599.000 415.923,599.270 416.533,603.368 420.632 C 607.402 424.665,608.134 425.000,612.918 425.000 C 622.433 425.000,627.351 420.372,627.446 411.326 C 627.504 405.799,625.702 402.360,620.852 398.739 C 618.108 396.690,611.694 395.684,608.500 396.801 M144.000 403.195 C 142.075 404.398,140.050 405.453,139.500 405.539 C 138.950 405.625,137.949 405.764,137.276 405.848 C 135.725 406.041,133.000 411.235,133.000 413.998 C 133.000 415.152,134.026 417.087,135.280 418.298 C 136.533 419.509,138.102 421.744,138.765 423.265 C 140.539 427.333,143.968 428.585,147.844 426.580 C 153.124 423.850,156.862 413.932,154.886 407.897 C 153.744 404.404,150.655 400.997,148.639 401.004 C 148.013 401.006,145.925 401.992,144.000 403.195 M869.825 403.038 C 864.665 406.049,865.609 418.322,871.479 424.546 C 876.964 430.362,880.502 429.142,884.846 419.934 C 888.486 412.218,887.266 408.578,879.688 404.549 C 874.545 401.814,872.468 401.496,869.825 403.038 M506.706 408.772 C 503.482 412.334,505.139 417.000,509.629 417.000 C 513.643 417.000,516.292 412.579,514.225 409.329 C 512.791 407.075,508.528 406.759,506.706 408.772 M335.200 409.200 C 334.540 409.860,334.000 411.570,334.000 413.000 C 334.000 418.301,339.693 419.925,342.619 415.459 C 344.962 411.883,343.193 408.000,339.221 408.000 C 337.670 408.000,335.860 408.540,335.200 409.200 M677.035 409.934 C 675.539 412.730,675.754 414.467,677.829 416.345 C 681.305 419.491,686.000 417.831,686.000 413.455 C 686.000 408.806,679.091 406.093,677.035 409.934 M479.847 413.436 C 478.432 416.543,479.277 418.713,482.468 420.167 C 484.564 421.122,485.332 421.010,486.996 419.504 C 490.873 415.995,488.983 411.000,483.779 411.000 C 481.759 411.000,480.642 411.693,479.847 413.436 M532.200 412.200 C 530.249 414.151,530.746 418.794,533.038 420.020 C 536.995 422.138,541.814 418.367,540.319 414.322 C 539.076 410.958,534.610 409.790,532.200 412.200 M177.557 419.223 C 174.688 423.318,176.017 430.000,179.700 430.000 C 182.151 430.000,185.000 426.076,185.000 422.700 C 185.000 417.041,180.543 414.959,177.557 419.223 M836.750 418.080 C 833.115 420.197,835.670 430.000,839.857 430.000 C 844.211 430.000,845.563 423.055,841.961 419.189 C 839.672 416.732,839.227 416.637,836.750 418.080 M456.035 422.934 C 454.401 425.988,454.806 427.826,457.500 429.592 C 459.816 431.109,460.184 431.109,462.500 429.592 C 465.179 427.837,465.816 424.216,463.800 422.200 C 461.899 420.299,457.208 420.742,456.035 422.934 M556.200 422.200 C 554.865 423.535,554.634 426.921,555.765 428.573 C 556.976 430.342,560.026 431.057,561.955 430.024 C 564.426 428.702,565.126 426.462,563.997 423.491 C 563.296 421.648,562.315 421.000,560.225 421.000 C 558.671 421.000,556.860 421.540,556.200 422.200 M382.001 426.123 C 373.425 429.543,369.533 439.931,373.827 447.938 C 377.865 455.467,388.931 457.258,395.170 451.392 C 403.593 443.474,402.414 431.799,392.718 427.105 C 387.966 424.805,385.803 424.607,382.001 426.123 M628.841 427.467 C 625.169 429.540,621.928 435.149,621.745 439.746 C 621.384 448.779,630.214 456.978,638.622 455.420 C 643.721 454.475,649.590 448.701,650.527 443.708 C 651.366 439.238,648.007 431.697,643.824 428.662 C 640.330 426.126,632.343 425.489,628.841 427.467 M238.682 430.263 C 232.187 436.389,231.410 446.016,236.933 451.928 C 244.260 459.772,257.000 451.871,257.000 439.482 C 257.000 428.433,246.321 423.059,238.682 430.263 M771.000 428.711 C 763.803 432.390,762.981 444.914,769.507 451.440 C 776.009 457.943,784.311 456.679,787.503 448.702 C 789.950 442.584,788.798 436.763,784.170 431.873 C 779.725 427.176,775.831 426.241,771.000 428.711 M221.975 432.046 C 221.373 433.172,221.020 435.534,221.190 437.296 C 221.453 440.014,221.947 440.551,224.451 440.836 C 228.036 441.244,230.000 438.971,230.000 434.416 C 230.000 429.769,224.123 428.033,221.975 432.046 M790.997 431.503 C 789.106 433.782,789.502 437.947,791.833 440.277 C 793.610 442.054,794.288 442.190,796.458 441.201 C 798.466 440.286,799.000 439.318,799.000 436.593 C 799.000 431.039,794.014 427.868,790.997 431.503 M436.000 438.000 C 434.900 439.100,434.000 440.605,434.000 441.345 C 434.000 443.314,437.331 446.000,439.772 446.000 C 441.690 446.000,445.000 442.694,445.000 440.777 C 445.000 439.422,441.061 436.000,439.500 436.000 C 438.675 436.000,437.100 436.900,436.000 438.000 M577.000 438.000 C 575.900 439.100,575.000 440.675,575.000 441.500 C 575.000 443.061,578.422 447.000,579.777 447.000 C 581.811 447.000,585.000 443.642,585.000 441.500 C 585.000 439.358,581.811 436.000,579.777 436.000 C 579.350 436.000,578.100 436.900,577.000 438.000 M269.000 444.000 C 264.836 448.164,268.459 455.404,273.405 452.803 C 277.635 450.578,278.310 446.031,274.777 443.557 C 271.917 441.553,271.408 441.592,269.000 444.000 M743.950 445.093 C 742.381 448.025,743.600 451.861,746.524 453.193 C 751.056 455.258,754.606 449.870,751.965 444.934 C 750.519 442.232,745.427 442.333,743.950 445.093 M316.250 456.534 C 313.631 458.372,313.306 462.163,315.571 464.429 C 317.899 466.756,320.731 466.340,322.667 463.385 C 324.203 461.041,324.228 460.497,322.906 458.142 C 321.099 454.922,319.200 454.463,316.250 456.534 M698.065 456.667 C 695.809 458.247,695.420 461.047,697.035 464.066 C 699.661 468.972,707.553 463.704,705.227 458.598 C 703.885 455.654,700.727 454.802,698.065 456.667 M506.881 457.895 C 504.869 459.525,504.680 460.191,505.539 462.645 C 507.298 467.678,515.000 466.590,515.000 461.309 C 515.000 459.832,511.471 456.000,510.111 456.000 C 509.622 456.000,508.168 456.853,506.881 457.895 M420.200 458.200 C 418.039 460.361,418.750 464.929,421.436 466.153 C 424.543 467.568,426.713 466.723,428.167 463.532 C 429.122 461.436,429.010 460.668,427.504 459.004 C 425.474 456.761,422.019 456.381,420.200 458.200 M592.473 459.030 C 589.830 461.951,591.466 466.377,595.354 466.825 C 600.195 467.383,602.757 461.900,599.171 458.655 C 596.739 456.454,594.701 456.568,592.473 459.030 M493.655 459.829 C 490.316 463.518,492.499 468.497,497.162 467.827 C 498.411 467.647,500.108 466.293,500.933 464.818 C 502.303 462.370,502.271 461.957,500.562 460.068 C 498.250 457.514,495.826 457.429,493.655 459.829 M519.571 459.571 C 516.539 462.604,518.734 468.000,523.000 468.000 C 525.096 468.000,528.000 465.474,528.000 463.651 C 528.000 461.482,524.928 458.000,523.015 458.000 C 521.985 458.000,520.436 458.707,519.571 459.571 M365.389 461.905 C 355.272 468.073,355.045 482.822,364.984 488.137 C 369.341 490.467,373.494 490.502,377.980 488.248 C 388.204 483.112,388.797 467.626,378.981 462.109 C 374.330 459.495,369.460 459.422,365.389 461.905 M645.500 461.553 C 643.300 462.332,641.406 462.977,641.292 462.985 C 641.178 462.993,639.884 465.048,638.418 467.550 C 633.911 475.241,636.189 483.853,643.930 488.386 C 650.382 492.164,657.395 490.370,662.406 483.659 C 665.266 479.828,665.089 471.338,662.061 467.086 C 658.123 461.555,651.623 459.383,645.500 461.553 M481.750 464.080 C 479.740 465.251,479.401 470.001,481.200 471.800 C 482.967 473.567,486.454 473.260,488.345 471.171 C 490.508 468.781,490.433 467.433,488.000 465.000 C 485.778 462.778,484.347 462.567,481.750 464.080 M531.881 464.895 C 529.869 466.525,529.680 467.191,530.539 469.645 C 532.305 474.696,540.000 473.791,540.000 468.533 C 540.000 466.272,537.209 463.000,535.282 463.000 C 534.699 463.000,533.168 463.853,531.881 464.895 M470.655 472.829 C 468.454 475.261,468.568 477.299,471.030 479.527 C 473.999 482.214,478.377 480.533,478.836 476.531 C 479.400 471.607,473.980 469.155,470.655 472.829 M542.000 473.000 C 540.900 474.100,540.000 475.350,540.000 475.777 C 540.000 477.811,543.358 481.000,545.500 481.000 C 547.642 481.000,551.000 477.811,551.000 475.777 C 551.000 474.422,547.061 471.000,545.500 471.000 C 544.675 471.000,543.100 471.900,542.000 473.000 M410.200 482.200 C 409.540 482.860,409.000 484.570,409.000 486.000 C 409.000 489.160,410.672 491.000,413.545 491.000 C 415.962 491.000,419.000 488.119,419.000 485.826 C 419.000 482.159,412.797 479.603,410.200 482.200 M602.571 482.571 C 599.162 485.980,601.751 491.383,606.531 490.836 C 610.533 490.377,612.214 485.999,609.527 483.030 C 607.327 480.599,604.716 480.427,602.571 482.571 M462.035 483.935 C 460.751 486.334,462.151 490.460,464.564 491.386 C 468.737 492.987,472.969 486.369,469.800 483.200 C 467.898 481.298,463.208 481.742,462.035 483.935 M550.200 483.200 C 548.208 485.192,548.750 489.796,551.126 491.068 C 554.387 492.812,558.000 490.791,558.000 487.221 C 558.000 483.870,556.388 482.000,553.500 482.000 C 552.345 482.000,550.860 482.540,550.200 483.200 M457.035 495.934 C 455.401 498.988,455.806 500.826,458.500 502.592 C 460.816 504.109,461.184 504.109,463.500 502.592 C 466.179 500.837,466.816 497.216,464.800 495.200 C 462.899 493.299,458.208 493.742,457.035 495.934 M554.667 496.065 C 551.755 500.222,555.890 505.282,560.488 503.188 C 565.088 501.092,563.553 494.000,558.500 494.000 C 557.187 494.000,555.463 494.929,554.667 496.065 M502.500 498.202 C 494.547 500.969,489.856 510.009,492.072 518.296 C 493.531 523.756,500.231 530.308,505.800 531.721 C 524.090 536.364,538.562 514.754,525.447 502.385 C 520.728 497.935,509.271 495.846,502.500 498.202 M352.310 500.077 C 347.765 502.988,344.633 509.871,345.506 515.033 C 346.793 522.652,354.169 528.643,361.116 527.711 C 371.284 526.347,376.932 515.342,372.248 506.020 C 368.511 498.582,359.048 495.761,352.310 500.077 M648.241 499.995 C 639.118 505.557,638.631 519.053,647.323 525.429 C 651.172 528.252,658.840 528.256,662.615 525.438 C 667.497 521.794,669.385 518.390,669.385 513.234 C 669.385 501.458,657.769 494.185,648.241 499.995 M124.573 501.924 C 117.813 508.979,121.202 526.000,129.366 526.000 C 132.630 526.000,136.632 521.137,137.475 516.147 C 138.746 508.625,134.119 499.000,129.233 499.000 C 128.210 499.000,126.114 500.316,124.573 501.924 M222.000 502.500 C 220.134 504.425,218.091 506.000,217.459 506.000 C 215.534 506.000,213.000 509.508,213.000 512.174 C 213.000 514.699,215.698 518.000,217.761 518.000 C 218.368 518.000,219.145 518.880,219.486 519.956 C 220.521 523.217,225.838 527.004,229.327 526.965 C 236.423 526.885,240.983 521.506,240.993 513.200 C 241.005 504.083,236.881 499.000,229.474 499.000 C 226.122 499.000,224.786 499.626,222.000 502.500 M778.490 502.310 C 769.902 510.898,775.332 527.000,786.815 527.000 C 794.940 527.000,800.390 515.655,796.610 506.610 C 794.385 501.285,791.263 499.000,786.211 499.000 C 782.551 499.000,781.236 499.564,778.490 502.310 M883.759 501.514 C 878.301 506.972,878.991 521.784,884.850 524.920 C 888.729 526.996,890.796 526.116,895.445 520.408 C 901.580 512.877,901.521 510.426,895.048 503.952 C 889.455 498.360,887.364 497.909,883.759 501.514 M58.526 503.950 C 56.297 508.260,56.544 517.740,58.989 521.750 C 61.389 525.687,62.245 525.775,64.927 522.365 C 67.578 518.995,67.908 506.742,65.443 503.223 C 63.266 500.114,60.351 500.421,58.526 503.950 M952.931 504.168 C 951.216 508.307,951.531 518.193,953.499 521.998 C 956.981 528.731,961.457 523.414,961.421 512.586 C 961.394 504.418,959.968 501.000,956.586 501.000 C 954.898 501.000,953.876 501.885,952.931 504.168 M992.382 502.500 C 991.348 504.907,991.290 521.624,992.312 522.645 C 995.305 525.639,997.311 510.095,994.720 503.987 C 993.381 500.831,993.159 500.690,992.382 502.500 M25.161 504.547 C 22.944 509.411,24.301 523.000,27.002 523.000 C 28.026 523.000,30.000 515.727,30.000 511.955 C 30.000 508.442,28.033 502.000,26.960 502.000 C 26.608 502.000,25.799 503.146,25.161 504.547 M50.219 505.750 C 49.823 506.713,49.524 509.864,49.553 512.753 C 49.643 521.723,53.744 522.587,54.700 513.837 C 55.458 506.902,52.177 500.981,50.219 505.750 M968.068 505.873 C 965.832 510.051,967.142 520.312,969.844 519.792 C 972.150 519.347,973.449 513.768,972.393 508.836 C 971.383 504.112,969.647 502.923,968.068 505.873 M83.128 508.500 C 81.817 513.247,83.397 519.000,86.012 519.000 C 88.376 519.000,90.000 516.149,90.000 512.000 C 90.000 504.787,84.874 502.176,83.128 508.500 M932.975 507.565 C 930.782 513.333,932.735 519.583,936.503 518.857 C 940.892 518.012,940.323 505.000,935.898 505.000 C 934.728 505.000,933.561 506.024,932.975 507.565 M168.200 507.200 C 167.540 507.860,167.000 510.020,167.000 512.000 C 167.000 516.113,168.440 518.000,171.579 518.000 C 173.057 518.000,174.157 517.035,175.000 515.000 C 177.438 509.115,172.243 503.157,168.200 507.200 M263.223 507.557 C 261.799 508.554,261.000 510.151,261.000 512.000 C 261.000 514.635,263.929 518.000,266.223 518.000 C 267.775 518.000,271.000 513.950,271.000 512.000 C 271.000 510.050,267.775 506.000,266.223 506.000 C 265.795 506.000,264.445 506.701,263.223 507.557 M312.204 507.570 C 308.142 510.415,309.800 517.000,314.578 517.000 C 319.223 517.000,320.569 510.092,316.454 507.377 C 314.713 506.228,314.078 506.257,312.204 507.570 M705.204 507.570 C 701.142 510.415,702.800 517.000,707.578 517.000 C 712.223 517.000,713.569 510.092,709.454 507.377 C 707.713 506.228,707.078 506.257,705.204 507.570 M753.039 508.189 C 750.415 511.005,750.471 512.274,753.370 515.644 C 755.689 518.340,755.798 518.363,758.370 516.677 C 761.524 514.610,761.921 510.143,759.171 507.655 C 756.743 505.457,755.481 505.567,753.039 508.189 M800.495 509.009 C 798.899 512.096,799.666 515.409,802.400 517.235 C 805.394 519.234,809.000 516.375,809.000 512.000 C 809.000 505.999,803.121 503.931,800.495 509.009 M847.557 508.223 C 845.516 511.136,845.591 513.273,847.831 516.040 C 851.927 521.098,857.596 515.327,855.066 508.674 C 853.776 505.281,849.785 505.042,847.557 508.223 M409.200 508.200 C 407.039 510.361,407.750 514.929,410.436 516.153 C 413.543 517.568,415.713 516.723,417.167 513.532 C 418.122 511.436,418.010 510.668,416.504 509.004 C 414.474 506.761,411.019 506.381,409.200 508.200 M458.571 508.571 C 455.571 511.572,457.725 517.000,461.916 517.000 C 464.057 517.000,467.000 513.956,467.000 511.743 C 467.000 509.580,464.280 507.000,462.000 507.000 C 460.979 507.000,459.436 507.707,458.571 508.571 M556.655 508.829 C 554.504 511.206,554.560 513.291,556.829 515.345 C 560.303 518.489,565.000 516.258,565.000 511.464 C 565.000 507.330,559.564 505.614,556.655 508.829 M605.408 509.500 C 603.891 511.816,603.891 512.184,605.408 514.500 C 608.137 518.665,614.000 517.072,614.000 512.165 C 614.000 506.743,608.361 504.994,605.408 509.500 M460.000 521.000 C 457.592 523.408,457.553 523.917,459.557 526.777 C 461.250 529.195,464.891 529.709,466.800 527.800 C 468.701 525.899,468.258 521.208,466.066 520.035 C 463.318 518.565,462.269 518.731,460.000 521.000 M552.655 520.829 C 550.471 523.242,550.565 525.296,552.960 527.464 C 554.288 528.666,555.733 529.033,557.444 528.603 C 560.800 527.761,561.889 523.640,559.464 520.960 C 557.244 518.507,554.798 518.460,552.655 520.829 M464.452 533.433 C 461.566 537.837,466.433 542.620,470.937 539.807 C 473.228 538.377,473.711 534.111,471.800 532.200 C 469.807 530.207,466.165 530.819,464.452 533.433 M547.003 533.491 C 545.192 538.256,548.700 541.827,553.063 539.660 C 557.910 537.253,556.315 531.000,550.853 531.000 C 548.680 531.000,547.712 531.626,547.003 533.491 M412.655 533.829 C 410.454 536.261,410.568 538.299,413.030 540.527 C 415.649 542.897,420.345 541.542,420.813 538.281 C 421.589 532.873,416.188 529.925,412.655 533.829 M600.200 533.200 C 598.039 535.361,598.750 539.929,601.436 541.153 C 604.543 542.568,606.713 541.723,608.167 538.532 C 609.122 536.436,609.010 535.668,607.504 534.004 C 605.474 531.761,602.019 531.381,600.200 533.200 M653.500 537.185 C 641.706 541.389,639.321 557.709,649.575 564.046 C 659.364 570.096,671.385 562.860,671.385 550.917 C 671.385 541.466,661.908 534.189,653.500 537.185 M360.500 537.801 C 354.344 539.953,351.000 544.770,351.000 551.487 C 351.000 564.986,365.947 571.841,375.005 562.495 C 381.004 556.305,379.956 544.906,372.913 539.748 C 370.103 537.690,363.693 536.684,360.500 537.801 M472.200 542.200 C 469.465 544.935,472.204 551.000,476.174 551.000 C 478.098 551.000,481.000 547.839,481.000 545.743 C 481.000 541.921,474.925 539.475,472.200 542.200 M540.200 542.200 C 538.381 544.019,538.761 547.474,541.004 549.504 C 544.885 553.016,550.561 547.785,548.020 543.038 C 546.794 540.746,542.151 540.249,540.200 542.200 M482.960 549.831 C 481.196 551.260,480.848 552.259,481.379 554.375 C 482.699 559.632,489.314 559.580,490.639 554.302 C 491.149 552.270,490.781 551.241,489.040 549.831 C 487.796 548.824,486.428 548.000,486.000 548.000 C 485.572 548.000,484.204 548.824,482.960 549.831 M532.000 548.729 C 528.553 550.041,527.869 555.324,530.934 556.965 C 533.647 558.417,535.602 558.255,537.429 556.429 C 539.535 554.322,539.408 552.408,537.000 550.000 C 534.909 547.909,534.457 547.794,532.000 548.729 M494.750 554.080 C 492.740 555.251,492.401 560.001,494.200 561.800 C 494.860 562.460,496.345 563.000,497.500 563.000 C 500.330 563.000,502.000 561.144,502.000 558.000 C 502.000 553.567,498.697 551.781,494.750 554.080 M518.565 554.928 C 515.088 558.771,519.775 564.335,524.626 562.124 C 527.673 560.736,527.953 555.581,525.066 554.035 C 522.239 552.523,520.529 552.757,518.565 554.928 M422.655 556.829 C 420.350 559.375,420.591 562.600,423.223 564.443 C 424.445 565.299,425.795 566.000,426.223 566.000 C 427.578 566.000,431.000 562.061,431.000 560.500 C 431.000 558.635,427.467 555.000,425.655 555.000 C 424.915 555.000,423.565 555.823,422.655 556.829 M506.035 556.934 C 504.401 559.988,504.806 561.826,507.500 563.592 C 509.816 565.109,510.184 565.109,512.500 563.592 C 513.875 562.691,515.000 561.096,515.000 560.048 C 515.000 555.528,508.075 553.123,506.035 556.934 M590.575 556.918 C 587.060 560.802,590.212 565.916,595.330 564.632 C 598.799 563.761,599.932 559.687,597.464 556.960 C 595.219 554.480,592.794 554.465,590.575 556.918 M317.378 559.545 C 315.959 561.711,315.905 562.454,317.015 564.529 C 319.655 569.460,326.000 568.406,326.000 563.036 C 326.000 557.266,320.366 554.985,317.378 559.545 M695.200 558.200 C 694.540 558.860,694.000 560.895,694.000 562.721 C 694.000 565.292,694.564 566.300,696.496 567.180 C 698.558 568.120,699.340 568.002,700.996 566.504 C 704.701 563.151,703.085 557.000,698.500 557.000 C 697.345 557.000,695.860 557.540,695.200 558.200 M271.223 570.557 C 268.448 572.500,268.371 575.948,271.039 578.811 C 273.451 581.401,275.280 581.577,277.429 579.429 C 279.593 577.264,279.397 573.397,277.000 571.000 C 274.592 568.592,274.083 568.553,271.223 570.557 M742.655 570.829 C 737.834 576.156,743.515 583.576,748.556 578.535 C 751.523 575.568,751.637 573.637,749.000 571.000 C 746.517 568.517,744.789 568.470,742.655 570.829 M233.190 572.983 C 231.369 574.116,229.264 576.496,228.512 578.272 C 227.760 580.047,226.212 582.066,225.072 582.758 C 220.823 585.339,222.910 591.285,229.002 593.956 C 230.376 594.558,233.073 596.194,234.995 597.591 C 237.805 599.633,239.177 600.002,241.995 599.476 C 243.923 599.116,246.092 598.332,246.816 597.733 C 251.223 594.091,252.402 583.811,249.044 578.304 C 245.126 571.879,238.523 569.663,233.190 572.983 M777.041 573.619 C 772.700 577.271,771.000 581.052,771.000 587.050 C 771.000 591.573,771.414 592.614,774.400 595.600 C 779.309 600.509,783.611 600.315,790.672 594.867 C 796.767 590.165,797.878 587.465,795.597 582.893 C 794.718 581.133,794.000 579.133,794.000 578.450 C 794.000 577.766,792.409 575.811,790.465 574.104 C 785.926 570.118,781.395 569.955,777.041 573.619 M375.741 574.438 C 370.638 576.247,369.000 577.767,366.796 582.738 C 360.899 596.039,378.008 609.212,389.199 599.988 C 395.947 594.425,396.585 586.014,390.763 579.382 C 386.137 574.114,381.218 572.495,375.741 574.438 M635.371 575.436 C 625.155 581.704,625.611 596.085,636.200 601.595 C 639.629 603.379,642.858 603.375,647.148 601.583 C 650.994 599.976,653.043 597.914,655.379 593.300 C 661.645 580.926,647.299 568.117,635.371 575.436 M438.000 577.000 C 435.691 579.309,435.488 580.982,437.250 583.169 C 439.179 585.563,441.563 585.994,443.885 584.368 C 446.647 582.434,446.593 578.529,443.777 576.557 C 440.917 574.553,440.408 574.592,438.000 577.000 M575.000 577.000 C 573.900 578.100,573.000 579.605,573.000 580.345 C 573.000 582.314,576.331 585.000,578.772 585.000 C 580.690 585.000,584.000 581.694,584.000 579.777 C 584.000 578.422,580.061 575.000,578.500 575.000 C 577.675 575.000,576.100 575.900,575.000 577.000 M457.438 593.068 C 455.729 594.957,455.697 595.370,457.067 597.818 C 459.809 602.720,466.000 601.513,466.000 596.078 C 466.000 590.965,460.949 589.189,457.438 593.068 M554.565 592.928 C 551.528 596.284,554.844 601.764,559.237 600.649 C 560.482 600.333,562.090 599.120,562.810 597.954 C 563.914 596.169,563.870 595.451,562.537 593.417 C 560.617 590.486,556.977 590.263,554.565 592.928 M179.750 594.080 C 177.292 595.512,177.441 601.441,180.000 604.000 C 182.629 606.629,184.609 606.527,186.483 603.666 C 187.711 601.792,187.793 600.705,186.901 598.145 C 186.290 596.392,184.967 594.517,183.961 593.979 C 181.775 592.809,181.939 592.805,179.750 594.080 M834.557 595.223 C 832.331 598.400,832.536 603.681,834.934 604.965 C 837.522 606.350,837.616 606.329,839.961 603.811 C 842.637 600.939,842.696 595.443,840.066 594.035 C 837.255 592.531,836.298 592.737,834.557 595.223 M136.403 600.329 C 128.595 607.046,137.415 627.957,146.341 623.890 C 152.717 620.986,152.435 607.249,145.879 601.365 C 142.010 597.893,139.549 597.624,136.403 600.329 M877.114 599.633 C 871.466 603.589,869.099 616.314,873.073 621.365 C 875.991 625.075,879.510 624.799,883.521 620.546 C 887.577 616.246,889.638 608.809,887.982 604.453 C 885.577 598.128,881.711 596.413,877.114 599.633 M481.046 602.445 C 479.191 604.679,480.217 608.275,483.182 609.933 C 485.630 611.303,486.043 611.271,487.932 609.562 C 490.231 607.481,490.637 604.037,488.800 602.200 C 487.146 600.546,482.500 600.693,481.046 602.445 M531.046 602.445 C 529.380 604.452,530.109 608.012,532.509 609.598 C 536.735 612.388,542.186 606.339,538.954 602.445 C 538.295 601.650,536.515 601.000,535.000 601.000 C 533.485 601.000,531.705 601.650,531.046 602.445 M337.605 605.299 C 334.961 607.233,335.843 612.070,339.182 613.935 C 341.629 615.303,342.044 615.270,343.932 613.562 C 346.541 611.200,346.565 608.565,344.000 606.000 C 341.671 603.671,340.072 603.496,337.605 605.299 M506.066 605.876 C 504.539 608.730,504.742 610.457,506.829 612.345 C 509.261 614.546,511.299 614.432,513.527 611.970 C 514.980 610.364,515.166 609.371,514.414 607.220 C 513.172 603.665,507.719 602.787,506.066 605.876 M675.655 605.829 C 673.350 608.375,673.591 611.600,676.223 613.443 C 679.083 615.447,679.592 615.408,682.000 613.000 C 684.555 610.445,684.589 606.386,682.066 605.035 C 679.270 603.539,677.533 603.754,675.655 605.829 M397.411 606.832 C 389.969 611.512,387.727 619.760,391.995 626.759 C 396.064 633.434,405.631 636.103,412.001 632.340 C 416.333 629.782,419.350 623.647,418.692 618.739 C 417.315 608.471,405.404 601.807,397.411 606.832 M611.367 606.918 C 607.478 609.289,605.251 612.388,603.934 617.262 C 601.777 625.239,608.993 634.000,617.720 634.000 C 624.993 634.000,633.000 626.265,633.000 619.238 C 633.000 614.513,629.358 608.398,625.435 606.536 C 621.039 604.450,615.152 604.610,611.367 606.918 M97.599 616.209 C 96.386 618.060,96.246 619.369,96.983 621.942 C 98.765 628.154,103.205 631.080,104.528 626.913 C 105.574 623.615,104.186 618.523,101.570 616.065 L 99.170 613.811 97.599 616.209 M918.142 616.547 C 914.398 621.306,914.565 629.000,918.413 629.000 C 921.651 629.000,924.960 620.402,923.204 616.549 C 921.743 613.341,920.664 613.340,918.142 616.547 M943.151 618.838 C 941.693 620.400,939.967 623.672,939.315 626.111 C 938.068 630.776,938.599 638.634,940.230 639.642 C 941.889 640.667,945.496 638.032,946.997 634.700 L 948.438 631.500 948.977 634.488 C 950.247 641.536,956.000 635.375,956.000 626.966 C 956.000 622.405,954.166 621.678,951.674 625.250 C 950.138 627.452,950.104 627.411,950.052 623.321 C 950.007 619.702,948.125 616.000,946.330 616.000 C 946.040 616.000,944.609 617.277,943.151 618.838 M72.607 618.582 C 71.624 621.144,71.911 628.434,73.139 632.101 C 75.202 638.263,80.562 642.135,82.558 638.906 C 84.851 635.197,82.341 623.649,78.177 618.750 C 76.325 616.570,73.413 616.482,72.607 618.582 M64.923 623.750 C 64.881 624.163,64.670 625.400,64.453 626.500 C 63.639 630.628,67.985 639.745,70.134 638.417 C 72.642 636.867,69.276 623.000,66.391 623.000 C 65.626 623.000,64.966 623.338,64.923 623.750 M39.414 628.364 C 39.069 629.264,39.137 630.788,39.566 631.750 C 39.994 632.713,40.468 634.544,40.618 635.820 C 40.996 639.032,43.059 645.246,44.244 646.739 C 45.754 648.643,47.000 647.234,47.000 643.622 C 47.000 635.712,41.127 623.899,39.414 628.364 M977.708 629.322 C 974.287 634.544,972.678 647.703,975.500 647.389 C 977.396 647.178,980.263 639.484,980.768 633.250 C 981.310 626.557,980.338 625.309,977.708 629.322 M296.239 628.666 C 291.561 630.550,293.676 639.000,298.826 639.000 C 304.268 639.000,305.674 634.583,301.545 630.455 C 299.049 627.958,298.476 627.765,296.239 628.666 M718.635 630.073 C 714.397 633.406,715.594 639.000,720.545 639.000 C 725.316 639.000,728.078 631.183,724.066 629.035 C 721.554 627.691,721.698 627.663,718.635 630.073 M429.020 630.698 C 419.933 635.404,418.284 647.517,425.803 654.322 C 426.907 655.321,429.787 656.734,432.202 657.460 C 440.141 659.850,447.545 655.590,450.063 647.185 C 451.047 643.900,450.906 642.778,448.997 638.718 C 445.227 630.696,436.099 627.031,429.020 630.698 M581.450 630.407 C 579.773 631.137,577.224 633.134,575.785 634.843 C 566.997 645.288,576.030 660.093,589.634 657.541 C 594.057 656.711,600.465 650.425,601.338 646.059 C 603.635 634.573,592.323 625.671,581.450 630.407 M751.104 640.669 C 746.702 642.901,741.999 650.279,742.004 654.946 C 742.009 659.886,745.115 664.553,749.322 665.941 C 752.244 666.906,753.727 666.762,758.625 665.041 C 761.830 663.914,765.333 662.112,766.410 661.035 C 768.218 659.227,768.282 658.528,767.253 651.881 C 766.440 646.625,765.499 644.045,763.766 642.311 C 760.609 639.155,755.419 638.482,751.104 640.669 M258.661 642.612 C 257.224 644.049,255.766 646.733,255.420 648.576 C 255.074 650.420,254.163 652.450,253.395 653.087 C 249.727 656.131,253.780 663.959,259.064 664.035 C 260.404 664.055,262.625 664.714,264.000 665.500 C 269.136 668.436,276.621 666.322,278.915 661.288 C 281.705 655.165,278.652 646.046,272.442 641.953 C 268.063 639.066,261.912 639.360,258.661 642.612 M468.159 645.006 C 463.400 646.115,458.272 651.431,457.489 656.065 C 456.496 661.943,459.727 668.310,465.092 671.047 C 471.515 674.323,478.034 673.433,482.846 668.621 C 486.229 665.237,486.500 664.528,486.500 659.039 C 486.500 653.662,486.187 652.788,483.130 649.634 C 481.276 647.721,478.576 645.875,477.130 645.531 C 475.683 645.187,473.825 644.752,473.000 644.566 C 472.175 644.379,469.996 644.577,468.159 645.006 M544.328 645.891 C 534.849 650.302,532.761 661.607,540.075 668.921 C 547.786 676.632,561.832 672.511,564.829 661.658 C 567.900 650.536,555.251 640.809,544.328 645.891 M646.228 645.264 C 643.603 646.490,642.250 650.582,643.704 652.905 C 645.196 655.290,649.319 655.410,651.383 653.130 C 655.020 649.111,651.029 643.021,646.228 645.264 M368.200 646.200 C 366.433 647.967,366.740 651.454,368.829 653.345 C 372.305 656.491,377.000 654.831,377.000 650.455 C 377.000 646.242,371.040 643.360,368.200 646.200 M503.304 651.956 C 498.659 654.788,496.615 658.475,496.615 664.021 C 496.615 673.072,503.866 678.839,513.831 677.716 C 517.579 677.293,519.123 676.450,522.213 673.138 C 525.507 669.606,525.999 668.454,525.993 664.289 C 525.986 658.892,523.814 654.835,519.359 651.898 C 515.493 649.349,507.533 649.378,503.304 651.956 M212.565 676.928 C 209.645 680.154,213.022 687.000,217.533 687.000 C 222.598 687.000,223.047 680.755,218.253 676.984 C 215.135 674.532,214.737 674.528,212.565 676.928 M801.825 676.038 C 799.322 677.499,797.501 683.693,799.032 685.539 C 801.175 688.120,804.849 687.297,807.011 683.750 C 809.407 679.821,809.477 678.619,807.429 676.571 C 805.635 674.777,804.217 674.643,801.825 676.038 M408.035 677.934 C 406.539 680.730,406.754 682.467,408.829 684.345 C 411.375 686.650,414.600 686.409,416.443 683.777 C 418.447 680.917,418.408 680.408,416.000 678.000 C 413.445 675.445,409.386 675.411,408.035 677.934 M603.408 678.500 C 601.891 680.816,601.891 681.184,603.408 683.500 C 604.309 684.875,605.936 686.000,607.023 686.000 C 609.125 686.000,613.000 682.716,613.000 680.934 C 613.000 675.825,606.278 674.119,603.408 678.500 M333.655 680.829 C 331.395 683.326,331.577 685.254,334.314 687.826 C 337.140 690.480,339.165 690.580,341.345 688.171 C 343.495 685.796,343.432 684.819,340.927 681.635 C 338.501 678.550,335.971 678.270,333.655 680.829 M679.000 681.000 C 676.454 683.546,676.456 686.197,679.004 688.504 C 680.664 690.006,681.439 690.121,683.519 689.173 C 684.900 688.544,686.544 686.900,687.173 685.519 C 688.121 683.439,688.006 682.664,686.504 681.004 C 684.197 678.456,681.546 678.454,679.000 681.000 M173.140 692.582 C 171.025 694.092,170.822 694.869,171.196 700.036 C 171.685 706.796,175.113 712.132,180.667 714.781 C 183.781 716.266,184.408 716.281,186.814 714.931 C 192.056 711.989,191.230 702.712,185.125 695.975 C 180.864 691.271,176.646 690.077,173.140 692.582 M838.062 694.563 C 831.457 700.530,829.437 711.114,834.313 714.214 C 840.629 718.231,850.984 708.676,850.995 698.821 C 851.004 690.251,845.018 688.279,838.062 694.563 M455.655 696.829 C 452.357 700.473,454.784 705.000,460.036 705.000 C 465.460 705.000,466.490 697.897,461.349 695.943 C 457.977 694.661,457.558 694.726,455.655 696.829 M558.280 696.020 C 555.594 697.101,554.283 701.431,556.011 703.513 C 558.718 706.776,566.000 704.088,566.000 699.826 C 566.000 698.178,562.908 694.961,561.421 695.063 C 560.915 695.098,559.501 695.529,558.280 696.020 M305.500 699.386 C 301.137 701.287,299.621 703.610,299.324 708.851 C 299.178 711.408,298.774 714.711,298.425 716.190 C 297.561 719.849,301.945 724.435,305.632 723.730 C 307.015 723.466,309.866 723.686,311.970 724.220 C 319.139 726.040,325.281 721.243,325.179 713.902 C 325.088 707.287,321.513 702.366,314.746 699.538 C 310.345 697.699,309.405 697.684,305.500 699.386 M707.001 699.123 C 701.087 701.482,697.000 707.572,697.000 714.027 C 697.000 717.255,697.637 718.791,699.923 721.077 C 702.594 723.748,703.446 724.000,709.812 724.000 C 718.350 724.000,720.813 722.383,722.052 715.964 C 723.684 707.501,723.276 705.076,719.600 701.400 C 715.988 697.788,712.108 697.087,707.001 699.123 M506.750 703.080 C 503.984 704.691,504.456 709.795,507.500 711.182 C 511.033 712.792,515.000 710.893,515.000 707.593 C 515.000 703.056,510.766 700.741,506.750 703.080 M139.015 718.482 C 136.409 721.622,142.785 732.064,146.449 730.658 C 148.677 729.803,148.383 724.756,145.922 721.629 C 142.930 717.824,140.485 716.711,139.015 718.482 M875.629 720.029 C 872.102 724.220,871.296 727.724,873.379 729.807 C 874.896 731.324,875.246 731.215,878.135 728.327 C 880.457 726.004,881.285 724.233,881.377 721.387 C 881.538 716.383,879.168 715.823,875.629 720.029 M383.452 720.433 C 381.484 723.436,382.845 726.672,386.457 727.578 C 392.224 729.026,395.323 724.951,391.831 720.512 C 389.284 717.274,385.545 717.239,383.452 720.433 M628.698 719.781 C 626.090 722.663,626.481 726.832,629.428 727.571 C 630.763 727.906,632.787 727.885,633.926 727.524 C 636.344 726.756,637.736 722.396,636.296 720.095 C 634.833 717.757,630.685 717.585,628.698 719.781 M899.936 727.901 C 892.672 733.889,889.358 746.054,894.780 746.823 C 896.322 747.042,898.029 746.110,900.051 743.945 L 903.042 740.743 902.771 744.013 C 902.416 748.296,904.187 748.787,907.427 745.303 C 912.408 739.949,912.845 731.742,907.989 734.775 C 905.256 736.482,904.764 736.310,905.965 734.066 C 907.354 731.470,907.274 727.674,905.800 726.200 C 904.149 724.549,903.925 724.614,899.936 727.901 M115.667 726.667 C 113.100 729.234,117.019 739.688,122.563 745.061 C 125.397 747.808,126.387 748.247,127.780 747.375 C 130.324 745.783,130.389 741.805,127.955 736.629 C 124.484 729.244,118.191 724.142,115.667 726.667 M109.000 736.852 C 109.000 739.896,112.379 745.615,115.222 747.384 C 118.067 749.153,119.698 746.720,117.981 743.270 C 113.738 734.749,109.000 731.363,109.000 736.852 M444.338 743.065 C 438.809 745.124,441.386 752.000,447.687 752.000 C 450.264 752.000,451.271 751.467,451.937 749.750 C 453.569 745.542,448.846 741.387,444.338 743.065 M570.223 743.557 C 567.583 745.406,567.169 750.467,569.582 751.393 C 572.548 752.531,575.687 752.003,577.435 750.072 C 579.674 747.598,578.682 744.210,575.349 742.943 C 572.297 741.782,572.851 741.716,570.223 743.557 M650.414 744.049 C 641.660 745.840,635.656 755.548,639.117 762.316 C 640.740 765.488,644.139 767.952,646.929 767.978 C 648.265 767.990,650.814 768.527,652.595 769.170 C 655.311 770.153,656.255 770.063,658.469 768.612 C 659.920 767.661,661.357 766.122,661.662 765.192 C 661.967 764.261,663.100 761.523,664.181 759.107 C 666.433 754.070,666.059 751.412,662.504 747.187 C 659.850 744.034,655.725 742.963,650.414 744.049 M362.020 745.284 C 358.339 747.147,356.819 750.756,357.509 756.000 C 357.834 758.475,358.076 761.658,358.048 763.073 C 358.017 764.562,359.027 766.616,360.442 767.945 C 362.394 769.780,363.555 770.111,366.194 769.585 C 369.852 768.856,373.543 768.325,376.327 768.129 C 377.332 768.058,379.469 766.685,381.077 765.077 C 388.813 757.341,380.731 743.967,368.349 744.015 C 366.232 744.023,363.384 744.594,362.020 745.284 M85.648 745.761 C 84.831 747.082,90.936 758.565,94.032 761.531 L 97.000 764.374 97.000 761.809 C 97.000 758.104,94.474 752.609,90.899 748.537 C 87.792 744.999,86.531 744.332,85.648 745.761 M931.129 746.750 C 926.172 750.896,921.438 764.920,925.524 763.352 C 927.592 762.559,935.000 749.924,935.000 747.192 C 935.000 744.544,933.915 744.420,931.129 746.750 M266.200 747.200 C 264.304 749.096,264.795 752.459,267.314 754.826 C 273.340 760.487,279.391 754.300,273.545 748.455 C 270.878 745.787,268.089 745.311,266.200 747.200 M746.519 748.390 C 740.743 754.166,745.991 759.942,752.420 754.884 C 754.497 753.250,755.040 752.056,754.805 749.634 C 754.390 745.368,750.174 744.735,746.519 748.390 M505.452 753.433 C 502.719 757.604,506.902 762.118,512.001 760.500 C 517.555 758.737,515.925 751.000,510.000 751.000 C 507.974 751.000,506.545 751.765,505.452 753.433 M232.635 773.073 C 229.187 775.785,229.199 779.833,232.672 785.080 C 235.462 789.297,242.287 794.000,245.615 794.000 C 249.249 794.000,252.000 791.154,252.000 787.394 C 252.000 781.115,247.714 775.450,240.768 772.548 C 236.045 770.574,235.790 770.591,232.635 773.073 M778.826 773.255 C 772.159 777.328,768.923 783.574,770.410 789.499 C 772.214 796.685,784.101 793.411,789.745 784.174 C 795.697 774.433,788.567 767.303,778.826 773.255 M431.500 773.350 C 424.074 776.757,422.778 781.834,427.080 790.663 C 430.929 798.564,433.455 800.107,438.560 797.673 C 440.490 796.753,442.712 796.000,443.499 796.000 C 445.749 796.000,451.720 790.250,452.437 787.394 C 453.444 783.382,449.675 776.548,445.314 774.479 C 440.384 772.139,435.083 771.706,431.500 773.350 M578.271 773.964 C 571.231 777.159,567.849 785.484,571.483 790.673 C 573.770 793.937,583.846 799.255,586.488 798.592 C 590.061 797.696,598.003 787.364,597.985 783.635 C 597.964 779.063,595.945 775.737,591.986 773.752 C 587.507 771.505,583.552 771.566,578.271 773.964 M504.415 783.366 C 498.151 786.206,495.304 792.963,498.140 798.262 C 500.031 801.795,507.885 809.000,509.845 809.000 C 511.774 809.000,517.298 805.325,522.129 800.827 C 524.447 798.669,525.000 797.309,525.000 793.773 C 525.000 790.087,524.450 788.859,521.532 786.031 C 518.651 783.238,517.171 782.610,512.782 782.319 C 509.653 782.111,506.243 782.537,504.415 783.366 M336.046 801.445 C 333.934 803.990,335.252 807.367,339.179 809.470 C 342.777 811.397,342.902 811.399,344.929 809.565 C 347.740 807.020,347.540 805.633,343.923 802.589 C 340.471 799.684,337.826 799.300,336.046 801.445 M675.924 802.922 C 672.779 806.067,672.855 808.317,676.168 810.090 C 679.081 811.649,684.401 808.251,684.830 804.560 C 685.436 799.341,680.426 798.420,675.924 802.922 M809.799 806.730 C 808.313 807.651,806.300 809.884,805.326 811.694 C 803.654 814.798,803.650 815.079,805.266 816.695 C 806.882 818.311,807.130 818.294,809.677 816.392 C 814.193 813.020,816.603 809.180,815.401 807.273 C 813.921 804.928,812.872 804.826,809.799 806.730 M204.663 807.435 C 203.927 809.354,207.880 815.075,211.246 816.965 C 213.681 818.331,214.107 818.321,215.564 816.865 C 217.043 815.386,217.046 814.989,215.596 812.185 C 212.835 806.846,206.025 803.887,204.663 807.435 M184.917 821.601 C 181.685 825.494,193.882 839.501,199.896 838.802 C 205.820 838.115,200.986 827.420,192.506 822.450 C 187.586 819.568,186.687 819.467,184.917 821.601 M828.711 822.536 C 817.606 830.125,815.437 843.322,826.324 837.056 C 829.931 834.980,830.232 834.940,829.539 836.633 C 827.678 841.171,827.731 842.000,829.883 842.000 C 832.608 842.000,840.000 834.636,840.000 831.921 C 840.000 830.130,839.583 829.933,837.000 830.500 C 833.735 831.217,833.057 830.028,835.551 827.958 C 836.495 827.174,836.984 825.463,836.801 823.585 C 836.403 819.510,833.660 819.154,828.711 822.536 M180.000 831.320 C 180.000 833.211,186.690 840.767,189.019 841.506 C 192.202 842.516,193.158 841.207,191.532 838.062 C 188.631 832.452,180.000 827.406,180.000 831.320 M310.039 835.189 C 308.918 836.392,308.000 838.487,308.000 839.844 C 308.000 845.459,317.273 852.923,324.316 852.978 C 330.269 853.024,333.739 849.079,331.934 844.315 C 328.580 835.465,315.040 829.821,310.039 835.189 M698.871 835.006 C 690.489 839.435,687.318 847.119,692.167 851.250 C 698.248 856.430,714.000 847.993,714.000 839.557 C 714.000 833.265,706.459 830.997,698.871 835.006 M418.242 835.543 C 417.009 836.407,416.000 837.745,416.000 838.518 C 416.000 840.796,420.159 844.000,423.117 844.000 C 425.794 844.000,429.000 841.781,429.000 839.929 C 429.000 838.729,425.279 835.000,424.082 835.000 C 423.577 835.000,422.561 834.769,421.824 834.486 C 421.088 834.203,419.476 834.679,418.242 835.543 M595.250 835.499 C 589.825 837.843,591.237 844.000,597.200 844.000 C 600.084 844.000,604.012 840.961,603.985 838.750 C 603.939 835.034,599.849 833.512,595.250 835.499 M506.223 847.557 C 501.844 850.624,504.065 855.000,510.000 855.000 C 514.016 855.000,516.000 853.565,516.000 850.660 C 516.000 846.540,510.270 844.722,506.223 847.557 M853.887 849.437 C 847.296 854.272,842.770 862.000,846.529 862.000 C 848.455 862.000,861.217 849.151,860.733 847.699 C 860.055 845.664,858.487 846.062,853.887 849.437 M161.000 848.392 C 161.000 850.402,169.575 859.642,173.049 861.374 C 175.761 862.728,176.000 862.703,176.000 861.073 C 176.000 858.432,170.676 851.581,166.728 849.141 C 162.710 846.658,161.000 846.434,161.000 848.392 M402.898 874.284 C 397.996 877.580,397.995 880.353,402.894 885.014 C 412.924 894.555,430.348 889.092,423.452 878.567 C 421.639 875.800,413.400 872.000,409.213 872.000 C 407.608 872.000,404.767 873.028,402.898 874.284 M605.000 874.068 C 594.021 879.005,594.286 888.489,605.438 889.746 C 608.994 890.147,611.111 889.691,615.365 887.610 C 623.655 883.554,625.383 876.801,618.979 873.489 C 615.054 871.459,610.369 871.653,605.000 874.068 M292.151 875.318 C 290.727 877.034,293.037 880.450,297.011 882.506 C 304.209 886.228,307.456 882.639,301.681 877.346 C 297.885 873.867,294.035 873.048,292.151 875.318 M721.388 874.980 C 720.227 875.449,718.298 877.077,717.103 878.596 C 715.223 880.987,715.122 881.550,716.354 882.783 C 718.388 884.816,723.127 883.520,726.489 880.011 C 730.929 875.377,727.871 872.361,721.388 874.980 M501.905 888.285 C 493.786 893.756,498.888 902.188,510.417 902.355 C 513.240 902.396,517.022 901.819,518.822 901.074 C 522.972 899.355,525.517 894.835,523.967 891.937 C 520.749 885.925,508.432 883.886,501.905 888.285 M277.250 893.717 C 274.997 894.527,275.938 898.339,279.250 901.826 L 282.500 905.248 278.828 904.593 C 274.210 903.770,273.319 905.102,276.236 908.469 C 278.454 911.029,285.761 914.266,287.247 913.347 C 288.737 912.427,287.953 910.108,285.500 908.179 C 281.730 905.213,282.475 904.846,287.712 907.091 C 293.390 909.525,297.000 908.972,297.000 905.670 C 297.000 900.019,283.106 891.611,277.250 893.717 M736.748 894.427 C 731.946 896.140,726.096 900.596,725.025 903.355 C 723.783 906.557,727.244 909.953,729.998 908.234 C 731.084 907.555,732.664 907.000,733.509 907.000 C 734.851 907.000,734.831 907.328,733.352 909.585 C 730.140 914.487,735.193 914.835,742.250 910.198 C 747.044 907.048,747.482 903.556,743.000 904.213 C 741.350 904.455,740.000 904.554,740.000 904.433 C 740.000 904.311,741.350 902.766,743.000 901.000 C 748.934 894.647,745.689 891.236,736.748 894.427 M394.513 918.354 C 392.561 919.794,392.560 919.856,394.422 921.914 C 398.303 926.203,408.000 926.678,408.000 922.580 C 408.000 919.044,397.878 915.872,394.513 918.354 M618.500 917.719 C 615.915 918.349,613.000 920.946,613.000 922.620 C 613.000 925.101,616.786 926.223,620.799 924.931 C 625.483 923.423,627.000 922.213,627.000 919.985 C 627.000 917.321,623.721 916.447,618.500 917.719 M260.131 925.919 C 257.725 927.406,271.495 937.000,276.035 937.000 C 278.804 937.000,278.490 935.856,274.750 932.316 C 269.809 927.640,262.513 924.447,260.131 925.919 M755.703 926.442 C 749.748 928.566,744.000 932.777,744.000 935.014 C 744.000 937.607,745.061 937.521,751.400 934.418 C 758.319 931.030,762.512 927.638,761.602 926.166 C 760.720 924.738,760.445 924.751,755.703 926.442 M505.250 933.031 C 502.633 934.083,502.338 936.206,504.553 938.044 C 506.871 939.968,514.751 939.683,516.798 937.602 C 518.403 935.970,518.365 935.760,516.139 933.935 C 513.654 931.898,509.026 931.513,505.250 933.031 M383.930 941.584 C 382.101 943.789,383.675 945.991,389.006 948.684 L 393.330 950.869 388.915 951.184 C 383.413 951.578,383.019 953.760,388.000 956.248 C 391.595 958.044,398.497 958.623,399.375 957.202 C 400.040 956.126,398.922 954.568,396.500 953.195 C 394.760 952.208,395.037 952.057,398.639 952.030 C 401.199 952.012,403.679 951.267,405.139 950.078 L 407.500 948.157 404.700 945.222 C 400.013 940.309,386.896 938.011,383.930 941.584 M623.318 941.326 C 619.814 942.618,615.000 946.445,615.000 947.937 C 615.000 949.618,619.355 951.999,622.473 952.022 L 625.500 952.044 623.106 953.885 C 617.853 957.924,625.113 959.493,632.837 955.988 C 637.857 953.710,637.891 951.727,632.921 951.000 L 629.500 950.500 633.236 948.709 C 637.740 946.551,639.692 943.538,637.947 941.436 C 636.496 939.688,627.933 939.623,623.318 941.326 M503.607 956.868 C 497.301 958.245,497.591 963.274,504.076 965.020 C 508.205 966.132,508.385 967.466,504.500 968.167 C 501.404 968.725,502.138 971.321,505.679 972.337 C 510.088 973.601,518.000 972.322,518.000 970.345 C 518.000 969.502,517.082 968.573,515.959 968.279 C 513.499 967.636,513.908 965.619,516.583 965.198 C 523.612 964.093,525.057 959.372,519.000 957.306 C 515.262 956.032,508.341 955.835,503.607 956.868 M375.000 977.036 C 375.000 978.750,384.112 982.156,390.250 982.735 C 397.661 983.435,397.856 981.772,390.750 978.464 C 385.306 975.929,375.000 974.995,375.000 977.036 M632.276 977.326 C 630.502 977.972,628.040 979.513,626.803 980.750 L 624.556 983.000 628.609 983.000 C 633.832 983.000,645.674 979.291,646.388 977.432 C 646.827 976.287,645.791 976.015,641.219 976.076 C 638.073 976.118,634.049 976.680,632.276 977.326 M504.000 993.737 C 501.375 994.225,499.790 995.852,500.625 997.202 C 500.896 997.641,505.624 998.000,511.132 998.000 C 520.115 998.000,521.112 997.820,520.811 996.258 C 520.315 993.680,511.454 992.352,504.000 993.737 " stroke="none" fill="#000000" fill-rule="evenodd"/></svg>